<svg width="20" height="20" viewBox="0 0 20 20" fill="none" xmlns="http://www.w3.org/2000/svg">
<path d="M10 3.69727C10.2589 3.69727 10.4688 3.90713 10.4688 4.16602V9.53027H15.834L15.9277 9.54004C16.1414 9.5836 16.3026 9.77253 16.3027 9.99902C16.3027 10.2256 16.1415 10.4144 15.9277 10.458L15.834 10.4678H10.4688V15.833C10.4686 16.0917 10.2588 16.3018 10 16.3018C9.74128 16.3017 9.53142 16.0917 9.53125 15.833V10.4678H4.16699C3.90811 10.4678 3.69824 10.2579 3.69824 9.99902C3.69842 9.74029 3.90822 9.53027 4.16699 9.53027H9.53125V4.16602C9.53125 3.90717 9.74117 3.69733 10 3.69727Z" fill="#121212"/>
</svg>
