<svg width="28" height="28" viewBox="0 0 28 28" fill="none" xmlns="http://www.w3.org/2000/svg">
<path d="M11.3076 8.82031H16.6924V7C16.6923 6.82767 16.6045 6.4622 16.251 6.13477C15.9092 5.81831 15.2479 5.47461 14 5.47461C12.7521 5.47461 12.0908 5.81831 11.749 6.13477C11.3955 6.4622 11.3077 6.82767 11.3076 7V8.82031ZM7.58887 20.6611C7.5889 20.8628 7.66966 21.0576 7.81543 21.2021C7.96143 21.347 8.16086 21.4297 8.37012 21.4297H19.4932C19.7024 21.4297 19.9019 21.347 20.0479 21.2021C20.1936 21.0576 20.2744 20.8628 20.2744 20.6611V10.4355H18.3076V12.833H16.6924V10.4355H11.3076V12.833H9.69238V10.4355H7.58887V20.6611ZM18.3076 8.82031H21.082L21.165 8.82422C21.2116 8.82897 21.2569 8.83826 21.3008 8.85059C21.3063 8.85212 21.312 8.85284 21.3174 8.85449C21.3563 8.86631 21.3935 8.88212 21.4297 8.89941C21.4402 8.90445 21.4507 8.90956 21.4609 8.91504C21.4915 8.9313 21.5198 8.95079 21.5479 8.9707C21.5719 8.98782 21.5942 9.00678 21.6162 9.02637C21.6331 9.04141 21.6504 9.05586 21.666 9.07227C21.6841 9.09126 21.6997 9.11214 21.7158 9.13281C21.7317 9.15314 21.7488 9.17251 21.7627 9.19434C21.7659 9.19937 21.7684 9.20485 21.7715 9.20996C21.7936 9.24645 21.8138 9.28424 21.8301 9.32422C21.8327 9.33061 21.8345 9.33728 21.8369 9.34375C21.8702 9.43226 21.8896 9.52776 21.8896 9.62793V20.6611C21.8896 21.2953 21.6356 21.9021 21.1855 22.3486C20.7356 22.7949 20.1267 23.0449 19.4932 23.0449H8.37012C7.73663 23.0449 7.12766 22.7949 6.67773 22.3486C6.22773 21.9021 5.97367 21.2953 5.97363 20.6611V9.62793C5.97363 9.20987 6.29116 8.86576 6.69824 8.82422C6.72552 8.82143 6.75323 8.82031 6.78125 8.82031H9.69238V7C9.69248 6.39453 9.95552 5.59362 10.6514 4.94922C11.3596 4.29354 12.4481 3.85938 14 3.85938C15.5519 3.85938 16.6404 4.29354 17.3486 4.94922C18.0445 5.59362 18.3075 6.39453 18.3076 7V8.82031Z" fill="currentColor"/>
</svg>
