<svg width="54" height="54" viewBox="0 0 54 54" fill="none" xmlns="http://www.w3.org/2000/svg">
<path d="M35.1342 21.012H33.6766L33.3122 19.8732C33.0759 19.205 32.6377 18.6269 32.0583 18.2188C31.4788 17.8107 30.7868 17.593 30.0781 17.5957H24.2477C23.532 17.5971 22.8349 17.8231 22.2546 18.242C21.6743 18.6608 21.2403 19.2513 21.0136 19.9302L20.6492 21.0689H19.1916C18.2856 21.0689 17.4167 21.4288 16.776 22.0695C16.1353 22.7102 15.7754 23.5791 15.7754 24.4852V33.5952C15.7754 34.5012 16.1353 35.3702 16.776 36.0108C17.4167 36.6515 18.2856 37.0114 19.1916 37.0114H35.1342C36.0402 37.0114 36.9091 36.6515 37.5498 36.0108C38.1905 35.3702 38.5504 34.5012 38.5504 33.5952V24.4852C38.558 24.0318 38.4752 23.5814 38.3069 23.1603C38.1386 22.7393 37.8882 22.3559 37.5702 22.0326C37.2522 21.7093 36.873 21.4526 36.4548 21.2774C36.0366 21.1021 35.5876 21.0119 35.1342 21.012ZM36.2729 33.5382C36.2729 33.8403 36.1529 34.1299 35.9394 34.3435C35.7258 34.557 35.4362 34.677 35.1342 34.677H19.1916C18.8896 34.677 18.6 34.557 18.3864 34.3435C18.1729 34.1299 18.0529 33.8403 18.0529 33.5382V24.4282C18.0529 24.1262 18.1729 23.8366 18.3864 23.623C18.6 23.4095 18.8896 23.2895 19.1916 23.2895H21.4691C21.7175 23.3024 21.9632 23.2338 22.1688 23.0939C22.3745 22.9541 22.5287 22.7508 22.6079 22.5151L23.2228 20.6476C23.2992 20.4214 23.4448 20.225 23.6389 20.086C23.833 19.947 24.0659 19.8726 24.3046 19.8732H30.135C30.3738 19.8726 30.6067 19.947 30.8008 20.086C30.9949 20.225 31.1405 20.4214 31.2169 20.6476L31.8318 22.5151C31.9049 22.7323 32.0418 22.9225 32.2246 23.0606C32.4075 23.1988 32.6277 23.2785 32.8567 23.2895H35.1342C35.4362 23.2895 35.7258 23.4095 35.9394 23.623C36.1529 23.8366 36.2729 24.1262 36.2729 24.4282V33.5382ZM27.1629 23.2895C26.262 23.2895 25.3813 23.5566 24.6323 24.0571C23.8832 24.5577 23.2994 25.269 22.9546 26.1014C22.6099 26.9337 22.5197 27.8495 22.6954 28.7331C22.8712 29.6167 23.305 30.4283 23.942 31.0654C24.5791 31.7024 25.3907 32.1362 26.2743 32.312C27.1578 32.4877 28.0737 32.3975 28.906 32.0528C29.7383 31.708 30.4497 31.1242 30.9502 30.3751C31.4508 29.626 31.7179 28.7454 31.7179 27.8445C31.7179 26.6364 31.238 25.4778 30.3838 24.6236C29.5295 23.7694 28.371 23.2895 27.1629 23.2895ZM27.1629 30.122C26.7125 30.122 26.2721 29.9884 25.8976 29.7382C25.5231 29.4879 25.2311 29.1322 25.0588 28.716C24.8864 28.2999 24.8413 27.842 24.9292 27.4002C25.017 26.9584 25.2339 26.5526 25.5525 26.2341C25.871 25.9155 26.2768 25.6986 26.7186 25.6107C27.1604 25.5229 27.6183 25.568 28.0345 25.7403C28.4506 25.9127 28.8063 26.2046 29.0566 26.5792C29.3068 26.9537 29.4404 27.394 29.4404 27.8445C29.4404 28.4485 29.2005 29.0278 28.7733 29.4549C28.3462 29.882 27.7669 30.122 27.1629 30.122Z" fill="currentColor"/>
</svg>
