<svg width="143" height="144" viewBox="0 0 143 144" fill="none" xmlns="http://www.w3.org/2000/svg">
<path d="M31.8716 110.978L22.8289 118.621L20.2158 115.529C19.603 114.804 19.1963 114.059 18.9957 113.292C18.7869 112.533 18.7469 111.792 18.8757 111.068C18.9976 110.337 19.2516 109.654 19.6378 109.021C20.0171 108.379 20.4879 107.82 21.05 107.345C21.6121 106.87 22.2412 106.499 22.9372 106.232C23.6264 105.957 24.3418 105.82 25.0834 105.822C25.8181 105.815 26.5465 105.975 27.2685 106.3C27.9824 106.632 28.6457 107.161 29.2585 107.886L31.8716 110.978ZM21.5139 114.537L22.8669 116.138L29.4046 110.612L28.0515 109.011C27.6246 108.506 27.1632 108.142 26.6672 107.919C26.1631 107.702 25.653 107.603 25.1369 107.62C24.6126 107.644 24.1074 107.757 23.6212 107.958C23.12 108.158 22.6657 108.431 22.2584 108.775C21.8511 109.119 21.507 109.522 21.2261 109.983C20.9383 110.435 20.743 110.915 20.64 111.421C20.537 111.927 20.5501 112.446 20.6795 112.979C20.8089 113.513 21.087 114.032 21.5139 114.537ZM25.1004 102.633L14.8481 108.556L10.9825 101.864L12.3957 101.048L15.3249 106.118L18.2482 104.43L15.6871 99.9962L17.0864 99.1879L19.6475 103.621L22.7509 101.829L19.7817 96.6886L21.1949 95.8722L25.1004 102.633ZM20.8079 94.7232L9.58935 98.5087L8.79645 96.1588L14.1507 90.958L6.72466 90.019L5.94199 87.6994L17.1605 83.914L17.7488 85.6574L9.16815 88.5528L15.9159 89.4336L16.4735 91.0861L11.6086 95.8854L20.2196 92.9798L20.8079 94.7232ZM16.6094 77.142C16.7027 78.0867 16.6152 78.9368 16.3468 79.6921C16.0678 80.4486 15.6658 81.0992 15.1408 81.6441C14.6052 82.1901 13.9886 82.6208 13.2909 82.9363C12.5932 83.2517 11.8675 83.4466 11.1138 83.5211C10.3602 83.5955 9.61566 83.5458 8.88034 83.3719C8.1344 83.1991 7.45071 82.8968 6.82927 82.4652C6.20782 82.0335 5.69161 81.4735 5.28063 80.7852C4.85903 80.098 4.60158 79.2821 4.50826 78.3373C4.41389 77.382 4.5062 76.5261 4.78519 75.7697C5.05357 75.0143 5.45025 74.3641 5.97523 73.8192C6.50021 73.2743 7.11155 72.8441 7.80925 72.5287C8.49634 72.2143 9.21672 72.0199 9.97038 71.9454C10.724 71.871 11.4739 71.9202 12.2198 72.093C12.9657 72.2659 13.6547 72.5676 14.2868 72.9982C14.9082 73.4299 15.4297 73.9893 15.8513 74.6766C16.2623 75.3648 16.515 76.1866 16.6094 77.142ZM14.9057 77.3103C14.8218 76.4611 14.5445 75.7703 14.0739 75.238C13.5927 74.7067 13.0083 74.325 12.3209 74.0928C11.6227 73.8616 10.9022 73.7827 10.1591 73.8561C9.60714 73.9107 9.08478 74.048 8.59203 74.2682C8.08868 74.4894 7.64626 74.785 7.26478 75.1549C6.88225 75.5143 6.59833 75.9496 6.41304 76.461C6.21608 76.9628 6.14905 77.5321 6.21196 78.169C6.27383 78.7953 6.45095 79.3405 6.74333 79.8047C7.02404 80.2593 7.38764 80.6307 7.83413 80.9189C8.27957 81.1964 8.77075 81.3944 9.30766 81.5129C9.83396 81.6324 10.3731 81.6649 10.9251 81.6104C11.6681 81.537 12.3593 81.3187 12.9987 80.9554C13.6275 80.5931 14.1259 80.1045 14.4939 79.4893C14.8512 78.8752 14.9885 78.1489 14.9057 77.3103ZM16.9043 63.6473C16.8042 64.3442 16.6281 64.9331 16.3758 65.4142C16.125 65.8846 15.8389 66.2638 15.5174 66.5517C15.1853 66.8381 14.8465 67.0588 14.5009 67.2139C14.1569 67.3585 13.8408 67.4586 13.5526 67.5142C13.2539 67.5683 13.0125 67.5983 12.8285 67.6042C12.6444 67.6101 12.5524 67.613 12.5524 67.613L12.823 65.7283C12.823 65.7283 12.8992 65.7231 13.0516 65.7127C13.1934 65.7007 13.3767 65.6624 13.6015 65.5977C13.8158 65.5315 14.0421 65.4185 14.2806 65.2588C14.51 65.087 14.7214 64.8533 14.9147 64.5578C15.0989 64.2502 15.2267 63.8483 15.298 63.352C15.4041 62.6129 15.3125 62.0125 15.0232 61.5507C14.7354 61.0783 14.3223 60.8035 13.7838 60.7261C13.3193 60.6594 12.9375 60.7662 12.6387 61.0466C12.3307 61.3149 12.0649 61.7401 11.8412 62.3222L11.2541 63.822C11.044 64.3845 10.7819 64.8964 10.4678 65.3578C10.1447 65.8071 9.74993 66.1545 9.28363 66.4001C8.81884 66.635 8.26441 66.7063 7.62035 66.6138C6.9235 66.5137 6.35122 66.2591 5.90349 65.85C5.44672 65.4288 5.12957 64.8983 4.95204 64.2586C4.76546 63.6068 4.72827 62.8902 4.84047 62.1089C4.94964 61.3487 5.156 60.7372 5.45954 60.2743C5.75253 59.8099 6.08391 59.4534 6.45367 59.2047C6.82343 58.9561 7.1871 58.7874 7.54468 58.6987C7.89322 58.5979 8.18666 58.543 8.42501 58.5341C8.6528 58.5237 8.76669 58.5186 8.76669 58.5186L8.50742 60.324C8.50742 60.324 8.41992 60.333 8.24492 60.351C8.05937 60.3674 7.83907 60.4382 7.58405 60.5632C7.33054 60.6777 7.09657 60.8811 6.88215 61.1736C6.65869 61.4541 6.50905 61.8582 6.43324 62.3861C6.32862 63.1147 6.41947 63.6827 6.70579 64.0902C6.9921 64.4977 7.34115 64.731 7.75293 64.7901C8.15414 64.8477 8.49816 64.7409 8.78497 64.4696C9.06122 64.1967 9.29457 63.81 9.48501 63.3093L10.1197 61.7032C10.3449 61.1105 10.6304 60.5858 10.9762 60.129C11.3235 59.6616 11.7454 59.3127 12.2419 59.0823C12.7278 58.8503 13.2927 58.7806 13.9368 58.8731C14.5914 58.9671 15.1697 59.2171 15.6718 59.6233C16.1648 60.0174 16.5294 60.5547 16.7658 61.2352C16.9915 61.9141 17.0377 62.7182 16.9043 63.6473ZM17.6938 58.5385L6.45733 54.8067L7.04735 53.0301L11.7849 54.6035L13.4541 49.5774L8.71658 48.004L9.3066 46.2274L20.5431 49.9592L19.9531 51.7358L15.0333 50.1019L13.3641 55.128L18.2839 56.7619L17.6938 58.5385ZM24.0595 44.139C23.583 44.9601 23.0152 45.5987 22.3559 46.0548C21.6874 46.5054 20.9809 46.7984 20.2364 46.9337C19.4828 47.0637 18.7307 47.0527 17.9802 46.9009C17.2297 46.7491 16.5269 46.4831 15.8719 46.103C15.2168 45.7229 14.6418 45.2474 14.1468 44.6765C13.6426 44.1003 13.2645 43.4554 13.0126 42.7419C12.7606 42.0284 12.6691 41.2724 12.7379 40.4737C12.7975 39.6697 13.0655 38.8571 13.542 38.036C14.0238 37.2056 14.5989 36.5651 15.2674 36.1144C15.9267 35.6584 16.6286 35.3627 17.373 35.2274C18.1175 35.0921 18.865 35.1004 19.6155 35.2522C20.3567 35.3987 21.0549 35.662 21.7099 36.0421C22.365 36.4222 22.9446 36.9004 23.4488 37.4766C23.9531 38.0529 24.3357 38.7004 24.5969 39.4192C24.8488 40.1327 24.945 40.8915 24.8854 41.6955C24.8166 42.4942 24.5413 43.3087 24.0595 44.139ZM22.5787 43.2798C23.007 42.5417 23.1858 41.8192 23.1151 41.1122C23.0351 40.3998 22.7841 39.7486 22.362 39.1583C21.9307 38.5627 21.3921 38.0775 20.7463 37.7028C20.2665 37.4244 19.7624 37.2305 19.2339 37.1212C18.6962 37.0065 18.1644 36.9877 17.6387 37.0649C17.1182 37.1329 16.6334 37.3202 16.1842 37.6268C15.7311 37.9189 15.3439 38.3417 15.0227 38.8952C14.7069 39.4396 14.5319 39.9855 14.4978 40.533C14.4599 41.0659 14.5378 41.5798 14.7317 42.0746C14.9309 42.5602 15.2137 43.0079 15.5801 43.4179C15.9373 43.8224 16.3558 44.1639 16.8355 44.4423C17.4813 44.8171 18.1698 45.0439 18.9009 45.1229C19.6228 45.1965 20.3129 45.0912 20.971 44.8072C21.6199 44.5178 22.1558 44.0086 22.5787 43.2798ZM27.5363 38.3026L18.6562 30.4713L21.5983 27.1352C22.2121 26.4392 22.8676 25.9862 23.5648 25.7762C24.254 25.5591 24.9249 25.5321 25.5775 25.6952C26.2221 25.8513 26.7884 26.1445 27.2764 26.5748C27.7644 27.0052 28.1301 27.5339 28.3735 28.161C28.6169 28.7881 28.678 29.4607 28.5568 30.1787C28.4276 30.8896 28.0561 31.5931 27.4423 32.2891L25.7385 34.2211L28.7745 36.8986L27.5363 38.3026ZM22.8223 28.2147L21.1184 30.1467L24.5145 33.1417L26.2183 31.2096C26.5569 30.8256 26.7592 30.4351 26.8249 30.038C26.8827 29.6338 26.84 29.2548 26.6969 28.9011C26.5458 28.5403 26.3302 28.2364 26.0502 27.9894C25.7622 27.7354 25.4338 27.5596 25.0649 27.4618C24.688 27.357 24.3067 27.362 23.9209 27.4769C23.5271 27.5848 23.1609 27.8307 22.8223 28.2147ZM59.8738 17.9894L58.3016 6.25421L62.3138 5.71669C63.2547 5.59063 64.102 5.64931 64.8557 5.89272C65.6079 6.12556 66.2541 6.49098 66.7944 6.98899C67.3452 7.48558 67.7837 8.06718 68.1097 8.73378C68.4464 9.39897 68.6636 10.0963 68.7613 10.8258C68.859 11.5553 68.833 12.2852 68.6834 13.0155C68.5443 13.7445 68.2744 14.4209 67.8737 15.045C67.4836 15.6677 66.957 16.1956 66.294 16.6288C65.6296 17.0514 64.8269 17.3258 63.886 17.4518L59.8738 17.9894ZM62.4512 7.34486L60.3737 7.62319L61.5104 16.1074L63.5878 15.8291C64.2433 15.7412 64.7986 15.5485 65.2538 15.2507C65.7075 14.9424 66.0661 14.5661 66.3294 14.1219C66.5914 13.6671 66.7683 13.1806 66.8603 12.6625C66.9615 12.1323 66.9767 11.603 66.9059 11.0744C66.835 10.5458 66.6811 10.039 66.4439 9.55424C66.2174 9.06802 65.9186 8.64529 65.5476 8.28604C65.1766 7.92678 64.7317 7.65815 64.2128 7.48015C63.6939 7.30214 63.1067 7.25705 62.4512 7.34486ZM70.5504 16.7766L71.0842 4.9486L78.8044 5.29705L78.7308 6.92739L72.8807 6.66335L72.7285 10.0359L77.8433 10.2668L77.7704 11.8811L72.6557 11.6503L72.4941 15.2306L78.424 15.4983L78.3504 17.1286L70.5504 16.7766ZM79.5281 17.417L82.3372 5.91501L84.7464 6.5034L86.2724 13.8101L91.0414 8.0408L93.4195 8.62159L90.6104 20.1235L88.8229 19.687L90.9715 10.8896L86.6148 16.1172L84.9206 15.7034L83.4717 9.02498L81.3156 17.8535L79.5281 17.417ZM96.6148 23.3C95.7681 22.8706 95.0986 22.3396 94.6061 21.7071C94.1184 21.0651 93.786 20.3763 93.6089 19.6406C93.4367 18.8954 93.4052 18.1439 93.5145 17.3861C93.6238 16.6282 93.8497 15.9116 94.1923 15.2361C94.5348 14.5607 94.9771 13.9598 95.5192 13.4334C96.0661 12.8974 96.6886 12.4836 97.3867 12.1918C98.0849 11.9001 98.8346 11.766 99.6359 11.7897C100.442 11.8038 101.268 12.0256 102.115 12.455C102.971 12.8892 103.643 13.4274 104.131 14.0694C104.623 14.7019 104.958 15.386 105.135 16.1216C105.312 16.8572 105.346 17.604 105.237 18.3619C105.132 19.1102 104.909 19.8221 104.566 20.4975C104.224 21.173 103.779 21.7786 103.232 22.3146C102.685 22.8505 102.06 23.2691 101.357 23.5704C100.659 23.8621 99.9071 24.001 99.101 23.9868C98.2997 23.9631 97.471 23.7342 96.6148 23.3ZM97.3892 21.7731C98.1502 22.1591 98.8817 22.2968 99.5836 22.1864C100.29 22.0664 100.926 21.779 101.492 21.3243C102.062 20.8601 102.516 20.295 102.854 19.6291C103.105 19.1344 103.27 18.6201 103.349 18.0863C103.434 17.543 103.422 17.011 103.316 16.4904C103.218 15.9747 103.004 15.5012 102.673 15.07C102.355 14.634 101.911 14.2713 101.341 13.9819C100.779 13.6972 100.224 13.5533 99.6759 13.5502C99.1417 13.5423 98.633 13.6491 98.1499 13.8706C97.6764 14.0969 97.2453 14.4045 96.8567 14.7934C96.4729 15.1728 96.1555 15.6099 95.9046 16.1046C95.5669 16.7705 95.3792 17.4707 95.3416 18.2051C95.3089 18.93 95.4528 19.613 95.7736 20.2541C96.0991 20.8856 96.6376 21.392 97.3892 21.7731ZM107.835 30.8009C107.302 30.3414 106.9 29.876 106.631 29.4044C106.369 28.9399 106.204 28.4946 106.134 28.0687C106.071 27.6347 106.068 27.2303 106.123 26.8556C106.186 26.4878 106.272 26.1676 106.38 25.8948C106.496 25.6139 106.6 25.3943 106.694 25.236C106.788 25.0778 106.835 24.9986 106.835 24.9986L108.278 26.2412C108.278 26.2412 108.241 26.3082 108.168 26.4422C108.102 26.5682 108.036 26.7433 107.969 26.9676C107.91 27.1838 107.883 27.4354 107.889 27.7223C107.911 28.0081 107.994 28.312 108.139 28.634C108.299 28.9549 108.569 29.2789 108.949 29.6061C109.514 30.0933 110.07 30.3393 110.615 30.3441C111.168 30.3558 111.622 30.1556 111.977 29.7434C112.283 29.3878 112.398 29.0086 112.323 28.6058C112.263 28.2019 112.047 27.749 111.677 27.2471L110.729 25.945C110.368 25.4652 110.078 24.9687 109.858 24.4557C109.653 23.9415 109.573 23.4218 109.617 22.8967C109.669 22.3785 109.908 21.8729 110.332 21.3798C110.792 20.8464 111.314 20.5011 111.9 20.344C112.501 20.1858 113.119 20.204 113.753 20.3988C114.403 20.5924 115.027 20.9467 115.625 21.4618C116.207 21.963 116.611 22.4661 116.838 22.9711C117.072 23.468 117.194 23.9392 117.204 24.3846C117.215 24.8301 117.161 25.2274 117.044 25.5765C116.941 25.9245 116.829 26.2013 116.709 26.407C116.595 26.6045 116.538 26.7033 116.538 26.7033L115.156 25.513C115.156 25.513 115.195 25.4344 115.274 25.2773C115.36 25.112 115.419 24.8883 115.451 24.6061C115.491 24.3308 115.446 24.0241 115.314 23.6859C115.198 23.3467 114.938 23.003 114.534 22.655C113.977 22.1747 113.449 21.9455 112.951 21.9674C112.454 21.9894 112.069 22.158 111.798 22.4732C111.533 22.7803 111.438 23.1278 111.513 23.5155C111.594 23.8952 111.794 24.3 112.114 24.73L113.125 26.1295C113.504 26.6383 113.792 27.1613 113.991 27.6986C114.198 28.2429 114.265 28.7863 114.192 29.3287C114.126 29.8631 113.881 30.3767 113.456 30.8698C113.024 31.3709 112.502 31.7236 111.89 31.9281C111.292 32.1315 110.643 32.1496 109.943 31.9825C109.249 31.8073 108.546 31.4134 107.835 30.8009ZM111.718 34.2156L120.9 26.7407L122.082 28.1924L118.21 31.344L121.554 35.4511L125.425 32.2995L126.607 33.7513L117.425 41.2263L116.243 39.7745L120.263 36.5017L116.92 32.3946L112.9 35.6674L111.718 34.2156ZM120.446 47.3195C120.009 46.4766 119.776 45.6545 119.745 44.8535C119.724 44.0475 119.857 43.2943 120.142 42.5936C120.438 41.8881 120.851 41.2596 121.382 40.7082C121.913 40.1567 122.515 39.7069 123.188 39.3585C123.86 39.0102 124.57 38.7806 125.318 38.6698C126.074 38.554 126.821 38.5815 127.559 38.7523C128.296 38.923 128.983 39.252 129.619 39.739C130.266 40.2212 130.807 40.8838 131.244 41.7267C131.685 42.5792 131.916 43.4084 131.937 44.2143C131.968 45.0154 131.84 45.7662 131.555 46.4668C131.269 47.1674 130.86 47.7935 130.329 48.3449C129.807 48.8914 129.21 49.3389 128.538 49.6872C127.865 50.0355 127.15 50.2676 126.394 50.3833C125.637 50.4991 124.885 50.474 124.138 50.3082C123.401 50.1374 122.71 49.8109 122.063 49.3288C121.427 48.8417 120.888 48.172 120.446 47.3195ZM121.966 46.5321C122.359 47.2898 122.872 47.8288 123.506 48.1489C124.15 48.4641 124.834 48.6022 125.559 48.5633C126.293 48.5194 126.992 48.3258 127.655 47.9823C128.147 47.7272 128.581 47.4062 128.958 47.0191C129.343 46.6272 129.645 46.1887 129.862 45.7038C130.084 45.2283 130.187 44.7188 130.169 44.1752C130.166 43.6361 130.018 43.0824 129.723 42.5141C129.434 41.9553 129.067 41.5145 128.624 41.1916C128.195 40.8733 127.719 40.6631 127.198 40.5608C126.681 40.468 126.152 40.466 125.609 40.5548C125.076 40.6388 124.563 40.8083 124.071 41.0634C123.408 41.4068 122.847 41.8657 122.387 42.4399C121.937 43.0093 121.655 43.6479 121.542 44.3555C121.437 45.0583 121.579 45.7839 121.966 46.5321ZM123.504 53.3845L134.869 50.0641L136.116 54.3336C136.377 55.2244 136.409 56.0205 136.214 56.722C136.029 57.4206 135.694 58.0021 135.207 58.4665C134.731 58.9279 134.18 59.2499 133.556 59.4324C132.931 59.6148 132.289 59.6414 131.629 59.512C130.968 59.3826 130.367 59.0748 129.825 58.5886C129.293 58.0995 128.897 57.4095 128.637 56.5188L127.915 54.0462L124.029 55.1814L123.504 53.3845ZM134.55 54.7913L133.827 52.3186L129.481 53.5885L130.204 56.0611C130.347 56.5526 130.569 56.9322 130.87 57.2C131.18 57.4648 131.524 57.6313 131.899 57.6994C132.285 57.7645 132.657 57.7447 133.015 57.64C133.384 57.5323 133.708 57.3487 133.988 57.0891C134.278 56.8266 134.477 56.5016 134.586 56.1141C134.706 55.7237 134.693 55.2827 134.55 54.7913ZM124.149 89.0397L135.122 93.4864L133.602 97.238C133.246 98.1179 132.775 98.8249 132.19 99.359C131.615 99.8972 130.978 100.278 130.278 100.5C129.573 100.733 128.851 100.826 128.11 100.779C127.366 100.742 126.652 100.585 125.97 100.309C125.288 100.032 124.667 99.6481 124.107 99.1563C123.542 98.6744 123.088 98.1049 122.745 97.4477C122.397 96.8004 122.199 96.0815 122.151 95.2909C122.113 94.5044 122.272 93.6712 122.629 92.7914L124.149 89.0397ZM132.12 96.551L132.907 94.6084L124.973 91.3936L124.186 93.3362C123.938 93.9491 123.83 94.527 123.863 95.0699C123.907 95.6167 124.056 96.1146 124.311 96.5634C124.577 97.0162 124.912 97.4109 125.316 97.7475C125.727 98.0979 126.179 98.3733 126.673 98.5736C127.168 98.7739 127.684 98.8911 128.223 98.9252C128.757 98.9692 129.272 98.9191 129.768 98.7747C130.264 98.6304 130.718 98.3769 131.13 98.0143C131.541 97.6517 131.871 97.1639 132.12 96.551ZM119.915 98.9156L129.928 105.235L125.803 111.77L124.423 110.899L127.548 105.947L124.693 104.145L121.961 108.475L120.594 107.612L123.327 103.283L120.296 101.37L117.128 106.39L115.748 105.519L119.915 98.9156ZM114.911 106.397L123.488 114.559L121.779 116.355L114.682 114.041L117.312 121.049L115.624 122.823L107.047 114.661L108.315 113.328L114.876 119.571L112.511 113.19L113.713 111.927L120.226 113.994L113.643 107.73L114.911 106.397ZM101.316 118.313C102.108 117.789 102.9 117.469 103.694 117.354C104.493 117.247 105.256 117.298 105.983 117.508C106.716 117.726 107.385 118.07 107.99 118.54C108.594 119.009 109.106 119.56 109.524 120.191C109.942 120.823 110.246 121.504 110.436 122.236C110.631 122.976 110.684 123.722 110.592 124.473C110.501 125.224 110.247 125.942 109.831 126.627C109.42 127.321 108.819 127.93 108.027 128.454C107.227 128.983 106.427 129.302 105.628 129.408C104.834 129.524 104.074 129.477 103.347 129.268C102.62 129.058 101.954 128.719 101.349 128.249C100.75 127.789 100.242 127.243 99.8238 126.611C99.4058 125.979 99.099 125.293 98.9032 124.553C98.7075 123.813 98.6524 123.063 98.7378 122.303C98.8291 121.552 99.08 120.829 99.4906 120.135C99.9071 119.45 100.516 118.843 101.316 118.313ZM102.261 119.741C101.549 120.212 101.068 120.78 100.817 121.444C100.573 122.118 100.508 122.813 100.624 123.53C100.746 124.255 101.013 124.929 101.425 125.551C101.731 126.014 102.097 126.412 102.521 126.744C102.952 127.086 103.42 127.339 103.926 127.503C104.422 127.674 104.94 127.721 105.478 127.646C106.014 127.586 106.549 127.379 107.082 127.026C107.607 126.679 108.006 126.267 108.28 125.792C108.551 125.331 108.709 124.836 108.756 124.307C108.793 123.783 108.738 123.257 108.592 122.727C108.452 122.205 108.229 121.714 107.923 121.251C107.511 120.628 106.995 120.119 106.375 119.724C105.761 119.337 105.096 119.125 104.38 119.087C103.67 119.058 102.964 119.276 102.261 119.741ZM89.2448 124.35C89.9077 124.113 90.5108 123.994 91.054 123.992C91.5871 123.994 92.056 124.07 92.4607 124.22C92.869 124.38 93.2223 124.577 93.5208 124.81C93.8093 125.047 94.0454 125.28 94.2291 125.508C94.4164 125.747 94.5556 125.947 94.6467 126.107C94.7379 126.267 94.7834 126.347 94.7834 126.347L92.9904 126.987C92.9904 126.987 92.9502 126.922 92.8698 126.793C92.7931 126.673 92.6736 126.529 92.5114 126.36C92.3528 126.201 92.1472 126.054 91.8947 125.918C91.6356 125.795 91.3303 125.717 90.9787 125.684C90.6207 125.665 90.2056 125.739 89.7335 125.908C89.0304 126.159 88.5421 126.521 88.2688 126.992C87.9854 127.467 87.9352 127.961 88.1182 128.473C88.2761 128.915 88.5488 129.203 88.9362 129.336C89.3172 129.483 89.8174 129.52 90.4366 129.446L92.037 129.265C92.6325 129.188 93.2076 129.181 93.7623 129.243C94.3104 129.319 94.802 129.506 95.2368 129.804C95.6616 130.105 95.9834 130.562 96.2023 131.175C96.4391 131.838 96.4812 132.463 96.3284 133.05C96.1691 133.65 95.8481 134.178 95.3652 134.634C94.8759 135.103 94.2596 135.471 93.5163 135.736C92.793 135.995 92.1559 136.098 91.6048 136.045C91.0573 136.003 90.5874 135.877 90.1949 135.666C89.8024 135.455 89.4834 135.212 89.238 134.937C88.9861 134.676 88.8006 134.442 88.6815 134.235C88.566 134.039 88.5082 133.94 88.5082 133.94L90.2259 133.327C90.2259 133.327 90.2747 133.4 90.3723 133.546C90.4735 133.703 90.6389 133.865 90.8685 134.032C91.0881 134.203 91.3772 134.314 91.736 134.367C92.0883 134.434 92.5156 134.378 93.0178 134.198C93.7109 133.951 94.1708 133.605 94.3975 133.162C94.6242 132.718 94.6676 132.301 94.5277 131.909C94.3913 131.527 94.1362 131.273 93.7624 131.146C93.3921 131.029 92.9412 131.003 92.4095 131.069L90.6929 131.257C90.0636 131.335 89.4663 131.327 88.9009 131.235C88.3254 131.146 87.8199 130.936 87.3843 130.604C86.9524 130.283 86.6269 129.816 86.4081 129.203C86.1856 128.58 86.1367 127.952 86.2615 127.318C86.3799 126.698 86.6848 126.125 87.1763 125.598C87.6713 125.082 88.3608 124.665 89.2448 124.35ZM84.3575 126.033L86.2661 137.718L84.4185 138.02L83.6138 133.093L78.3871 133.947L79.1918 138.873L77.3443 139.175L75.4357 127.49L77.2832 127.188L78.1189 132.304L83.3456 131.451L82.51 126.335L84.3575 126.033ZM68.6455 127.103C69.5941 127.141 70.4241 127.344 71.1356 127.713C71.8466 128.093 72.436 128.581 72.9038 129.175C73.3711 129.781 73.7132 130.451 73.93 131.185C74.1468 131.919 74.2404 132.665 74.2108 133.422C74.1812 134.179 74.0299 134.909 73.7568 135.614C73.4833 136.329 73.0902 136.965 72.5773 137.521C72.0645 138.077 71.4391 138.512 70.701 138.825C69.9624 139.148 69.1188 139.291 68.1702 139.254C67.211 139.217 66.3758 139.008 65.6648 138.628C64.9534 138.258 64.3638 137.776 63.896 137.181C63.4282 136.587 63.0859 135.922 62.8691 135.188C62.6519 134.464 62.5581 133.724 62.5877 132.967C62.6173 132.21 62.7688 131.474 63.0423 130.759C63.3158 130.044 63.7092 129.403 64.2224 128.836C64.7352 128.279 65.3609 127.84 66.0994 127.516C66.8376 127.203 67.6862 127.066 68.6455 127.103ZM68.5786 128.814C67.7259 128.781 67.0037 128.961 66.4118 129.354C65.8196 129.758 65.3614 130.284 65.0371 130.933C64.7124 131.593 64.5354 132.296 64.5062 133.042C64.4846 133.596 64.549 134.133 64.6995 134.651C64.8496 135.18 65.0817 135.659 65.3959 136.087C65.6994 136.515 66.0917 136.856 66.5728 137.11C67.0429 137.374 67.5976 137.518 68.2372 137.543C68.866 137.568 69.4304 137.467 69.9303 137.241C70.4191 137.026 70.8368 136.716 71.1835 136.314C71.5195 135.91 71.783 135.451 71.9739 134.935C72.1645 134.431 72.2706 133.901 72.2923 133.347C72.3215 132.601 72.2 131.886 71.9278 131.203C71.6552 130.53 71.2395 129.97 70.6806 129.521C70.1213 129.083 69.4206 128.847 68.5786 128.814ZM61.8626 126.749L58.9839 138.233L54.6694 137.152C53.7692 136.926 53.0658 136.552 52.5591 136.029C52.0497 135.517 51.7176 134.933 51.5628 134.278C51.4054 133.634 51.4058 132.996 51.564 132.365C51.7222 131.734 52.024 131.166 52.4692 130.662C52.9145 130.158 53.4839 129.795 54.1774 129.573C54.8682 129.361 55.6637 129.368 56.5639 129.594L59.0626 130.22L60.0468 126.294L61.8626 126.749ZM55.0662 135.569L57.5649 136.195L58.6658 131.803L56.1671 131.177C55.6705 131.052 55.2307 131.052 54.8477 131.176C54.4622 131.31 54.1451 131.522 53.8966 131.812C53.6454 132.112 53.4745 132.443 53.3837 132.805C53.2904 133.177 53.285 133.55 53.3675 133.923C53.4475 134.305 53.6271 134.642 53.9063 134.932C54.1829 135.232 54.5696 135.444 55.0662 135.569Z" fill="white">

<animateTransform
      attributeName="transform"
      attributeType="XML"
      type="rotate"
      from="0 71 71"
      to="360 71 71"
      dur="10s"
      repeatCount="indefinite" />
</path>
<g clip-path="url(#clip0_1324_18743)">
<path d="M71.1602 80.3644V55.5371" stroke="white" stroke-width="2.128" stroke-linecap="round" stroke-linejoin="round"/>
<path d="M80.0338 71.4941L71.1653 80.3628L62.2969 71.4941" stroke="white" stroke-width="2.128" stroke-linecap="round" stroke-linejoin="round"/>
</g>

<g>

</g>
<path d="M38.9824 14.4624C38.7268 13.1746 40.1932 12.2814 41.2138 13.0388L41.3076 13.1158L42.6433 14.2781C42.9496 14.5447 43.3094 14.7426 43.6986 14.8583C44.0878 14.974 44.4973 15.0049 44.8995 14.9489L45.0616 14.9215L46.7981 14.5765C48.0859 14.3209 48.9791 15.7873 48.2222 16.8076L48.1453 16.9014L46.983 18.2371C46.7162 18.5433 46.5182 18.9032 46.4024 19.2925C46.2865 19.6818 46.2556 20.0914 46.3115 20.4936L46.3387 20.6551L46.6839 22.3922C46.9395 23.68 45.4732 24.5732 44.4535 23.816L44.3584 23.7398L43.0234 22.5771C42.7171 22.3103 42.3572 22.1123 41.968 21.9965C41.5787 21.8807 41.1691 21.8497 40.7668 21.9057L40.6053 21.9328L38.8688 22.2777C37.5805 22.5337 36.6873 21.0673 37.4451 20.0473L37.5213 19.9522L38.684 18.6171C38.9506 18.3109 39.1484 17.951 39.2642 17.5618C39.3799 17.1726 39.4108 16.7631 39.3548 16.361L39.3277 16.1995L38.9824 14.4624Z" fill="white">
<animateTransform
      attributeName="transform"
      attributeType="XML"
      type="rotate"
      from="0 71 71"
      to="360 71 71"
      dur="10s"
      repeatCount="indefinite" />
</path>

<path d="M137.302 73.6294C138.495 74.177 138.359 75.8886 137.147 76.2717L137.03 76.3026L135.306 76.7037C134.91 76.7956 134.539 76.9712 134.217 77.2187C133.895 77.4663 133.63 77.78 133.44 78.1386L133.367 78.2861L132.629 79.8953C132.081 81.0885 130.37 80.9528 129.986 79.7416L129.955 79.6243L129.554 77.8997C129.463 77.5041 129.287 77.1327 129.04 76.8107C128.792 76.4887 128.478 76.2236 128.12 76.0332L127.973 75.9605L126.363 75.2222C125.17 74.6746 125.305 72.963 126.516 72.5805L126.634 72.5482L128.358 72.1478C128.754 72.0561 129.125 71.8805 129.447 71.633C129.769 71.3854 130.035 71.0717 130.225 70.713L130.298 70.5662L131.036 68.957C131.584 67.7631 133.295 67.8988 133.678 69.1106L133.71 69.2281L134.11 70.9526C134.202 71.3481 134.378 71.7193 134.625 72.0412C134.873 72.3631 135.187 72.6281 135.545 72.8184L135.692 72.8911L137.302 73.6294Z" fill="white">
<animateTransform
      attributeName="transform"
      attributeType="XML"
      type="rotate"
      from="0 71 71"
      to="360 71 71"
      dur="10s"
      repeatCount="indefinite" /></path>
<path d="M45.253 126.044C46.1166 127.033 45.2909 128.538 44.0285 128.39L43.9089 128.37L42.1715 128.029C41.7731 127.95 41.3625 127.958 40.9674 128.052C40.5724 128.146 40.202 128.323 39.8813 128.572L39.7545 128.677L38.4212 129.842C37.4324 130.705 35.927 129.88 36.0743 128.618L36.0942 128.498L36.4358 126.761C36.5143 126.362 36.5065 125.952 36.4128 125.557C36.3191 125.161 36.1417 124.791 35.8926 124.47L35.7886 124.344L34.6231 123.01C33.7595 122.021 34.5852 120.516 35.8466 120.664L35.967 120.682L37.704 121.025C38.1025 121.103 38.5132 121.095 38.9084 121.002C39.3035 120.908 39.674 120.731 39.9948 120.481L40.1213 120.377L41.4545 119.213C42.4437 118.348 43.9491 119.174 43.8008 120.436L43.7822 120.556L43.44 122.293C43.3616 122.692 43.3695 123.102 43.4633 123.498C43.557 123.893 43.7344 124.263 43.9835 124.584L44.0875 124.71L45.253 126.044Z" fill="white">
<animateTransform
      attributeName="transform"
      attributeType="XML"
      type="rotate"
      from="0 71 71"
      to="360 71 71"
      dur="10s"
      repeatCount="indefinite" /></path>
<defs>
<clipPath id="clip0_1324_18743">
<rect width="42.56" height="42.561" fill="white" transform="translate(49.8848 46.6699)"/>
</clipPath>
</defs>
</svg>
