<svg width="19" height="49" viewBox="0 0 19 49" fill="none" xmlns="http://www.w3.org/2000/svg">
<g opacity="0.5">
<path d="M4.64762 9.23777C7.72654 9.20909 10.8066 9.1694 13.884 9.24461C15.7494 9.29037 17.088 10.3204 17.9533 11.9555C18.3735 12.7494 18.5285 13.6111 18.5285 14.5034C18.5285 18.6763 18.5293 22.85 18.5285 27.0229C18.5283 27.7919 18.0698 28.3597 17.3117 28.5434C16.6597 28.7015 15.9641 28.3845 15.6672 27.7573C15.568 27.5472 15.5195 27.2933 15.5187 27.06C15.5102 23.1781 15.515 19.2955 15.508 15.4136C15.508 15.1972 15.4691 14.9669 15.3908 14.7661C15.2488 14.4021 14.8895 14.2227 14.5246 14.2846C14.1796 14.3428 13.8917 14.6602 13.8908 15.0493C13.8892 16.676 13.8867 18.3033 13.9162 19.9292C13.9356 20.9834 14.0006 22.0369 14.0588 23.0903C14.1619 24.9356 14.3015 26.7794 14.3791 28.6255C14.4581 30.5017 14.488 32.3795 14.5275 34.2573C14.6136 38.3124 14.6764 42.3682 14.7834 46.4233C14.8144 47.6072 14.0205 48.4172 13.1623 48.5893C12.1296 48.7963 11.0469 48.0439 10.9816 46.9927C10.901 45.6893 10.8628 44.3825 10.8039 43.0776C10.7356 41.589 10.6645 40.1007 10.5939 38.6128C10.549 37.6561 10.502 36.6993 10.4562 35.7427C10.3833 34.2162 10.3098 32.6898 10.2384 31.1626C10.2098 30.5539 10.1921 29.9439 10.1603 29.3345C10.1425 28.9825 10.0996 28.6294 9.77555 28.4077C9.48413 28.2077 9.16674 28.162 8.84587 28.3393C8.54282 28.5075 8.38512 28.7753 8.37028 29.1186C8.33152 30.0079 8.30492 30.8983 8.26384 31.7876C8.16537 33.9431 8.05994 36.0999 7.95915 38.2554C7.84673 40.6627 7.73583 43.0705 7.62419 45.477C7.60248 45.9506 7.58066 46.4243 7.55973 46.8979C7.52868 47.591 7.18125 48.0923 6.58122 48.4009C5.91674 48.7428 5.24702 48.6883 4.62907 48.272C4.05149 47.8827 3.76255 47.3209 3.77263 46.6216C3.81372 43.611 3.86124 40.6001 3.90544 37.5903H3.91716L3.91911 37.5913C3.96796 35.3653 4.00322 33.1388 4.07145 30.9136C4.12263 29.2507 4.21153 27.5886 4.29216 25.9272C4.34721 24.7975 4.4387 23.668 4.47282 22.5376C4.54492 20.1488 4.59157 17.7593 4.64274 15.3706C4.64662 15.1993 4.62148 15.0218 4.57731 14.8559C4.48427 14.5039 4.20247 14.2877 3.86442 14.2807C3.51491 14.2732 3.18114 14.4821 3.09587 14.8247C3.02532 15.1115 2.99684 15.4162 2.99528 15.7124C2.98133 19.5271 2.97512 23.342 2.96891 27.1567C2.96812 27.6614 2.76878 28.0603 2.34391 28.3286C1.8346 28.6495 1.29454 28.6617 0.773602 28.3764C0.232552 28.0803 0.00301436 27.5818 0.00211739 26.978C0.000566687 24.4318 0.00251981 21.8846 0.00407051 19.3384C0.00484317 17.6831 -0.00999639 16.0268 0.0148127 14.3716C0.0482462 12.1379 1.03748 10.4817 3.10368 9.56297C3.57571 9.35297 4.12988 9.24247 4.64762 9.23777ZM8.65251 0.00144591C10.5945 -0.0704651 12.2875 1.46776 12.2912 3.39793L12.298 3.57078C12.3186 5.34746 10.8345 6.91176 8.94841 6.99559C6.87816 7.08796 5.52598 5.51308 5.32927 3.94481C5.03751 1.61043 6.88688 0.0668516 8.65251 0.00144591Z" fill="#1B1D21"/>
</g>
</svg>
