<svg width="499" height="1500" viewBox="0 0 499 1500" fill="none" xmlns="http://www.w3.org/2000/svg">
<mask id="path-1-inside-1_1503_32826" fill="white">
<path d="M248.378 0C318.708 0 332.403 66.2095 318.709 122.585C312.523 148.049 307.058 169.932 297.037 185.427C296.085 193.452 297.089 205.784 306.547 220.439C314.278 232.419 326.123 234.059 341.439 236.179C359.63 238.697 382.716 241.893 409.619 263.893C447.716 295.047 455.39 360.745 461.331 411.605C463.118 426.902 464.747 440.856 467.001 452.125C474.067 487.454 476.342 519.626 478.818 554.65C479.758 567.942 480.727 581.644 481.998 596.085C486.618 648.582 490.367 698.08 490.366 722.062C490.366 730.299 492.155 739.665 494.054 749.605C497.682 768.604 501.712 789.7 494.417 809.026C478.569 851.015 437.194 888.504 422.6 873.508C414.772 865.464 425.534 848.272 435.922 831.677C444.9 817.334 453.599 803.437 449.775 796.279C445.442 788.167 439.452 795.203 432.952 802.839C427.081 809.736 420.794 817.121 414.936 814.274C408.677 811.232 412.277 792.406 416.566 769.98C420.736 748.176 425.557 722.968 422.6 705.555C421.536 699.289 420.316 687.64 418.747 672.66C416.558 651.761 413.69 624.378 409.619 596.085C407.823 583.6 405.906 569.695 403.93 555.358C395.495 494.177 385.978 425.145 380.146 425.145C372.948 425.148 363.652 518.119 365.453 550.969C366.078 562.36 369.648 580.678 374.047 603.241C382.332 645.744 393.555 703.314 393.555 758.04C393.555 819.011 396.744 874.537 399.254 918.238C400.193 934.586 401.037 949.279 401.583 961.983C402.688 987.676 404.079 1003.17 405.442 1018.33C406.555 1030.71 407.649 1042.88 408.551 1060.21C409.826 1084.69 407.653 1162.87 405.897 1226.01C404.89 1262.27 404.019 1293.56 404.019 1306.89L408.551 1395.36C412.081 1402.36 417.747 1410.61 423.621 1419.16C435.16 1435.96 447.498 1453.92 446.008 1465.84C443.758 1483.84 416.67 1495.53 398.606 1499.58C380.543 1503.64 351.533 1477.09 341.786 1458.35C339.211 1453.39 336.74 1448.02 334.236 1442.58C327.262 1427.42 320.027 1411.69 309.545 1402.86C303.922 1390.74 303.848 1355.69 303.798 1332.15C303.781 1324.25 303.767 1317.64 303.547 1313.64C302.792 1299.89 302.014 1273.25 301.121 1242.64C299.64 1191.89 297.841 1130.25 295.299 1098.45C291.968 1056.77 284.184 1015.21 280.356 994.776C279.501 990.212 278.844 986.7 278.478 984.478C276.47 972.303 253.311 835.269 253.311 835.269L248.109 814.646L242.908 835.269C242.908 835.269 219.748 972.303 217.741 984.478C217.375 986.7 216.717 990.211 215.862 994.775C212.035 1015.21 204.251 1056.77 200.92 1098.45C198.378 1130.25 196.579 1191.89 195.098 1242.64C194.204 1273.25 193.427 1299.89 192.672 1313.64C192.452 1317.64 192.438 1324.25 192.421 1332.15C192.371 1355.69 192.297 1390.74 186.674 1402.86C176.191 1411.69 168.956 1427.42 161.981 1442.58C159.477 1448.02 157.008 1453.39 154.433 1458.35C144.685 1477.09 115.676 1503.64 97.6123 1499.58C79.5489 1495.53 52.4603 1483.84 50.2109 1465.84C48.7204 1453.92 61.059 1435.96 72.5977 1419.16C78.4715 1410.61 84.138 1402.36 87.668 1395.36L92.1992 1306.89C92.1992 1293.56 91.3292 1262.27 90.3213 1226.01C88.5661 1162.87 86.3931 1084.69 87.668 1060.21C88.57 1042.88 89.6638 1030.71 90.7764 1018.33C92.1393 1003.17 93.5308 987.676 94.6357 961.983C95.1821 949.279 96.0259 934.586 96.9648 918.238C99.4748 874.537 102.664 819.01 102.664 758.04C102.664 703.314 113.886 645.744 122.172 603.241C126.57 580.678 130.141 562.36 130.766 550.969C132.567 518.119 123.271 425.148 116.072 425.145C110.24 425.145 100.723 494.177 92.2891 555.358C90.3127 569.695 88.3958 583.6 86.5996 596.085C82.5714 624.084 79.7203 650.195 77.54 670.166C75.938 684.84 74.6985 696.199 73.6191 702.556C70.9185 718.46 75.7946 739.796 80.3555 759.752C85.9244 784.118 91.0224 806.427 81.2822 814.274C71.7812 821.929 66.5323 810.593 61.9727 800.745C58.0298 792.229 54.6018 784.827 49.3867 791.781C43.8172 799.209 51.5893 813.257 59.3955 827.368C67.3504 841.748 75.3402 856.192 69.2852 863.761C57.2879 878.756 17.5238 841.448 5.85254 810.525C-1.80156 790.246 1.08978 767.307 3.62988 747.156C4.7771 738.055 5.85266 729.523 5.85254 722.062C5.8522 698.08 9.60122 648.582 14.2207 596.085C15.4915 581.643 16.4605 567.941 17.4004 554.649C19.877 519.625 22.1522 487.454 29.2178 452.125C31.4714 440.856 33.101 426.902 34.8877 411.605C40.8284 360.745 48.5025 295.047 86.5996 263.893C113.503 241.893 136.589 238.697 154.779 236.179C170.095 234.059 181.941 232.419 189.672 220.439C198.772 206.338 200.045 194.388 199.279 186.355C189.839 171.588 184.487 150.114 178.048 122.585C164.862 66.2096 178.048 0.000753285 248.378 0Z"/>
</mask>
<path d="M248.378 0C318.708 0 332.403 66.2095 318.709 122.585C312.523 148.049 307.058 169.932 297.037 185.427C296.085 193.452 297.089 205.784 306.547 220.439C314.278 232.419 326.123 234.059 341.439 236.179C359.63 238.697 382.716 241.893 409.619 263.893C447.716 295.047 455.39 360.745 461.331 411.605C463.118 426.902 464.747 440.856 467.001 452.125C474.067 487.454 476.342 519.626 478.818 554.65C479.758 567.942 480.727 581.644 481.998 596.085C486.618 648.582 490.367 698.08 490.366 722.062C490.366 730.299 492.155 739.665 494.054 749.605C497.682 768.604 501.712 789.7 494.417 809.026C478.569 851.015 437.194 888.504 422.6 873.508C414.772 865.464 425.534 848.272 435.922 831.677C444.9 817.334 453.599 803.437 449.775 796.279C445.442 788.167 439.452 795.203 432.952 802.839C427.081 809.736 420.794 817.121 414.936 814.274C408.677 811.232 412.277 792.406 416.566 769.98C420.736 748.176 425.557 722.968 422.6 705.555C421.536 699.289 420.316 687.64 418.747 672.66C416.558 651.761 413.69 624.378 409.619 596.085C407.823 583.6 405.906 569.695 403.93 555.358C395.495 494.177 385.978 425.145 380.146 425.145C372.948 425.148 363.652 518.119 365.453 550.969C366.078 562.36 369.648 580.678 374.047 603.241C382.332 645.744 393.555 703.314 393.555 758.04C393.555 819.011 396.744 874.537 399.254 918.238C400.193 934.586 401.037 949.279 401.583 961.983C402.688 987.676 404.079 1003.17 405.442 1018.33C406.555 1030.71 407.649 1042.88 408.551 1060.21C409.826 1084.69 407.653 1162.87 405.897 1226.01C404.89 1262.27 404.019 1293.56 404.019 1306.89L408.551 1395.36C412.081 1402.36 417.747 1410.61 423.621 1419.16C435.16 1435.96 447.498 1453.92 446.008 1465.84C443.758 1483.84 416.67 1495.53 398.606 1499.58C380.543 1503.64 351.533 1477.09 341.786 1458.35C339.211 1453.39 336.74 1448.02 334.236 1442.58C327.262 1427.42 320.027 1411.69 309.545 1402.86C303.922 1390.74 303.848 1355.69 303.798 1332.15C303.781 1324.25 303.767 1317.64 303.547 1313.64C302.792 1299.89 302.014 1273.25 301.121 1242.64C299.64 1191.89 297.841 1130.25 295.299 1098.45C291.968 1056.77 284.184 1015.21 280.356 994.776C279.501 990.212 278.844 986.7 278.478 984.478C276.47 972.303 253.311 835.269 253.311 835.269L248.109 814.646L242.908 835.269C242.908 835.269 219.748 972.303 217.741 984.478C217.375 986.7 216.717 990.211 215.862 994.775C212.035 1015.21 204.251 1056.77 200.92 1098.45C198.378 1130.25 196.579 1191.89 195.098 1242.64C194.204 1273.25 193.427 1299.89 192.672 1313.64C192.452 1317.64 192.438 1324.25 192.421 1332.15C192.371 1355.69 192.297 1390.74 186.674 1402.86C176.191 1411.69 168.956 1427.42 161.981 1442.58C159.477 1448.02 157.008 1453.39 154.433 1458.35C144.685 1477.09 115.676 1503.64 97.6123 1499.58C79.5489 1495.53 52.4603 1483.84 50.2109 1465.84C48.7204 1453.92 61.059 1435.96 72.5977 1419.16C78.4715 1410.61 84.138 1402.36 87.668 1395.36L92.1992 1306.89C92.1992 1293.56 91.3292 1262.27 90.3213 1226.01C88.5661 1162.87 86.3931 1084.69 87.668 1060.21C88.57 1042.88 89.6638 1030.71 90.7764 1018.33C92.1393 1003.17 93.5308 987.676 94.6357 961.983C95.1821 949.279 96.0259 934.586 96.9648 918.238C99.4748 874.537 102.664 819.01 102.664 758.04C102.664 703.314 113.886 645.744 122.172 603.241C126.57 580.678 130.141 562.36 130.766 550.969C132.567 518.119 123.271 425.148 116.072 425.145C110.24 425.145 100.723 494.177 92.2891 555.358C90.3127 569.695 88.3958 583.6 86.5996 596.085C82.5714 624.084 79.7203 650.195 77.54 670.166C75.938 684.84 74.6985 696.199 73.6191 702.556C70.9185 718.46 75.7946 739.796 80.3555 759.752C85.9244 784.118 91.0224 806.427 81.2822 814.274C71.7812 821.929 66.5323 810.593 61.9727 800.745C58.0298 792.229 54.6018 784.827 49.3867 791.781C43.8172 799.209 51.5893 813.257 59.3955 827.368C67.3504 841.748 75.3402 856.192 69.2852 863.761C57.2879 878.756 17.5238 841.448 5.85254 810.525C-1.80156 790.246 1.08978 767.307 3.62988 747.156C4.7771 738.055 5.85266 729.523 5.85254 722.062C5.8522 698.08 9.60122 648.582 14.2207 596.085C15.4915 581.643 16.4605 567.941 17.4004 554.649C19.877 519.625 22.1522 487.454 29.2178 452.125C31.4714 440.856 33.101 426.902 34.8877 411.605C40.8284 360.745 48.5025 295.047 86.5996 263.893C113.503 241.893 136.589 238.697 154.779 236.179C170.095 234.059 181.941 232.419 189.672 220.439C198.772 206.338 200.045 194.388 199.279 186.355C189.839 171.588 184.487 150.114 178.048 122.585C164.862 66.2096 178.048 0.000753285 248.378 0Z" fill="url(#paint0_linear_1503_32826)" fill-opacity="0.6"/>
<path d="M248.378 0V-6H248.378L248.378 0ZM318.709 122.585L324.539 124.001V124.001L318.709 122.585ZM297.037 185.427L291.999 182.168L291.243 183.337L291.079 184.72L297.037 185.427ZM306.547 220.439L301.506 223.693V223.693L306.547 220.439ZM341.439 236.179L340.617 242.122L341.439 236.179ZM409.619 263.893L413.417 259.248L409.619 263.893ZM461.331 411.605L467.291 410.909L461.331 411.605ZM467.001 452.125L461.117 453.302L467.001 452.125ZM478.818 554.65L472.833 555.074L478.818 554.65ZM481.998 596.085L487.975 595.559L481.998 596.085ZM490.366 722.062L496.366 722.062L490.366 722.062ZM494.054 749.605L499.947 748.48L494.054 749.605ZM494.417 809.026L500.03 811.145V811.145L494.417 809.026ZM422.6 873.508L418.3 877.692L418.3 877.693L422.6 873.508ZM435.922 831.677L430.836 828.493L435.922 831.677ZM449.775 796.279L455.068 793.452L449.775 796.279ZM432.952 802.839L437.521 806.728L432.952 802.839ZM414.936 814.274L412.313 819.671L412.313 819.671L414.936 814.274ZM416.566 769.98L422.46 771.108L416.566 769.98ZM422.6 705.555L416.684 706.559L422.6 705.555ZM418.747 672.66L412.78 673.285V673.285L418.747 672.66ZM409.619 596.085L403.68 596.939L409.619 596.085ZM403.93 555.358L397.986 556.178L403.93 555.358ZM380.146 425.145V419.145H380.144L380.146 425.145ZM365.453 550.969L359.462 551.297L365.453 550.969ZM374.047 603.241L368.158 604.389L374.047 603.241ZM393.555 758.04H399.555H393.555ZM399.254 918.238L405.244 917.894L399.254 918.238ZM401.583 961.983L407.577 961.726L401.583 961.983ZM405.442 1018.33L411.418 1017.8L405.442 1018.33ZM408.551 1060.21L414.543 1059.89L408.551 1060.21ZM405.897 1226.01L399.9 1225.84L405.897 1226.01ZM404.019 1306.89H398.019V1307.04L398.026 1307.19L404.019 1306.89ZM408.551 1395.36L402.559 1395.67L402.623 1396.93L403.194 1398.07L408.551 1395.36ZM423.621 1419.16L418.676 1422.56L423.621 1419.16ZM446.008 1465.84L451.961 1466.59V1466.59L446.008 1465.84ZM398.606 1499.58L399.922 1505.44H399.922L398.606 1499.58ZM341.786 1458.35L336.463 1461.11L341.786 1458.35ZM334.236 1442.58L339.687 1440.07L334.236 1442.58ZM309.545 1402.86L304.102 1405.39L304.662 1406.59L305.68 1407.45L309.545 1402.86ZM303.798 1332.15L297.798 1332.16L303.798 1332.15ZM303.547 1313.64L309.538 1313.31L303.547 1313.64ZM301.121 1242.64L307.119 1242.47L301.121 1242.64ZM295.299 1098.45L301.28 1097.97L295.299 1098.45ZM280.356 994.776L286.254 993.672L280.356 994.776ZM278.478 984.478L272.557 985.454L278.478 984.478ZM253.311 835.269L259.227 834.269L259.187 834.033L259.128 833.801L253.311 835.269ZM248.109 814.646L253.927 813.179H242.292L248.109 814.646ZM242.908 835.269L237.09 833.801L237.032 834.033L236.992 834.269L242.908 835.269ZM217.741 984.478L223.661 985.454H223.661L217.741 984.478ZM215.862 994.775L221.76 995.88L215.862 994.775ZM200.92 1098.45L194.939 1097.97L200.92 1098.45ZM195.098 1242.64L189.1 1242.47L195.098 1242.64ZM192.672 1313.64L186.681 1313.31L192.672 1313.64ZM192.421 1332.15L186.421 1332.14L192.421 1332.15ZM186.674 1402.86L190.539 1407.45L191.557 1406.59L192.117 1405.39L186.674 1402.86ZM161.981 1442.58L167.432 1445.09H167.432L161.981 1442.58ZM154.433 1458.35L149.109 1455.58L154.433 1458.35ZM97.6123 1499.58L96.2971 1505.44H96.2972L97.6123 1499.58ZM50.2109 1465.84L44.2573 1466.59L44.2573 1466.59L50.2109 1465.84ZM72.5977 1419.16L67.6521 1415.76L72.5977 1419.16ZM87.668 1395.36L93.025 1398.07L93.5953 1396.93L93.6601 1395.67L87.668 1395.36ZM92.1992 1306.89L98.1914 1307.19L98.1992 1307.04V1306.89H92.1992ZM90.3213 1226.01L96.319 1225.84L90.3213 1226.01ZM87.668 1060.21L93.6599 1060.52L87.668 1060.21ZM90.7764 1018.33L96.7523 1018.87L90.7764 1018.33ZM94.6357 961.983L88.6413 961.726L94.6357 961.983ZM96.9648 918.238L90.9747 917.894L96.9648 918.238ZM102.664 758.04H96.6641H102.664ZM122.172 603.241L128.061 604.389L122.172 603.241ZM130.766 550.969L136.757 551.297L130.766 550.969ZM116.072 425.145L116.075 419.145H116.072V425.145ZM92.2891 555.358L98.2328 556.178L92.2891 555.358ZM86.5996 596.085L80.6608 595.231L86.5996 596.085ZM77.54 670.166L71.5755 669.515L77.54 670.166ZM73.6191 702.556L79.5345 703.56L73.6191 702.556ZM80.3555 759.752L74.5063 761.089L80.3555 759.752ZM81.2822 814.274L85.0466 818.947L85.0466 818.947L81.2822 814.274ZM61.9727 800.745L67.4174 798.224L61.9727 800.745ZM49.3867 791.781L44.5866 788.181L44.5864 788.182L49.3867 791.781ZM59.3955 827.368L64.6457 824.464L59.3955 827.368ZM69.2852 863.761L73.9702 867.509L73.9703 867.509L69.2852 863.761ZM5.85254 810.525L0.239077 812.644H0.239079L5.85254 810.525ZM3.62988 747.156L9.58277 747.907L3.62988 747.156ZM5.85254 722.062L-0.147461 722.062V722.062L5.85254 722.062ZM14.2207 596.085L20.1976 596.611L14.2207 596.085ZM17.4004 554.649L23.3854 555.073L17.4004 554.649ZM29.2178 452.125L35.1013 453.302H35.1013L29.2178 452.125ZM34.8877 411.605L28.9282 410.909L34.8877 411.605ZM86.5996 263.893L82.8014 259.248H82.8014L86.5996 263.893ZM154.779 236.179L153.957 230.235L154.779 236.179ZM189.672 220.439L194.713 223.693L194.713 223.693L189.672 220.439ZM199.279 186.355L205.252 185.786L205.115 184.344L204.335 183.124L199.279 186.355ZM178.048 122.585L172.206 123.951V123.951L178.048 122.585ZM248.378 0V6C264.996 6 277.865 9.90042 287.705 16.2643C297.548 22.6297 304.72 31.6921 309.571 42.5914C319.353 64.5703 319.538 93.7539 312.879 121.169L318.709 122.585L324.539 124.001C331.574 95.0406 331.759 62.9316 320.534 37.712C314.882 25.0119 306.299 13.9985 294.222 6.18787C282.142 -1.62424 266.925 -6 248.378 -6V0ZM318.709 122.585L312.879 121.169C306.616 146.951 301.351 167.707 291.999 182.168L297.037 185.427L302.075 188.685C312.765 172.156 318.431 149.147 324.539 124.001L318.709 122.585ZM297.037 185.427L291.079 184.72C289.971 194.055 291.25 207.801 301.506 223.693L306.547 220.439L311.588 217.186C302.928 203.767 302.198 192.849 302.995 186.134L297.037 185.427ZM306.547 220.439L301.506 223.693C310.955 238.334 325.825 240.075 340.617 242.122L341.439 236.179L342.262 230.235C326.422 228.043 317.602 226.504 311.588 217.186L306.547 220.439ZM341.439 236.179L340.617 242.122C358.519 244.6 380.235 247.614 405.821 268.537L409.619 263.893L413.417 259.248C385.197 236.171 360.741 232.793 342.262 230.235L341.439 236.179ZM409.619 263.893L405.821 268.537C423.458 282.96 434.46 305.757 441.753 331.968C449.03 358.118 452.391 386.788 455.372 412.302L461.331 411.605L467.291 410.909C464.33 385.563 460.884 355.953 453.314 328.751C445.761 301.609 433.877 275.979 413.417 259.248L409.619 263.893ZM461.331 411.605L455.372 412.302C457.149 427.516 458.806 441.743 461.117 453.302L467.001 452.125L472.884 450.948C470.689 439.97 469.087 426.287 467.291 410.909L461.331 411.605ZM467.001 452.125L461.117 453.302C468.098 488.203 470.354 520.009 472.833 555.074L478.818 554.65L484.803 554.227C482.33 519.243 480.036 486.705 472.884 450.948L467.001 452.125ZM478.818 554.65L472.833 555.074C473.773 568.359 474.745 582.11 476.021 596.611L481.998 596.085L487.975 595.559C486.709 581.177 485.744 567.524 484.803 554.227L478.818 554.65ZM481.998 596.085L476.021 596.611C480.648 649.19 484.367 698.399 484.366 722.061L490.366 722.062L496.366 722.062C496.367 697.761 492.587 647.974 487.975 595.559L481.998 596.085ZM490.366 722.062L484.366 722.061C484.366 730.983 486.293 740.955 488.16 750.731L494.054 749.605L499.947 748.48C498.017 738.376 496.366 729.615 496.366 722.062L490.366 722.062ZM494.054 749.605L488.16 750.731C491.854 770.073 495.399 789.434 488.804 806.908L494.417 809.026L500.03 811.145C508.024 789.966 503.51 767.135 499.947 748.48L494.054 749.605ZM494.417 809.026L488.804 806.908C481.231 826.97 467.488 846.047 454.022 858.178C447.258 864.272 440.935 868.275 435.85 869.972C430.776 871.665 428.277 870.739 426.899 869.323L422.6 873.508L418.3 877.693C424.219 883.775 432.365 883.785 439.649 881.355C446.922 878.928 454.669 873.747 462.054 867.094C476.886 853.732 491.755 833.071 500.03 811.145L494.417 809.026ZM422.6 873.508L426.9 869.323C426.324 868.732 425.874 867.855 425.916 866.053C425.962 864.095 426.604 861.45 427.985 858.066C430.758 851.269 435.723 843.302 441.008 834.86L435.922 831.677L430.836 828.493C425.732 836.647 420.122 845.573 416.874 853.532C415.245 857.526 414.015 861.724 413.92 865.771C413.821 869.973 414.961 874.261 418.3 877.692L422.6 873.508ZM435.922 831.677L441.008 834.86C445.43 827.796 450.089 820.373 453.105 813.78C454.62 810.47 455.866 807.067 456.406 803.79C456.945 800.525 456.872 796.83 455.068 793.452L449.775 796.279L444.483 799.106C444.591 799.307 444.864 800.034 444.566 801.836C444.271 803.626 443.498 805.936 442.193 808.788C439.572 814.518 435.392 821.215 430.836 828.493L435.922 831.677ZM449.775 796.279L455.068 793.452C453.613 790.729 451.369 788.031 447.874 787.037C444.348 786.034 441.22 787.238 439.104 788.499C436.979 789.766 435.041 791.573 433.386 793.295C431.694 795.057 429.98 797.074 428.383 798.95L432.952 802.839L437.521 806.728C439.174 804.786 440.646 803.06 442.041 801.608C443.472 800.118 444.522 799.24 445.248 798.808C445.984 798.369 445.572 798.858 444.591 798.579C443.641 798.309 443.771 797.773 444.483 799.106L449.775 796.279ZM432.952 802.839L428.383 798.95C425.323 802.544 422.709 805.574 420.266 807.467C419.083 808.383 418.291 808.744 417.856 808.86C417.574 808.935 417.58 808.888 417.558 808.878L414.936 814.274L412.313 819.671C418.447 822.651 424.077 819.693 427.613 816.954C431.246 814.141 434.71 810.03 437.521 806.728L432.952 802.839ZM414.936 814.274L417.558 808.878C418.594 809.381 418.205 810.047 417.845 808.121C417.517 806.371 417.462 803.666 417.775 799.892C418.397 792.393 420.292 782.443 422.46 771.108L416.566 769.98L410.673 768.853C408.552 779.944 406.502 790.62 405.816 798.901C405.475 803.017 405.425 806.99 406.049 810.327C406.64 813.487 408.148 817.647 412.313 819.671L414.936 814.274ZM416.566 769.98L422.46 771.108C424.537 760.244 426.826 748.286 428.212 736.842C429.59 725.465 430.14 714.122 428.515 704.55L422.6 705.555L416.684 706.559C418.016 714.401 417.635 724.369 416.299 735.4C414.971 746.364 412.766 757.913 410.673 768.853L416.566 769.98ZM422.6 705.555L428.515 704.55C427.492 698.527 426.296 687.136 424.714 672.035L418.747 672.66L412.78 673.285C414.336 688.144 415.579 700.052 416.684 706.559L422.6 705.555ZM418.747 672.66L424.714 672.035C422.526 651.145 419.647 623.653 415.558 595.231L409.619 596.085L403.68 596.939C407.732 625.103 410.59 652.377 412.78 673.285L418.747 672.66ZM409.619 596.085L415.558 595.231C413.765 582.767 411.85 568.88 409.873 554.539L403.93 555.358L397.986 556.178C399.962 570.51 401.881 584.434 403.68 596.939L409.619 596.085ZM403.93 555.358L409.873 554.539C405.66 523.977 401.16 491.328 396.98 466.319C394.894 453.837 392.863 443.106 390.96 435.441C390.018 431.648 389.049 428.36 388.037 425.926C387.545 424.743 386.912 423.436 386.074 422.325C385.46 421.509 383.518 419.145 380.146 419.145V425.145V431.145C378.784 431.145 377.791 430.629 377.264 430.26C376.765 429.911 376.522 429.588 376.49 429.545C376.436 429.474 376.614 429.71 376.957 430.535C377.614 432.115 378.411 434.698 379.314 438.333C381.099 445.523 383.068 455.874 385.144 468.297C389.29 493.1 393.765 525.558 397.986 556.178L403.93 555.358ZM380.146 425.145L380.144 419.145C376.415 419.146 374.387 421.97 373.795 422.851C372.927 424.144 372.262 425.696 371.73 427.17C370.639 430.198 369.623 434.302 368.678 439.004C366.772 448.486 364.968 461.334 363.461 475.085C360.454 502.505 358.533 534.361 359.462 551.297L365.453 550.969L371.444 550.64C370.572 534.727 372.398 503.673 375.389 476.393C376.88 462.795 378.638 450.347 380.443 441.369C381.353 436.841 382.231 433.425 383.019 431.239C383.209 430.711 383.378 430.303 383.519 429.999C383.588 429.849 383.646 429.737 383.69 429.657C383.734 429.576 383.757 429.541 383.756 429.544C383.755 429.544 383.715 429.605 383.629 429.703C383.545 429.798 383.385 429.967 383.139 430.157C382.652 430.534 381.622 431.144 380.149 431.145L380.146 425.145ZM365.453 550.969L359.462 551.297C360.115 563.212 363.803 582.051 368.158 604.389L374.047 603.241L379.936 602.093C375.494 579.305 372.04 561.509 371.444 550.64L365.453 550.969ZM374.047 603.241L368.158 604.389C376.46 646.98 387.555 703.987 387.555 758.04H393.555H399.555C399.555 702.641 388.204 644.508 379.936 602.093L374.047 603.241ZM393.555 758.04H387.555C387.555 819.203 390.754 874.888 393.264 918.582L399.254 918.238L405.244 917.894C402.734 874.186 399.555 818.818 399.555 758.04H393.555ZM399.254 918.238L393.264 918.582C394.203 934.943 395.044 949.589 395.589 962.241L401.583 961.983L407.577 961.726C407.029 948.969 406.182 934.229 405.244 917.894L399.254 918.238ZM401.583 961.983L395.589 962.241C396.699 988.073 398.101 1003.67 399.466 1018.87L405.442 1018.33L411.418 1017.8C410.058 1002.66 408.676 987.28 407.577 961.726L401.583 961.983ZM405.442 1018.33L399.466 1018.87C400.578 1031.24 401.663 1043.31 402.559 1060.52L408.551 1060.21L414.543 1059.89C413.634 1042.45 412.532 1030.19 411.418 1017.8L405.442 1018.33ZM408.551 1060.21L402.559 1060.52C403.817 1084.69 401.66 1162.51 399.9 1225.84L405.897 1226.01L411.895 1226.18C413.645 1163.24 415.834 1084.7 414.543 1059.89L408.551 1060.21ZM405.897 1226.01L399.9 1225.84C398.894 1262.04 398.019 1293.46 398.019 1306.89H404.019H410.019C410.019 1293.67 410.885 1262.49 411.895 1226.18L405.897 1226.01ZM404.019 1306.89L398.026 1307.19L402.559 1395.67L408.551 1395.36L414.543 1395.06L410.011 1306.58L404.019 1306.89ZM408.551 1395.36L403.194 1398.07C406.946 1405.5 412.883 1414.13 418.676 1422.56L423.621 1419.16L428.567 1415.76C422.612 1407.1 417.215 1399.22 413.908 1392.66L408.551 1395.36ZM423.621 1419.16L418.676 1422.56C424.494 1431.03 430.259 1439.43 434.415 1447.17C438.718 1455.18 440.546 1461.17 440.054 1465.1L446.008 1465.84L451.961 1466.59C452.961 1458.59 449.365 1449.64 444.986 1441.49C440.46 1433.06 434.287 1424.09 428.567 1415.76L423.621 1419.16ZM446.008 1465.84L440.054 1465.1C439.281 1471.29 433.989 1477.41 425.113 1482.82C416.494 1488.07 405.856 1491.81 397.291 1493.73L398.606 1499.58L399.922 1505.44C409.42 1503.31 421.358 1499.16 431.361 1493.06C441.108 1487.12 450.486 1478.39 451.961 1466.59L446.008 1465.84ZM398.606 1499.58L397.291 1493.73C394.435 1494.37 390.56 1493.9 385.748 1491.93C381.005 1490 375.867 1486.81 370.797 1482.81C360.588 1474.74 351.514 1464.05 347.109 1455.58L341.786 1458.35L336.463 1461.11C341.805 1471.39 352.109 1483.34 363.359 1492.22C369.017 1496.69 375.127 1500.56 381.209 1503.04C387.221 1505.5 393.746 1506.83 399.922 1505.44L398.606 1499.58ZM341.786 1458.35L347.109 1455.58C344.613 1450.78 342.204 1445.54 339.687 1440.07L334.236 1442.58L328.785 1445.09C331.277 1450.5 333.809 1456.01 336.463 1461.11L341.786 1458.35ZM334.236 1442.58L339.687 1440.07C336.224 1432.54 332.558 1424.56 328.406 1417.35C324.263 1410.16 319.42 1403.33 313.41 1398.27L309.545 1402.86L305.68 1407.45C310.152 1411.22 314.168 1416.67 318.007 1423.34C321.836 1429.99 325.274 1437.45 328.785 1445.09L334.236 1442.58ZM309.545 1402.86L314.988 1400.34C313.956 1398.11 312.994 1394.35 312.216 1389.13C311.456 1384.02 310.931 1377.97 310.572 1371.46C309.855 1358.42 309.823 1343.94 309.798 1332.14L303.798 1332.15L297.798 1332.16C297.823 1343.9 297.853 1358.71 298.59 1372.12C298.959 1378.82 299.51 1385.28 300.347 1390.89C301.166 1396.39 302.322 1401.55 304.102 1405.39L309.545 1402.86ZM303.798 1332.15L309.798 1332.14C309.781 1324.32 309.769 1317.51 309.538 1313.31L303.547 1313.64L297.556 1313.96C297.765 1317.77 297.781 1324.17 297.798 1332.16L303.798 1332.15ZM303.547 1313.64L309.538 1313.31C308.788 1299.66 308.013 1273.12 307.119 1242.47L301.121 1242.64L295.124 1242.82C296.015 1273.38 296.795 1300.13 297.556 1313.96L303.547 1313.64ZM301.121 1242.64L307.119 1242.47C305.64 1191.81 303.837 1129.96 301.28 1097.97L295.299 1098.45L289.318 1098.92C291.845 1130.53 293.64 1191.98 295.124 1242.82L301.121 1242.64ZM295.299 1098.45L301.28 1097.97C297.92 1055.94 290.08 1014.1 286.254 993.672L280.356 994.776L274.459 995.881C278.289 1016.33 286.015 1057.6 289.318 1098.92L295.299 1098.45ZM280.356 994.776L286.254 993.672C285.392 989.072 284.751 985.643 284.398 983.502L278.478 984.478L272.557 985.454C272.937 987.758 273.611 991.351 274.459 995.881L280.356 994.776ZM278.478 984.478L284.398 983.502C283.392 977.399 277.097 940.079 271.058 904.309C268.037 886.418 265.079 868.908 262.877 855.871C261.775 849.352 260.863 843.952 260.226 840.181C259.907 838.295 259.657 836.817 259.487 835.811C259.402 835.307 259.337 834.922 259.293 834.662C259.271 834.532 259.255 834.434 259.243 834.368C259.238 834.335 259.234 834.31 259.231 834.294C259.229 834.285 259.228 834.279 259.228 834.275C259.227 834.273 259.227 834.271 259.227 834.27C259.227 834.269 259.227 834.269 253.311 835.269C247.394 836.268 247.395 836.269 247.395 836.27C247.395 836.271 247.395 836.273 247.396 836.275C247.396 836.279 247.397 836.285 247.399 836.293C247.401 836.31 247.406 836.335 247.411 836.368C247.422 836.434 247.439 836.532 247.461 836.662C247.505 836.922 247.57 837.307 247.655 837.81C247.825 838.817 248.075 840.295 248.393 842.18C249.031 845.951 249.943 851.351 251.044 857.87C253.247 870.907 256.205 888.417 259.225 906.307C265.268 942.098 271.556 979.382 272.557 985.454L278.478 984.478ZM253.311 835.269L259.128 833.801L253.927 813.179L248.109 814.646L242.292 816.114L247.493 836.736L253.311 835.269ZM248.109 814.646L242.292 813.179L237.09 833.801L242.908 835.269L248.726 836.736L253.927 816.114L248.109 814.646ZM242.908 835.269C236.992 834.269 236.992 834.269 236.992 834.27C236.992 834.271 236.991 834.273 236.991 834.275C236.99 834.279 236.989 834.285 236.988 834.294C236.985 834.31 236.981 834.335 236.975 834.368C236.964 834.434 236.948 834.532 236.926 834.662C236.882 834.922 236.817 835.307 236.732 835.811C236.561 836.817 236.312 838.295 235.993 840.181C235.356 843.952 234.443 849.352 233.342 855.871C231.139 868.908 228.182 886.418 225.161 904.309C219.122 940.079 212.827 977.399 211.821 983.502L217.741 984.478L223.661 985.454C224.662 979.382 230.951 942.098 236.994 906.307C240.014 888.417 242.972 870.907 245.174 857.87C246.276 851.351 247.188 845.951 247.825 842.18C248.144 840.295 248.394 838.817 248.564 837.81C248.649 837.307 248.714 836.922 248.758 836.662C248.78 836.532 248.796 836.434 248.808 836.368C248.813 836.335 248.817 836.31 248.82 836.293C248.821 836.285 248.823 836.279 248.823 836.275C248.824 836.273 248.824 836.271 248.824 836.27C248.824 836.269 248.824 836.268 242.908 835.269ZM217.741 984.478L211.821 983.502C211.468 985.643 210.826 989.071 209.965 993.671L215.862 994.775L221.76 995.88C222.608 991.351 223.281 987.758 223.661 985.454L217.741 984.478ZM215.862 994.775L209.965 993.671C206.139 1014.1 198.298 1055.94 194.939 1097.97L200.92 1098.45L206.901 1098.92C210.204 1057.6 217.93 1016.33 221.76 995.88L215.862 994.775ZM200.92 1098.45L194.939 1097.97C192.382 1129.96 190.579 1191.8 189.1 1242.47L195.098 1242.64L201.095 1242.82C202.579 1191.98 204.374 1130.53 206.901 1098.92L200.92 1098.45ZM195.098 1242.64L189.1 1242.47C188.206 1273.12 187.431 1299.66 186.681 1313.31L192.672 1313.64L198.663 1313.96C199.423 1300.13 200.203 1273.38 201.095 1242.82L195.098 1242.64ZM192.672 1313.64L186.681 1313.31C186.45 1317.51 186.437 1324.32 186.421 1332.14L192.421 1332.15L198.421 1332.16C198.438 1324.17 198.454 1317.77 198.663 1313.96L192.672 1313.64ZM192.421 1332.15L186.421 1332.14C186.396 1343.94 186.364 1358.42 185.646 1371.46C185.288 1377.97 184.763 1384.02 184.003 1389.13C183.224 1394.35 182.263 1398.11 181.231 1400.34L186.674 1402.86L192.117 1405.39C193.897 1401.55 195.053 1396.39 195.872 1390.89C196.708 1385.28 197.259 1378.82 197.628 1372.12C198.366 1358.71 198.396 1343.9 198.421 1332.16L192.421 1332.15ZM186.674 1402.86L182.809 1398.27C176.798 1403.33 171.956 1410.15 167.813 1417.35C163.66 1424.56 159.994 1432.54 156.53 1440.07L161.981 1442.58L167.432 1445.09C170.943 1437.45 174.382 1429.99 178.212 1423.34C182.05 1416.67 186.067 1411.22 190.539 1407.45L186.674 1402.86ZM161.981 1442.58L156.53 1440.07C154.013 1445.54 151.605 1450.78 149.109 1455.58L154.433 1458.35L159.756 1461.11C162.41 1456.01 164.942 1450.5 167.432 1445.09L161.981 1442.58ZM154.433 1458.35L149.109 1455.58C144.705 1464.05 135.63 1474.74 125.422 1482.81C120.352 1486.81 115.213 1490 110.471 1491.94C105.659 1493.9 101.784 1494.37 98.9274 1493.73L97.6123 1499.58L96.2972 1505.44C102.473 1506.83 108.997 1505.5 115.01 1503.04C121.091 1500.56 127.202 1496.69 132.86 1492.22C144.109 1483.34 154.413 1471.39 159.756 1461.11L154.433 1458.35ZM97.6123 1499.58L98.9275 1493.73C90.3624 1491.81 79.7246 1488.07 71.1055 1482.82C62.2297 1477.41 56.9381 1471.29 56.1646 1465.1L50.2109 1465.84L44.2573 1466.59C45.7331 1478.39 55.1106 1487.12 64.8573 1493.06C74.8606 1499.16 86.7988 1503.31 96.2971 1505.44L97.6123 1499.58ZM50.2109 1465.84L56.1646 1465.1C55.6732 1461.17 57.5012 1455.18 61.804 1447.17C65.9594 1439.43 71.7252 1431.03 77.5432 1422.56L72.5977 1419.16L67.6521 1415.76C61.9314 1424.09 55.7586 1433.06 51.2327 1441.49C46.8542 1449.64 43.2582 1458.59 44.2573 1466.59L50.2109 1465.84ZM72.5977 1419.16L77.5432 1422.56C83.3359 1414.13 89.2724 1405.5 93.025 1398.07L87.668 1395.36L82.3109 1392.66C79.0037 1399.22 73.607 1407.1 67.6521 1415.76L72.5977 1419.16ZM87.668 1395.36L93.6601 1395.67L98.1914 1307.19L92.1992 1306.89L86.2071 1306.58L81.6758 1395.06L87.668 1395.36ZM92.1992 1306.89H98.1992C98.1992 1293.46 97.3252 1262.04 96.319 1225.84L90.3213 1226.01L84.3236 1226.18C85.3333 1262.49 86.1992 1293.67 86.1992 1306.89H92.1992ZM90.3213 1226.01L96.319 1225.84C94.5583 1162.51 92.4013 1084.69 93.6599 1060.52L87.668 1060.21L81.6761 1059.89C80.3849 1084.7 82.5739 1163.24 84.3236 1226.18L90.3213 1226.01ZM87.668 1060.21L93.6599 1060.52C94.5557 1043.31 95.6407 1031.24 96.7523 1018.87L90.7764 1018.33L84.8004 1017.8C83.6868 1030.19 82.5843 1042.45 81.6761 1059.89L87.668 1060.21ZM90.7764 1018.33L96.7523 1018.87C98.1181 1003.67 99.5193 988.073 100.63 962.241L94.6357 961.983L88.6413 961.726C87.5423 987.279 86.1604 1002.66 84.8004 1017.8L90.7764 1018.33ZM94.6357 961.983L100.63 962.241C101.174 949.589 102.015 934.943 102.955 918.582L96.9648 918.238L90.9747 917.894C90.0366 934.229 89.1899 948.969 88.6413 961.726L94.6357 961.983ZM96.9648 918.238L102.955 918.582C105.465 874.888 108.664 819.203 108.664 758.04H102.664H96.6641C96.6641 818.817 93.4851 874.186 90.9747 917.894L96.9648 918.238ZM102.664 758.04H108.664C108.664 703.987 119.758 646.98 128.061 604.389L122.172 603.241L116.283 602.093C108.014 644.508 96.6641 702.641 96.6641 758.04H102.664ZM122.172 603.241L128.061 604.389C132.416 582.051 136.103 563.212 136.757 551.297L130.766 550.969L124.775 550.64C124.179 561.509 120.725 579.304 116.283 602.093L122.172 603.241ZM130.766 550.969L136.757 551.297C137.685 534.361 135.764 502.505 132.758 475.085C131.25 461.335 129.447 448.486 127.541 439.004C126.595 434.303 125.58 430.198 124.489 427.17C123.957 425.696 123.292 424.144 122.423 422.851C121.832 421.97 119.804 419.146 116.075 419.145L116.072 425.145L116.069 431.145C114.596 431.144 113.567 430.534 113.08 430.157C112.834 429.967 112.674 429.798 112.59 429.703C112.504 429.605 112.463 429.544 112.463 429.544C112.462 429.541 112.485 429.576 112.529 429.657C112.573 429.737 112.63 429.849 112.7 429.999C112.841 430.303 113.009 430.711 113.2 431.239C113.987 433.425 114.865 436.841 115.776 441.369C117.581 450.347 119.339 462.795 120.83 476.393C123.821 503.673 125.647 534.727 124.775 550.64L130.766 550.969ZM116.072 425.145V419.145C112.701 419.145 110.759 421.509 110.144 422.325C109.307 423.436 108.674 424.743 108.182 425.926C107.17 428.36 106.2 431.648 105.259 435.441C103.356 443.106 101.325 453.837 99.2387 466.319C95.0589 491.328 90.5584 523.977 86.3453 554.539L92.2891 555.358L98.2328 556.178C102.454 525.558 106.929 493.1 111.074 468.297C113.151 455.874 115.12 445.523 116.905 438.333C117.807 434.698 118.604 432.115 119.262 430.535C119.605 429.71 119.782 429.474 119.729 429.545C119.697 429.588 119.454 429.911 118.955 430.26C118.428 430.629 117.435 431.145 116.072 431.145V425.145ZM92.2891 555.358L86.3453 554.539C84.3683 568.88 82.4539 582.767 80.6608 595.231L86.5996 596.085L92.5385 596.939C94.3376 584.434 96.2571 570.51 98.2328 556.178L92.2891 555.358ZM86.5996 596.085L80.6608 595.231C76.6162 623.344 73.7552 649.549 71.5755 669.515L77.54 670.166L83.5046 670.817C85.6854 650.842 88.5267 624.825 92.5385 596.939L86.5996 596.085ZM77.54 670.166L71.5755 669.515C69.9615 684.298 68.745 695.42 67.7038 701.551L73.6191 702.556L79.5345 703.56C80.6519 696.979 81.9144 685.383 83.5046 670.817L77.54 670.166ZM73.6191 702.556L67.7038 701.551C66.197 710.425 66.8432 720.466 68.3288 730.512C69.8207 740.602 72.2367 751.158 74.5063 761.089L80.3555 759.752L86.2047 758.415C83.9134 748.39 81.6109 738.301 80.1997 728.757C78.7821 719.17 78.3406 710.591 79.5345 703.56L73.6191 702.556ZM80.3555 759.752L74.5063 761.089C77.3238 773.417 79.8669 784.607 80.5781 793.677C80.9319 798.188 80.7951 801.804 80.1761 804.554C79.5687 807.252 78.5901 808.738 77.5178 809.602L81.2822 814.274L85.0466 818.947C88.8445 815.887 90.8811 811.641 91.8833 807.188C92.8738 802.787 92.9407 797.831 92.5414 792.739C91.7465 782.601 88.9561 770.454 86.2047 758.415L80.3555 759.752ZM81.2822 814.274L77.5179 809.602C76.7063 810.256 76.1276 810.554 75.7807 810.686C75.6116 810.75 75.4993 810.774 75.4379 810.784C75.3784 810.793 75.3489 810.792 75.3397 810.791C75.3301 810.79 75.3123 810.788 75.2779 810.778C75.2416 810.767 75.1725 810.741 75.0681 810.684C74.8496 810.565 74.5038 810.323 74.0434 809.857C71.8741 807.661 69.8612 803.502 67.4174 798.224L61.9727 800.745L56.528 803.266C58.6438 807.836 61.5351 814.269 65.5055 818.289C67.6306 820.441 70.598 822.474 74.4564 822.758C78.3546 823.046 81.9249 821.462 85.0466 818.947L81.2822 814.274ZM61.9727 800.745L67.4174 798.224C66.451 796.137 65.4199 793.905 64.3622 791.936C63.3395 790.031 62.0566 787.913 60.4453 786.266C58.8362 784.621 56.0157 782.588 52.1953 783.105C48.6766 783.58 46.2182 786.006 44.5866 788.181L49.3867 791.781L54.1868 795.381C55.1628 794.08 55.0886 794.823 53.8026 794.997C52.2148 795.211 51.4756 794.257 51.8683 794.658C52.2587 795.057 52.8981 795.952 53.79 797.613C54.6469 799.208 55.5229 801.095 56.528 803.266L61.9727 800.745ZM49.3867 791.781L44.5864 788.182C39.795 794.571 41.4479 802.73 43.7267 809.092C46.1474 815.849 50.3164 823.351 54.1453 830.273L59.3955 827.368L64.6457 824.464C60.6684 817.274 57.0482 810.696 55.0237 805.045C52.8573 798.997 53.4088 796.419 54.187 795.381L49.3867 791.781ZM59.3955 827.368L54.1453 830.273C58.1995 837.601 61.9009 844.329 63.9339 850.109C66.1001 856.268 65.4905 858.899 64.6 860.013L69.2852 863.761L73.9703 867.509C79.1348 861.054 77.5579 852.678 75.2542 846.128C72.8174 839.199 68.5463 831.515 64.6457 824.464L59.3955 827.368ZM69.2852 863.761L64.6001 860.012C63.8933 860.896 62.3893 861.943 57.8569 860.427C53.342 858.917 47.5824 855.273 41.4037 849.852C29.0826 839.042 16.8854 822.765 11.466 808.407L5.85254 810.525L0.239079 812.644C6.49096 829.208 20.0114 847.047 33.4895 858.872C40.2105 864.769 47.3708 869.573 54.0506 871.807C60.713 874.036 68.6784 874.123 73.9702 867.509L69.2852 863.761ZM5.85254 810.525L11.466 808.407C4.42909 789.763 7.00319 768.371 9.58277 747.907L3.62988 747.156L-2.32301 746.406C-4.82363 766.243 -8.03222 790.73 0.239077 812.644L5.85254 810.525ZM3.62988 747.156L9.58277 747.907C10.7164 738.914 11.8527 729.976 11.8525 722.061L5.85254 722.062L-0.147461 722.062C-0.147349 729.069 -1.16219 737.197 -2.32301 746.406L3.62988 747.156ZM5.85254 722.062L11.8525 722.061C11.8522 698.399 15.5709 649.19 20.1976 596.611L14.2207 596.085L8.2438 595.559C3.63154 647.974 -0.147803 697.761 -0.147461 722.062L5.85254 722.062ZM14.2207 596.085L20.1976 596.611C21.4736 582.11 22.446 568.358 23.3854 555.073L17.4004 554.649L11.4153 554.226C10.4751 567.524 9.5094 581.176 8.2438 595.559L14.2207 596.085ZM17.4004 554.649L23.3854 555.073C25.8649 520.008 28.1213 488.203 35.1013 453.302L29.2178 452.125L23.3343 450.948C16.1832 486.705 13.8891 519.243 11.4153 554.226L17.4004 554.649ZM29.2178 452.125L35.1013 453.302C37.413 441.742 39.07 427.516 40.8472 412.302L34.8877 411.605L28.9282 410.909C27.132 426.287 25.5298 439.97 23.3343 450.948L29.2178 452.125ZM34.8877 411.605L40.8472 412.302C43.8273 386.788 47.1884 358.118 54.4654 331.968C61.7591 305.757 72.7605 282.96 90.3979 268.537L86.5996 263.893L82.8014 259.248C62.3416 275.979 50.4574 301.609 42.9046 328.751C35.3351 355.953 31.8888 385.563 28.9282 410.909L34.8877 411.605ZM86.5996 263.893L90.3978 268.537C115.984 247.614 137.7 244.6 155.602 242.122L154.779 236.179L153.957 230.235C135.478 232.793 111.021 236.171 82.8014 259.248L86.5996 263.893ZM154.779 236.179L155.602 242.122C170.394 240.075 185.264 238.334 194.713 223.693L189.672 220.439L184.631 217.186C178.617 226.504 169.797 228.043 153.957 230.235L154.779 236.179ZM189.672 220.439L194.713 223.693C204.577 208.409 206.14 195.102 205.252 185.786L199.279 186.355L193.306 186.925C193.949 193.673 192.968 204.267 184.631 217.186L189.672 220.439ZM199.279 186.355L204.335 183.124C195.564 169.403 190.404 149.068 183.89 121.218L178.048 122.585L172.206 123.951C178.57 151.16 184.114 173.772 194.224 189.587L199.279 186.355ZM178.048 122.585L183.89 121.218C177.47 93.7699 177.654 64.569 187.382 42.5793C192.204 31.6772 199.332 22.6196 209.131 16.2592C218.927 9.90056 231.76 6.00018 248.378 6L248.378 0L248.378 -6C229.83 -5.9998 214.642 -1.6238 202.598 6.19363C190.556 14.0094 182.024 25.0276 176.407 37.7247C165.256 62.9334 165.44 95.0247 172.206 123.951L178.048 122.585Z" fill="currentColor" mask="url(#path-1-inside-1_1503_32826)"/>
<defs>
<linearGradient id="paint0_linear_1503_32826" x1="434.069" y1="1500" x2="-352.657" y2="1134.78" gradientUnits="userSpaceOnUse">
<stop stop-color="#E4ECFC"/>
<stop offset="1" stop-color="white" stop-opacity="0.5"/>
</linearGradient>
</defs>
</svg>
