<svg width="20" height="50" viewBox="0 0 20 50" fill="none" xmlns="http://www.w3.org/2000/svg">
<path d="M12.3408 8.19629C12.9527 8.19814 15.9288 8.30201 17.3379 10.1191C18.9128 12.1505 19.1328 13.8148 19.1328 15.1191V26.1084C19.1327 27.024 18.3902 27.7616 17.4746 27.7617C16.559 27.7617 15.8166 27.02 15.8164 26.1045V15.2285C15.8164 15.2285 15.7075 14.0322 14.8379 14.0322C14.7918 14.0322 14.7445 14.0346 14.6963 14.0352C14.6884 14.0458 14.6822 14.0571 14.6738 14.0654C14.1859 14.5543 13.9131 19.3916 13.9131 19.3916C13.9131 21.0839 14.276 23.0847 14.7451 25.3945C15.6554 27.7745 18.0758 34.1432 18.208 34.9365C18.371 35.9145 18.3164 36.5674 18.3164 36.5674V47.4346C18.3164 48.5752 17.3916 49.5 16.251 49.5C15.1105 49.4999 14.1855 48.5751 14.1855 47.4346V35.9141C14.1531 35.851 10.3813 28.5241 10.0557 28.3057C9.80678 28.1397 9.30391 28.0403 9.08008 28.001L7.88184 36.6738V47.4346C7.88184 48.5751 6.95696 49.4999 5.81641 49.5C4.67581 49.5 3.75098 48.5752 3.75098 47.4346V36.4561H3.75684L4.07715 25.043L4.08398 25.04C4.1663 23.3268 4.89151 20.0875 4.8916 19.3916C4.8916 18.6307 4.9449 17.4349 4.8916 16.2393C4.85052 15.3175 4.89089 14.1853 4.41016 14.0674C4.37102 14.067 4.33257 14.0654 4.29492 14.0654C3.43479 14.0654 3.31882 15.2353 3.31641 15.2607V26.1367C3.31641 27.0524 2.57386 27.7948 1.6582 27.7949C0.742639 27.7949 0.00026139 27.0571 0 26.1416V15.1523C1.10781e-05 13.848 0.219921 12.1839 1.79492 10.1523C3.16425 8.3864 6.01323 8.23718 6.73438 8.22852L6.79492 8.19531H12.3379L12.3408 8.19629Z" fill="url(#paint0_radial_1846_30663)"/>
<circle cx="9.5" cy="3.5" r="3.5" fill="url(#paint1_radial_1846_30663)"/>
<defs>
<radialGradient id="paint0_radial_1846_30663" cx="0" cy="0" r="1" gradientUnits="userSpaceOnUse" gradientTransform="translate(-12.574 4.47792) rotate(55.5817) scale(56.0954 39.845)">
<stop stop-color="#A92BEC"/>
<stop offset="1" stop-color="#2A3AEB"/>
</radialGradient>
<radialGradient id="paint1_radial_1846_30663" cx="0" cy="0" r="1" gradientUnits="userSpaceOnUse" gradientTransform="translate(1.39964 -0.629995) rotate(34.0603) scale(14.0025 9.89722)">
<stop stop-color="#A92BEC"/>
<stop offset="1" stop-color="#2A3AEB"/>
</radialGradient>
</defs>
</svg>
