<svg width="20" height="51" viewBox="0 0 20 51" fill="none" xmlns="http://www.w3.org/2000/svg">
<g opacity="0.5">
<path d="M12.3408 9.19629C12.9527 9.19814 15.9288 9.30201 17.3379 11.1191C18.9128 13.1505 19.1328 14.8148 19.1328 16.1191V27.1084C19.1327 28.024 18.3902 28.7616 17.4746 28.7617C16.559 28.7617 15.8166 28.02 15.8164 27.1045V16.2285C15.8164 16.2285 15.7075 15.0322 14.8379 15.0322C14.7918 15.0322 14.7445 15.0346 14.6963 15.0352C14.6884 15.0458 14.6822 15.0571 14.6738 15.0654C14.1859 15.5543 13.9131 20.3916 13.9131 20.3916C13.9131 22.0839 14.276 24.0847 14.7451 26.3945C15.6554 28.7745 18.0758 35.1432 18.208 35.9365C18.371 36.9145 18.3164 37.5674 18.3164 37.5674V48.4346C18.3164 49.5752 17.3916 50.5 16.251 50.5C15.1105 50.4999 14.1855 49.5751 14.1855 48.4346V36.9141C14.1531 36.851 10.3813 29.5241 10.0557 29.3057C9.80678 29.1397 9.30391 29.0403 9.08008 29.001L7.88184 37.6738V48.4346C7.88184 49.5751 6.95696 50.4999 5.81641 50.5C4.67581 50.5 3.75098 49.5752 3.75098 48.4346V37.4561H3.75684L4.07715 26.043L4.08398 26.04C4.1663 24.3268 4.89151 21.0875 4.8916 20.3916C4.8916 19.6307 4.9449 18.4349 4.8916 17.2393C4.85052 16.3175 4.89089 15.1853 4.41016 15.0674C4.37102 15.067 4.33257 15.0654 4.29492 15.0654C3.43479 15.0654 3.31882 16.2353 3.31641 16.2607V27.1367C3.31641 28.0524 2.57386 28.7948 1.6582 28.7949C0.742639 28.7949 0.00026139 28.0571 0 27.1416V16.1523C1.10781e-05 14.848 0.219921 13.1839 1.79492 11.1523C3.16425 9.3864 6.01323 9.23718 6.73438 9.22852L6.79492 9.19531H12.3379L12.3408 9.19629Z" fill="#1B1D21"/>
<circle cx="9.5" cy="3.5" r="3.5" fill="#1B1D21"/>
</g>
</svg>
