<svg width="214" height="477" viewBox="0 0 214 477" fill="none" xmlns="http://www.w3.org/2000/svg">
<mask id="path-1-inside-1_1204_31062" fill="white">
<path d="M107.154 0.505859C122.082 0.506165 134.185 14.5869 134.185 31.9561C134.185 42.1399 130.023 51.1918 123.572 56.9395V67.4209C123.587 67.418 134.528 65.4244 155.751 80.1348C169.737 89.8287 174.513 110.258 178.717 128.24C180.897 137.566 182.924 146.233 186.001 152.403C192.251 164.936 198.501 186.805 203.462 204.164C205.653 211.831 207.593 218.618 209.17 223.333C214.319 238.723 215.607 252.106 211.745 256.121C207.884 260.136 205.952 259.467 204.022 258.129C203.073 257.471 202.435 253.904 201.802 250.367C201.147 246.708 200.499 243.079 199.517 242.738C198.644 242.436 198.165 243.091 197.665 243.775C197.059 244.605 196.421 245.478 195.011 244.745C193.972 244.205 193.779 241.376 193.491 237.183C193.067 230.985 192.438 221.805 188.575 212.626C182.099 197.235 151.89 138.35 146.741 132.997C141.593 127.644 139.661 165.117 139.661 172.478C139.661 175.198 141.596 184.409 144.034 196.021C148.194 215.828 153.821 242.623 153.821 256.121C153.821 266.293 153.094 278.429 152.401 290.017C151.634 302.821 150.908 314.957 151.246 323.036C151.587 331.189 152.651 335.774 153.671 340.174C154.577 344.079 155.449 347.838 155.751 353.816C156.117 361.043 154.612 380.159 153.244 397.525C152.206 410.714 151.246 422.894 151.246 428.093C151.246 434.582 154.049 443.598 156.433 451.266C158.473 457.828 160.207 463.404 159.614 465.564C158.326 470.248 157.039 474.933 151.246 476.271C145.454 477.61 139.018 474.933 135.8 471.587C133.706 469.409 134.065 455.327 134.394 442.438C134.57 435.524 134.738 428.953 134.513 424.747C134.038 415.854 129.352 389.451 126.673 374.357C125.724 369.009 125.027 365.081 124.859 363.854C124.542 361.547 124.38 357.615 124.222 353.739C124.059 349.748 123.898 345.816 123.572 343.779C122.965 339.995 108.658 269.147 106.995 260.914C105.332 269.147 91.0264 339.993 90.4192 343.779C90.0927 345.816 89.9311 349.748 89.7678 353.739C89.6093 357.615 89.4482 361.547 89.1311 363.854C88.9626 365.081 88.2658 369.009 87.3166 374.357C84.6381 389.451 79.953 415.854 79.4778 424.747C79.2531 428.953 79.4205 435.524 79.5969 442.438C79.9256 455.327 80.2847 469.408 78.1907 471.587C74.9726 474.933 68.5358 477.61 62.7434 476.271C56.9513 474.933 55.6644 470.248 54.3772 465.564C53.7838 463.404 55.5166 457.828 57.5569 451.266C59.9407 443.598 62.7433 434.583 62.7434 428.093C62.7434 422.894 61.785 410.714 60.7463 397.525C59.3787 380.159 57.8728 361.044 58.2385 353.817C58.5411 347.839 59.4129 344.08 60.3186 340.175C61.3391 335.775 62.4024 331.19 62.7434 323.036C63.0812 314.957 62.3554 302.821 61.5891 290.017C60.8956 278.429 60.1692 266.293 60.1692 256.121C60.1692 242.623 65.7959 215.828 69.9553 196.021C72.3939 184.409 74.3283 175.198 74.3284 172.478C74.3284 165.117 72.398 127.645 67.2493 132.998C62.1001 138.352 31.8919 197.235 25.4153 212.626C21.5528 221.805 20.9238 230.985 20.4993 237.183C20.212 241.377 20.0177 244.205 18.9788 244.745C17.5684 245.478 16.9312 244.605 16.3254 243.775C15.8254 243.091 15.3469 242.436 14.4739 242.738C13.492 243.079 12.8424 246.707 12.1877 250.367C11.5551 253.904 10.9178 257.471 9.96899 258.129C8.03817 259.467 6.10697 260.136 2.24535 256.121C-1.61625 252.106 -0.329167 238.723 4.81957 223.333C6.39688 218.618 8.3365 211.831 10.5276 204.164C15.4888 186.805 21.7394 164.936 27.9895 152.403C31.0666 146.233 33.0925 137.566 35.2727 128.24C39.4766 110.258 44.2528 89.8287 58.2385 80.1348C79.4774 65.4135 90.4192 67.4209 90.4192 67.4209V56.6553C84.1479 50.8958 80.1224 41.9733 80.1223 31.9561C80.1223 14.5867 92.2246 0.505859 107.154 0.505859Z"/>
</mask>
<path d="M107.154 0.505859C122.082 0.506165 134.185 14.5869 134.185 31.9561C134.185 42.1399 130.023 51.1918 123.572 56.9395V67.4209C123.587 67.418 134.528 65.4244 155.751 80.1348C169.737 89.8287 174.513 110.258 178.717 128.24C180.897 137.566 182.924 146.233 186.001 152.403C192.251 164.936 198.501 186.805 203.462 204.164C205.653 211.831 207.593 218.618 209.17 223.333C214.319 238.723 215.607 252.106 211.745 256.121C207.884 260.136 205.952 259.467 204.022 258.129C203.073 257.471 202.435 253.904 201.802 250.367C201.147 246.708 200.499 243.079 199.517 242.738C198.644 242.436 198.165 243.091 197.665 243.775C197.059 244.605 196.421 245.478 195.011 244.745C193.972 244.205 193.779 241.376 193.491 237.183C193.067 230.985 192.438 221.805 188.575 212.626C182.099 197.235 151.89 138.35 146.741 132.997C141.593 127.644 139.661 165.117 139.661 172.478C139.661 175.198 141.596 184.409 144.034 196.021C148.194 215.828 153.821 242.623 153.821 256.121C153.821 266.293 153.094 278.429 152.401 290.017C151.634 302.821 150.908 314.957 151.246 323.036C151.587 331.189 152.651 335.774 153.671 340.174C154.577 344.079 155.449 347.838 155.751 353.816C156.117 361.043 154.612 380.159 153.244 397.525C152.206 410.714 151.246 422.894 151.246 428.093C151.246 434.582 154.049 443.598 156.433 451.266C158.473 457.828 160.207 463.404 159.614 465.564C158.326 470.248 157.039 474.933 151.246 476.271C145.454 477.61 139.018 474.933 135.8 471.587C133.706 469.409 134.065 455.327 134.394 442.438C134.57 435.524 134.738 428.953 134.513 424.747C134.038 415.854 129.352 389.451 126.673 374.357C125.724 369.009 125.027 365.081 124.859 363.854C124.542 361.547 124.38 357.615 124.222 353.739C124.059 349.748 123.898 345.816 123.572 343.779C122.965 339.995 108.658 269.147 106.995 260.914C105.332 269.147 91.0264 339.993 90.4192 343.779C90.0927 345.816 89.9311 349.748 89.7678 353.739C89.6093 357.615 89.4482 361.547 89.1311 363.854C88.9626 365.081 88.2658 369.009 87.3166 374.357C84.6381 389.451 79.953 415.854 79.4778 424.747C79.2531 428.953 79.4205 435.524 79.5969 442.438C79.9256 455.327 80.2847 469.408 78.1907 471.587C74.9726 474.933 68.5358 477.61 62.7434 476.271C56.9513 474.933 55.6644 470.248 54.3772 465.564C53.7838 463.404 55.5166 457.828 57.5569 451.266C59.9407 443.598 62.7433 434.583 62.7434 428.093C62.7434 422.894 61.785 410.714 60.7463 397.525C59.3787 380.159 57.8728 361.044 58.2385 353.817C58.5411 347.839 59.4129 344.08 60.3186 340.175C61.3391 335.775 62.4024 331.19 62.7434 323.036C63.0812 314.957 62.3554 302.821 61.5891 290.017C60.8956 278.429 60.1692 266.293 60.1692 256.121C60.1692 242.623 65.7959 215.828 69.9553 196.021C72.3939 184.409 74.3283 175.198 74.3284 172.478C74.3284 165.117 72.398 127.645 67.2493 132.998C62.1001 138.352 31.8919 197.235 25.4153 212.626C21.5528 221.805 20.9238 230.985 20.4993 237.183C20.212 241.377 20.0177 244.205 18.9788 244.745C17.5684 245.478 16.9312 244.605 16.3254 243.775C15.8254 243.091 15.3469 242.436 14.4739 242.738C13.492 243.079 12.8424 246.707 12.1877 250.367C11.5551 253.904 10.9178 257.471 9.96899 258.129C8.03817 259.467 6.10697 260.136 2.24535 256.121C-1.61625 252.106 -0.329167 238.723 4.81957 223.333C6.39688 218.618 8.3365 211.831 10.5276 204.164C15.4888 186.805 21.7394 164.936 27.9895 152.403C31.0666 146.233 33.0925 137.566 35.2727 128.24C39.4766 110.258 44.2528 89.8287 58.2385 80.1348C79.4774 65.4135 90.4192 67.4209 90.4192 67.4209V56.6553C84.1479 50.8958 80.1224 41.9733 80.1223 31.9561C80.1223 14.5867 92.2246 0.505859 107.154 0.505859Z" fill="#9FBCF6" fill-opacity="0.5"/>
<path d="M107.154 0.505859L107.154 -1.99414H107.154V0.505859ZM134.185 31.9561L136.685 31.9561V31.9561H134.185ZM123.572 56.9395L121.908 55.0728L121.072 55.8185V56.9395H123.572ZM123.572 67.4209H121.072V70.4195L124.021 69.8801L123.572 67.4209ZM155.751 80.1348L157.175 78.0801L157.175 78.0801L155.751 80.1348ZM178.717 128.24L181.151 127.671L178.717 128.24ZM186.001 152.403L188.238 151.288L188.238 151.288L186.001 152.403ZM203.462 204.164L201.058 204.851L203.462 204.164ZM209.17 223.333L211.541 222.54V222.54L209.17 223.333ZM211.745 256.121L213.547 257.854L213.547 257.854L211.745 256.121ZM204.022 258.129L202.598 260.184L202.598 260.184L204.022 258.129ZM201.802 250.367L199.341 250.807L201.802 250.367ZM199.517 242.738L200.337 240.377L200.335 240.376L199.517 242.738ZM197.665 243.775L195.646 242.301L195.646 242.301L197.665 243.775ZM195.011 244.745L193.857 246.963L193.858 246.963L195.011 244.745ZM193.491 237.183L195.986 237.012V237.012L193.491 237.183ZM188.575 212.626L190.88 211.656V211.656L188.575 212.626ZM146.741 132.997L148.543 131.264L148.543 131.264L146.741 132.997ZM139.661 172.478L137.161 172.478V172.478L139.661 172.478ZM144.034 196.021L146.481 195.508L144.034 196.021ZM153.821 256.121H151.321H153.821ZM152.401 290.017L154.896 290.166L152.401 290.017ZM151.246 323.036L148.749 323.141L151.246 323.036ZM153.671 340.174L156.106 339.609L153.671 340.174ZM155.751 353.816L158.248 353.69L155.751 353.816ZM153.244 397.525L155.737 397.722L153.244 397.525ZM151.246 428.093H148.746V428.093L151.246 428.093ZM156.433 451.266L158.82 450.523L156.433 451.266ZM159.614 465.564L162.024 466.227L162.024 466.226L159.614 465.564ZM151.246 476.271L151.809 478.707L151.809 478.707L151.246 476.271ZM135.8 471.587L133.998 473.32L133.998 473.32L135.8 471.587ZM134.394 442.438L131.895 442.375L134.394 442.438ZM134.513 424.747L137.009 424.614L134.513 424.747ZM126.673 374.357L124.212 374.794L126.673 374.357ZM124.859 363.854L122.382 364.195L122.382 364.195L124.859 363.854ZM124.222 353.739L121.724 353.841L124.222 353.739ZM123.572 343.779L126.04 343.384L126.04 343.383L123.572 343.779ZM106.995 260.914L109.446 260.419H104.545L106.995 260.914ZM90.4192 343.779L87.9507 343.383L87.9507 343.384L90.4192 343.779ZM89.7678 353.739L92.2657 353.841L89.7678 353.739ZM89.1311 363.854L91.6078 364.195L91.6078 364.195L89.1311 363.854ZM87.3166 374.357L89.7782 374.794L87.3166 374.357ZM79.4778 424.747L76.9813 424.614L79.4778 424.747ZM79.5969 442.438L82.0961 442.375L79.5969 442.438ZM78.1907 471.587L79.9925 473.32L79.9931 473.319L78.1907 471.587ZM62.7434 476.271L62.1805 478.707H62.1806L62.7434 476.271ZM54.3772 465.564L51.9665 466.227L51.9666 466.227L54.3772 465.564ZM57.5569 451.266L55.1696 450.523L57.5569 451.266ZM62.7434 428.093L65.2434 428.093V428.093H62.7434ZM60.7463 397.525L58.254 397.722L60.7463 397.525ZM58.2385 353.817L55.7417 353.691V353.691L58.2385 353.817ZM60.3186 340.175L57.8832 339.61H57.8832L60.3186 340.175ZM62.7434 323.036L65.2412 323.141L62.7434 323.036ZM61.5891 290.017L59.0936 290.166L61.5891 290.017ZM60.1692 256.121H57.6692H60.1692ZM69.9553 196.021L72.4019 196.535L69.9553 196.021ZM74.3284 172.478L76.8284 172.478V172.478L74.3284 172.478ZM67.2493 132.998L65.4474 131.265L65.4474 131.265L67.2493 132.998ZM25.4153 212.626L23.111 211.656L23.111 211.656L25.4153 212.626ZM20.4993 237.183L22.9934 237.353L20.4993 237.183ZM18.9788 244.745L20.1319 246.963L20.1319 246.963L18.9788 244.745ZM16.3254 243.775L18.3446 242.301L18.3446 242.301L16.3254 243.775ZM14.4739 242.738L13.6553 240.376L13.6552 240.376L14.4739 242.738ZM12.1877 250.367L14.6487 250.807L12.1877 250.367ZM9.96899 258.129L11.3931 260.184L11.3936 260.183L9.96899 258.129ZM2.24535 256.121L0.443527 257.854H0.443532L2.24535 256.121ZM4.81957 223.333L2.44873 222.54H2.44873L4.81957 223.333ZM10.5276 204.164L8.12382 203.477L10.5276 204.164ZM27.9895 152.403L25.7523 151.288H25.7523L27.9895 152.403ZM35.2727 128.24L32.8383 127.671L35.2727 128.24ZM58.2385 80.1348L56.8144 78.0801H56.8143L58.2385 80.1348ZM90.4192 67.4209L89.9681 69.8799L92.9192 70.4213V67.4209H90.4192ZM90.4192 56.6553H92.9192V55.5569L92.1102 54.814L90.4192 56.6553ZM80.1223 31.9561H77.6223V31.9561L80.1223 31.9561ZM107.154 0.505859L107.154 3.00586C120.36 3.00613 131.685 15.599 131.685 31.9561H134.185H136.685C136.685 13.5747 123.805 -1.9938 107.154 -1.99414L107.154 0.505859ZM134.185 31.9561L131.685 31.956C131.685 41.471 127.795 49.8282 121.908 55.0728L123.572 56.9395L125.235 58.8061C132.25 52.5555 136.685 42.8088 136.685 31.9561L134.185 31.9561ZM123.572 56.9395H121.072V67.4209H123.572H126.072V56.9395H123.572ZM123.572 67.4209L124.021 69.8801C123.277 70.0161 133.554 67.7913 154.327 82.1895L155.751 80.1348L157.175 78.0801C135.502 63.0574 123.897 64.8199 123.122 64.9617L123.572 67.4209ZM155.751 80.1348L154.327 82.1895C160.752 86.6427 165.204 93.6654 168.585 102.018C171.967 110.373 174.172 119.78 176.283 128.809L178.717 128.24L181.151 127.671C179.058 118.718 176.773 108.92 173.22 100.142C169.665 91.3599 164.736 83.3207 157.175 78.0801L155.751 80.1348ZM178.717 128.24L176.283 128.809C178.438 138.028 180.527 147.028 183.764 153.519L186.001 152.403L188.238 151.288C185.321 145.439 183.356 137.103 181.151 127.671L178.717 128.24ZM186.001 152.403L183.764 153.519C189.886 165.794 196.068 187.389 201.058 204.851L203.462 204.164L205.866 203.477C200.934 186.22 194.617 164.078 188.238 151.288L186.001 152.403ZM203.462 204.164L201.058 204.851C203.243 212.494 205.2 219.346 206.799 224.126L209.17 223.333L211.541 222.54C209.986 217.891 208.064 211.168 205.866 203.477L203.462 204.164ZM209.17 223.333L206.799 224.126C209.331 231.695 210.884 238.686 211.345 244.201C211.576 246.963 211.526 249.271 211.23 251.059C210.925 252.894 210.406 253.907 209.943 254.388L211.745 256.121L213.547 257.854C215.015 256.328 215.783 254.162 216.162 251.878C216.549 249.546 216.58 246.794 216.328 243.784C215.824 237.757 214.158 230.361 211.541 222.54L209.17 223.333ZM211.745 256.121L209.944 254.388C208.134 256.27 207.178 256.606 206.816 256.656C206.583 256.688 206.292 256.661 205.446 256.074L204.022 258.129L202.598 260.184C203.682 260.935 205.322 261.911 207.503 261.609C209.555 261.324 211.495 259.987 213.547 257.854L211.745 256.121ZM204.022 258.129L205.446 256.074C205.839 256.347 205.848 256.595 205.667 256.165C205.536 255.853 205.383 255.374 205.217 254.716C204.886 253.403 204.584 251.723 204.263 249.927L201.802 250.367L199.341 250.807C199.652 252.548 199.986 254.42 200.369 255.939C200.56 256.697 200.785 257.455 201.06 258.107C201.285 258.642 201.73 259.582 202.598 260.184L204.022 258.129ZM201.802 250.367L204.263 249.927C203.942 248.13 203.598 246.2 203.201 244.678C203.005 243.924 202.766 243.15 202.459 242.497C202.305 242.17 202.097 241.79 201.81 241.437C201.534 241.098 201.06 240.628 200.337 240.377L199.517 242.738L198.696 245.1C198.219 244.934 197.98 244.652 197.93 244.591C197.869 244.516 197.878 244.504 197.933 244.622C198.045 244.86 198.193 245.286 198.363 245.939C198.7 247.231 199.008 248.945 199.341 250.807L201.802 250.367ZM199.517 242.738L200.335 240.376C199.058 239.934 197.874 240.216 196.982 240.864C196.309 241.353 195.83 242.05 195.646 242.301L197.665 243.775L199.684 245.25C199.82 245.064 199.892 244.967 199.955 244.892C200.016 244.82 200.002 244.85 199.92 244.91C199.824 244.98 199.627 245.094 199.345 245.142C199.055 245.19 198.823 245.144 198.698 245.1L199.517 242.738ZM197.665 243.775L195.646 242.301C195.568 242.409 195.509 242.489 195.452 242.563C195.397 242.635 195.357 242.683 195.329 242.715C195.263 242.788 195.294 242.735 195.419 242.665C195.487 242.627 195.579 242.586 195.691 242.557C195.804 242.528 195.914 242.518 196.013 242.521C196.21 242.527 196.273 242.584 196.164 242.527L195.011 244.745L193.858 246.963C195.148 247.634 196.568 247.752 197.861 247.028C198.84 246.48 199.466 245.548 199.684 245.25L197.665 243.775ZM195.011 244.745L196.165 242.528C196.669 242.79 196.762 243.154 196.685 242.967C196.624 242.821 196.531 242.504 196.436 241.927C196.246 240.773 196.133 239.158 195.986 237.012L193.491 237.183L190.997 237.353C191.138 239.401 191.265 241.296 191.503 242.74C191.622 243.462 191.79 244.216 192.067 244.883C192.327 245.51 192.833 246.43 193.857 246.963L195.011 244.745ZM193.491 237.183L195.986 237.012C195.562 230.826 194.922 221.262 190.88 211.656L188.575 212.626L186.271 213.596C189.954 222.348 190.572 231.143 190.997 237.353L193.491 237.183ZM188.575 212.626L190.88 211.656C187.597 203.855 178.38 185.201 169.379 167.894C164.869 159.224 160.395 150.855 156.719 144.309C154.883 141.038 153.236 138.204 151.878 136.009C150.571 133.897 149.403 132.157 148.543 131.264L146.741 132.997L144.94 134.73C145.368 135.175 146.269 136.446 147.625 138.639C148.93 140.749 150.539 143.514 152.359 146.757C155.999 153.239 160.446 161.556 164.943 170.201C173.951 187.522 183.078 206.006 186.271 213.596L188.575 212.626ZM146.741 132.997L148.543 131.264C147.988 130.687 147.127 130.052 145.963 129.982C144.745 129.909 143.812 130.487 143.222 131.056C142.181 132.062 141.535 133.672 141.078 135.122C140.097 138.24 139.352 142.856 138.788 147.679C137.65 157.394 137.161 168.699 137.161 172.478L139.661 172.478L142.161 172.478C142.161 168.895 142.638 157.784 143.754 148.261C144.315 143.465 145.019 139.256 145.848 136.623C146.051 135.978 146.245 135.482 146.421 135.122C146.61 134.737 146.718 134.631 146.695 134.653C146.651 134.696 146.288 135.01 145.664 134.973C145.094 134.939 144.851 134.638 144.94 134.73L146.741 132.997ZM139.661 172.478L137.161 172.478C137.161 174.131 137.707 177.383 138.479 181.388C139.272 185.507 140.37 190.737 141.588 196.535L144.034 196.021L146.481 195.508C145.26 189.694 144.172 184.512 143.388 180.442C142.583 176.258 142.161 173.545 142.161 172.477L139.661 172.478ZM144.034 196.021L141.588 196.535C143.669 206.446 146.107 218.057 148.026 228.873C149.953 239.739 151.321 249.616 151.321 256.121H153.821H156.321C156.321 249.127 154.875 238.858 152.949 228C151.014 217.093 148.559 205.404 146.481 195.508L144.034 196.021ZM153.821 256.121H151.321C151.321 266.203 150.6 278.258 149.905 289.867L152.401 290.017L154.896 290.166C155.588 278.6 156.321 266.383 156.321 256.121H153.821ZM152.401 290.017L149.905 289.867C149.142 302.613 148.404 314.903 148.749 323.141L151.246 323.036L153.744 322.932C153.413 315.011 154.126 303.029 154.896 290.166L152.401 290.017ZM151.246 323.036L148.749 323.141C149.099 331.52 150.201 336.278 151.236 340.739L153.671 340.174L156.106 339.609C155.1 335.271 154.076 330.859 153.744 322.932L151.246 323.036ZM153.671 340.174L151.236 340.739C152.133 344.609 152.963 348.193 153.254 353.943L155.751 353.816L158.248 353.69C157.934 347.484 157.02 343.549 156.106 339.609L153.671 340.174ZM155.751 353.816L153.254 353.943C153.61 360.959 152.129 379.84 150.752 397.329L153.244 397.525L155.737 397.722C157.095 380.477 158.624 361.126 158.248 353.69L155.751 353.816ZM153.244 397.525L150.752 397.329C149.719 410.446 148.746 422.767 148.746 428.093H151.246H153.746C153.746 423.021 154.692 410.981 155.737 397.722L153.244 397.525ZM151.246 428.093L148.746 428.093C148.746 435.051 151.708 444.488 154.046 452.008L156.433 451.266L158.82 450.523C156.39 442.708 153.746 434.114 153.746 428.093L151.246 428.093ZM156.433 451.266L154.046 452.008C155.073 455.313 155.991 458.269 156.584 460.666C156.88 461.862 157.078 462.855 157.171 463.638C157.218 464.027 157.234 464.332 157.231 464.563C157.229 464.676 157.223 464.761 157.216 464.821C157.209 464.882 157.202 464.906 157.203 464.902L159.614 465.564L162.024 466.226C162.304 465.208 162.258 464.062 162.136 463.045C162.008 461.97 161.756 460.754 161.438 459.466C160.802 456.894 159.833 453.781 158.82 450.523L156.433 451.266ZM159.614 465.564L157.203 464.902C156.537 467.324 155.977 469.289 155.002 470.844C154.119 472.251 152.887 473.326 150.684 473.836L151.246 476.271L151.809 478.707C155.398 477.878 157.706 475.942 159.237 473.501C160.675 471.208 161.403 468.489 162.024 466.227L159.614 465.564ZM151.246 476.271L150.684 473.836C145.877 474.946 140.308 472.667 137.602 469.854L135.8 471.587L133.998 473.32C137.728 477.198 145.031 480.273 151.809 478.707L151.246 476.271ZM135.8 471.587L137.602 469.854C137.754 470.012 137.671 470.013 137.515 469.504C137.379 469.061 137.245 468.425 137.126 467.58C136.891 465.894 136.752 463.638 136.688 460.969C136.558 455.64 136.728 448.966 136.893 442.502L134.394 442.438L131.895 442.375C131.731 448.799 131.556 455.611 131.689 461.09C131.755 463.824 131.899 466.303 132.175 468.273C132.312 469.255 132.491 470.177 132.735 470.972C132.959 471.7 133.322 472.617 133.998 473.32L135.8 471.587ZM134.394 442.438L136.893 442.502C137.068 435.636 137.241 428.943 137.009 424.614L134.513 424.747L132.016 424.88C132.235 428.963 132.072 435.412 131.895 442.375L134.394 442.438ZM134.513 424.747L137.009 424.614C136.524 415.522 131.793 388.9 129.135 373.921L126.673 374.357L124.212 374.794C126.91 390.002 131.552 416.186 132.016 424.88L134.513 424.747ZM126.673 374.357L129.135 373.921C128.178 368.529 127.495 364.677 127.335 363.514L124.859 363.854L122.382 364.195C122.559 365.484 123.27 369.489 124.212 374.794L126.673 374.357ZM124.859 363.854L127.335 363.514C127.039 361.356 126.881 357.575 126.72 353.637L124.222 353.739L121.724 353.841C121.88 357.654 122.044 361.738 122.382 364.195L124.859 363.854ZM124.222 353.739L126.72 353.637C126.56 349.735 126.396 345.607 126.04 343.384L123.572 343.779L121.103 344.175C121.4 346.026 121.557 349.761 121.724 353.841L124.222 353.739ZM123.572 343.779L126.04 343.383C125.423 339.533 111.097 268.593 109.446 260.419L106.995 260.914L104.545 261.409C106.22 269.701 120.507 340.457 121.103 344.175L123.572 343.779ZM106.995 260.914L104.545 260.419C102.894 268.592 88.5685 339.531 87.9507 343.383L90.4192 343.779L92.8876 344.175C93.4842 340.455 107.771 269.701 109.446 261.409L106.995 260.914ZM90.4192 343.779L87.9507 343.384C87.5944 345.606 87.4296 349.734 87.2699 353.637L89.7678 353.739L92.2657 353.841C92.4326 349.762 92.5909 346.026 92.8877 344.175L90.4192 343.779ZM89.7678 353.739L87.2699 353.637C87.1088 357.575 86.9509 361.356 86.6544 363.514L89.1311 363.854L91.6078 364.195C91.9454 361.738 92.1097 357.654 92.2657 353.841L89.7678 353.739ZM89.1311 363.854L86.6544 363.514C86.4946 364.677 85.8119 368.529 84.8551 373.921L87.3166 374.357L89.7782 374.794C90.7197 369.489 91.4306 365.484 91.6078 364.195L89.1311 363.854ZM87.3166 374.357L84.8551 373.921C82.1969 388.9 77.4671 415.522 76.9813 424.614L79.4778 424.747L81.9742 424.88C82.4388 416.186 87.0794 390.002 89.7782 374.794L87.3166 374.357ZM79.4778 424.747L76.9813 424.614C76.75 428.943 76.9226 435.636 77.0977 442.502L79.5969 442.438L82.0961 442.375C81.9185 435.412 81.7561 428.963 81.9742 424.88L79.4778 424.747ZM79.5969 442.438L77.0977 442.502C77.2626 448.966 77.4321 455.64 77.303 460.968C77.2384 463.638 77.1 465.893 76.8641 467.579C76.7459 468.425 76.6119 469.061 76.4759 469.504C76.3196 470.013 76.2363 470.013 76.3882 469.855L78.1907 471.587L79.9931 473.319C80.6686 472.617 81.0321 471.7 81.2557 470.971C81.4995 470.177 81.6785 469.254 81.8159 468.272C82.0914 466.303 82.2353 463.824 82.3016 461.089C82.4343 455.61 82.26 448.799 82.0961 442.375L79.5969 442.438ZM78.1907 471.587L76.3888 469.854C73.683 472.667 68.1129 474.946 63.3062 473.836L62.7434 476.271L62.1806 478.707C68.9588 480.273 76.2623 477.198 79.9925 473.32L78.1907 471.587ZM62.7434 476.271L63.3063 473.836C61.1028 473.326 59.8712 472.251 58.9889 470.844C58.0134 469.289 57.4535 467.324 56.7878 464.902L54.3772 465.564L51.9666 466.227C52.588 468.488 53.3152 471.208 54.753 473.501C56.284 475.942 58.5919 477.878 62.1805 478.707L62.7434 476.271ZM54.3772 465.564L56.7879 464.902C56.789 464.906 56.7821 464.882 56.7748 464.821C56.7675 464.761 56.7612 464.676 56.7595 464.563C56.7561 464.332 56.7727 464.027 56.8192 463.638C56.9127 462.855 57.1107 461.862 57.4064 460.666C57.9988 458.269 58.9166 455.313 59.9442 452.008L57.5569 451.266L55.1696 450.523C54.1569 453.781 53.1881 456.894 52.5525 459.466C52.2341 460.754 51.9827 461.971 51.8544 463.045C51.7331 464.062 51.6868 465.208 51.9665 466.227L54.3772 465.564ZM57.5569 451.266L59.9442 452.008C62.2819 444.488 65.2433 435.051 65.2434 428.093L62.7434 428.093L60.2434 428.093C60.2433 434.114 57.5994 442.708 55.1696 450.523L57.5569 451.266ZM62.7434 428.093H65.2434C65.2434 422.767 64.2717 410.447 63.2386 397.329L60.7463 397.525L58.254 397.722C59.2983 410.981 60.2434 423.021 60.2434 428.093H62.7434ZM60.7463 397.525L63.2386 397.329C61.8613 379.841 60.3802 360.961 60.7353 353.944L58.2385 353.817L55.7417 353.691C55.3654 361.127 56.896 380.477 58.254 397.722L60.7463 397.525ZM58.2385 353.817L60.7353 353.944C61.0264 348.194 61.8563 344.61 62.7539 340.74L60.3186 340.175L57.8832 339.61C56.9694 343.55 56.0559 347.485 55.7417 353.691L58.2385 353.817ZM60.3186 340.175L62.7539 340.74C63.7887 336.279 64.8908 331.52 65.2412 323.141L62.7434 323.036L60.2456 322.932C59.9141 330.859 58.8895 335.272 57.8832 339.61L60.3186 340.175ZM62.7434 323.036L65.2412 323.141C65.5857 314.903 64.8474 302.613 64.0846 289.867L61.5891 290.017L59.0936 290.166C59.8634 303.029 60.5768 315.011 60.2456 322.932L62.7434 323.036ZM61.5891 290.017L64.0846 289.867C63.3899 278.258 62.6692 266.203 62.6692 256.121H60.1692H57.6692C57.6692 266.383 58.4014 278.6 59.0936 290.166L61.5891 290.017ZM60.1692 256.121H62.6692C62.6692 249.616 64.0367 239.739 65.964 228.873C67.8826 218.057 70.3207 206.446 72.4019 196.535L69.9553 196.021L67.5087 195.508C65.4305 205.404 62.9755 217.093 61.0409 228C59.115 238.858 57.6692 249.128 57.6692 256.121H60.1692ZM69.9553 196.021L72.4019 196.535C73.6197 190.737 74.7179 185.507 75.5112 181.388C76.2824 177.383 76.8283 174.131 76.8284 172.478L74.3284 172.478L71.8284 172.477C71.8283 173.545 71.4071 176.258 70.6014 180.442C69.8178 184.511 68.7296 189.694 67.5087 195.508L69.9553 196.021ZM74.3284 172.478L76.8284 172.478C76.8284 168.699 76.34 157.394 75.2027 147.679C74.6379 142.856 73.8936 138.241 72.9122 135.123C72.4558 133.673 71.8101 132.063 70.7681 131.057C70.1781 130.487 69.2452 129.91 68.0276 129.983C66.8632 130.053 66.0024 130.688 65.4474 131.265L67.2493 132.998L69.0511 134.731C69.1397 134.639 68.8974 134.94 68.3269 134.974C67.7032 135.011 67.3398 134.697 67.2953 134.654C67.2724 134.632 67.381 134.738 67.5693 135.122C67.7456 135.482 67.9398 135.979 68.1429 136.624C68.9715 139.256 69.6751 143.465 70.2366 148.261C71.3515 157.784 71.8284 168.895 71.8284 172.478L74.3284 172.478ZM67.2493 132.998L65.4474 131.265C64.5881 132.159 63.4192 133.898 62.1128 136.01C60.755 138.206 59.1079 141.039 57.2713 144.31C53.5959 150.856 49.1213 159.225 44.6121 167.895C35.6103 185.202 26.394 203.855 23.111 211.656L25.4153 212.626L27.7196 213.596C30.9132 206.006 40.0393 187.522 49.048 170.202C53.5442 161.557 57.9918 153.24 61.6311 146.758C63.4518 143.516 65.0601 140.75 66.3651 138.641C67.7217 136.447 68.6231 135.176 69.0512 134.731L67.2493 132.998ZM25.4153 212.626L23.111 211.656C19.0689 221.262 18.4288 230.826 18.0051 237.012L20.4993 237.183L22.9934 237.353C23.4189 231.143 24.0367 222.348 27.7196 213.596L25.4153 212.626ZM20.4993 237.183L18.0051 237.012C17.8581 239.158 17.7446 240.773 17.5542 241.927C17.4591 242.504 17.366 242.821 17.3053 242.967C17.228 243.153 17.3212 242.789 17.8256 242.527L18.9788 244.745L20.1319 246.963C21.1558 246.431 21.6629 245.511 21.9232 244.884C22.2001 244.217 22.3683 243.463 22.4875 242.741C22.7258 241.297 22.8532 239.401 22.9934 237.353L20.4993 237.183ZM18.9788 244.745L17.8256 242.527C17.7163 242.584 17.78 242.527 17.9771 242.521C18.0761 242.518 18.1866 242.528 18.2999 242.558C18.4118 242.586 18.5036 242.627 18.572 242.665C18.6967 242.735 18.7277 242.789 18.6625 242.715C18.6336 242.683 18.5942 242.636 18.5389 242.563C18.482 242.489 18.4233 242.409 18.3446 242.301L16.3254 243.775L14.3063 245.25C14.5238 245.547 15.15 246.479 16.1288 247.028C17.4219 247.752 18.8424 247.634 20.1319 246.963L18.9788 244.745ZM16.3254 243.775L18.3446 242.301C18.1609 242.05 17.6819 241.353 17.0084 240.864C16.1167 240.216 14.9323 239.934 13.6553 240.376L14.4739 242.738L15.2924 245.1C15.1675 245.144 14.9358 245.19 14.646 245.142C14.3635 245.094 14.1671 244.98 14.0707 244.91C13.9888 244.85 13.9747 244.82 14.0357 244.892C14.0988 244.967 14.171 245.064 14.3063 245.25L16.3254 243.775ZM14.4739 242.738L13.6552 240.376C12.9323 240.627 12.4574 241.097 12.1812 241.436C11.8944 241.789 11.6856 242.169 11.5318 242.496C11.225 243.149 10.9857 243.923 10.789 244.677C10.392 246.199 10.0483 248.13 9.7268 249.927L12.1877 250.367L14.6487 250.807C14.9819 248.945 15.2903 247.231 15.6272 245.939C15.7975 245.286 15.9455 244.86 16.0571 244.622C16.1126 244.504 16.1207 244.517 16.06 244.591C16.0098 244.653 15.7699 244.935 15.2925 245.1L14.4739 242.738ZM12.1877 250.367L9.7268 249.927C9.4055 251.723 9.10383 253.403 8.77277 254.716C8.60683 255.375 8.45455 255.853 8.32294 256.166C8.14209 256.595 8.15118 256.347 8.54437 256.075L9.96899 258.129L11.3936 260.183C12.2612 259.582 12.7057 258.641 12.931 258.106C13.2055 257.454 13.43 256.697 13.6211 255.939C14.004 254.42 14.3373 252.548 14.6487 250.807L12.1877 250.367ZM9.96899 258.129L8.54483 256.074C7.69829 256.661 7.40754 256.688 7.17466 256.656C6.81292 256.606 5.857 256.27 4.04718 254.388L2.24535 256.121L0.443532 257.854C2.49532 259.987 4.43581 261.324 6.48777 261.609C8.66861 261.911 10.3089 260.935 11.3931 260.184L9.96899 258.129ZM2.24535 256.121L4.04718 254.388C3.58436 253.907 3.06528 252.894 2.76067 251.059C2.46385 249.271 2.41395 246.963 2.64489 244.201C3.10614 238.686 4.65826 231.695 7.19042 224.126L4.81957 223.333L2.44873 222.54C-0.167856 230.361 -1.83364 237.757 -2.33772 243.785C-2.58945 246.794 -2.55887 249.546 -2.17183 251.878C-1.79259 254.162 -1.02445 256.328 0.443527 257.854L2.24535 256.121ZM4.81957 223.333L7.19042 224.126C8.78966 219.346 10.7471 212.494 12.9313 204.851L10.5276 204.164L8.12382 203.477C5.92594 211.168 4.0041 217.891 2.44873 222.54L4.81957 223.333ZM10.5276 204.164L12.9313 204.851C17.9218 187.389 24.1051 165.794 30.2267 153.519L27.9895 152.403L25.7523 151.288C19.3737 164.078 13.0558 186.22 8.12382 203.477L10.5276 204.164ZM27.9895 152.403L30.2267 153.519C33.4638 147.028 35.5519 138.028 37.7071 128.809L35.2727 128.24L32.8383 127.671C30.6332 137.104 28.6693 145.439 25.7523 151.288L27.9895 152.403ZM35.2727 128.24L37.7071 128.809C39.8179 119.78 42.0228 110.373 45.4048 102.018C48.7856 93.6654 53.2378 86.6427 59.6627 82.1895L58.2385 80.1348L56.8143 78.0801C49.2535 83.3208 44.3247 91.3599 40.7701 100.142C37.2166 108.92 34.9314 118.718 32.8383 127.671L35.2727 128.24ZM58.2385 80.1348L59.6627 82.1895C70.073 74.9738 77.8435 71.9381 82.8958 70.6837C85.4227 70.0563 87.2781 69.8723 88.4546 69.8361C89.0435 69.8179 89.4643 69.8367 89.7163 69.8561C89.8424 69.8657 89.9264 69.8756 89.9684 69.881C89.9893 69.8838 89.9998 69.8854 89.9997 69.8854C89.9997 69.8854 89.9971 69.885 89.9918 69.8841C89.9892 69.8836 89.9858 69.8831 89.9819 69.8824C89.9799 69.882 89.9778 69.8816 89.9755 69.8812C89.9743 69.881 89.9725 69.8807 89.9719 69.8806C89.97 69.8802 89.9681 69.8799 90.4192 67.4209C90.8703 64.9619 90.8683 64.9616 90.8662 64.9612C90.8655 64.9611 90.8634 64.9607 90.8619 64.9604C90.8589 64.9599 90.8558 64.9593 90.8525 64.9587C90.8458 64.9576 90.8385 64.9563 90.8306 64.9549C90.8146 64.9522 90.7959 64.9491 90.7745 64.9458C90.7318 64.9391 90.6782 64.9313 90.6139 64.9229C90.4852 64.9061 90.3134 64.8872 90.0988 64.8707C89.6694 64.8378 89.0695 64.8148 88.3007 64.8384C86.7619 64.8858 84.5544 65.1201 81.691 65.831C75.9627 67.2532 67.6429 70.5745 56.8144 78.0801L58.2385 80.1348ZM90.4192 67.4209H92.9192V56.6553H90.4192H87.9192V67.4209H90.4192ZM90.4192 56.6553L92.1102 54.814C86.3842 49.5554 82.6223 41.3148 82.6223 31.956L80.1223 31.9561L77.6223 31.9561C77.6224 42.6317 81.9115 52.2363 88.7282 58.4966L90.4192 56.6553ZM80.1223 31.9561H82.6223C82.6223 15.5988 93.9471 3.00586 107.154 3.00586V0.505859V-1.99414C90.5021 -1.99414 77.6223 13.5746 77.6223 31.9561H80.1223Z" fill="white" mask="url(#path-1-inside-1_1204_31062)"/>
</svg>
