<svg width="528" height="1500" viewBox="0 0 528 1500" fill="none" xmlns="http://www.w3.org/2000/svg">
<mask id="path-1-inside-1_1503_32835" fill="white">
<path d="M213.101 -0.000976562C284.847 -0.000976562 298.818 67.5434 284.848 125.055C278.737 150.211 273.315 171.942 263.694 187.646C263.486 188.945 263.323 190.381 263.241 191.944C262.825 199.925 264.519 211.244 273.06 224.479C277.26 230.987 282.35 233.987 288.512 235.403C293.844 236.629 299.951 236.67 307.022 236.716C308.216 236.724 309.437 236.731 310.686 236.745C327.948 236.937 350.081 238.286 377.989 256.35C405.99 274.473 421.168 310.303 429.366 347.839C437.572 385.41 438.824 424.883 438.824 450.523V597.384C438.824 617.739 432.949 652.039 427.093 681.189C424.162 695.778 421.23 709.099 419.032 718.771C417.933 723.608 417.018 727.534 416.377 730.25C416.056 731.608 415.804 732.663 415.632 733.38C415.546 733.738 415.48 734.012 415.436 734.196C415.425 734.239 415.416 734.277 415.408 734.31C415.402 734.336 415.397 734.359 415.393 734.379C415.393 734.39 415.393 734.402 415.393 734.414C415.393 734.428 415.393 734.443 415.394 734.459L415.399 734.673C415.402 734.762 415.404 734.866 415.407 734.984C415.418 735.446 415.433 736.126 415.447 737.001C415.477 738.752 415.506 741.286 415.506 744.42C415.505 750.687 415.385 759.358 414.911 768.97C413.966 788.135 411.606 811.149 405.911 826.285C403.536 838.925 400.531 846.818 398.098 851.57C396.879 853.95 395.802 855.544 395.021 856.551C394.63 857.054 394.312 857.41 394.088 857.646C394.062 857.672 394.036 857.697 394.013 857.721C394.027 857.837 394.045 857.982 394.066 858.152L394.114 858.54C394.176 859.032 394.257 859.672 394.355 860.451C394.609 862.457 394.98 865.382 395.451 869.057C396.393 876.406 397.733 886.755 399.328 898.753C402.518 922.75 406.723 953.34 410.791 979.721C411.894 986.877 412.887 993.24 413.785 998.992C419.508 1035.66 421.356 1047.49 423.128 1081.53C423.681 1092.14 424.43 1117.76 425.364 1149.7C426.161 1176.95 427.094 1208.81 428.153 1239.9C429.305 1273.68 430.607 1306.55 432.052 1331.65C432.774 1344.2 433.531 1354.8 434.322 1362.59C434.718 1366.49 435.121 1369.67 435.53 1372.04C435.735 1373.23 435.939 1374.2 436.142 1374.95C436.349 1375.71 436.539 1376.18 436.689 1376.42C440.085 1381.7 449.97 1392.54 459.072 1402.12C463.61 1406.9 467.934 1411.34 471.123 1414.59C472.717 1416.22 474.029 1417.54 474.94 1418.46C475.396 1418.92 475.753 1419.28 475.995 1419.52L476.271 1419.8L476.379 1419.91L476.392 1419.92C480.437 1424.42 485.718 1428.01 491.372 1431.15C495.291 1433.32 499.351 1435.26 503.288 1437.14C505.044 1437.98 506.776 1438.81 508.459 1439.64C513.88 1442.32 518.808 1445.04 522.233 1448.28C525.688 1451.54 527.668 1455.4 527.058 1460.28C526.772 1462.57 526.558 1464.72 526.353 1466.77C526.147 1468.81 525.951 1470.76 525.701 1472.6C525.202 1476.28 524.486 1479.62 523.031 1482.69C520.098 1488.87 514.258 1493.74 501.777 1498.36C495.377 1500.73 487.095 1500.36 478.113 1498.34C469.112 1496.32 459.307 1492.61 449.799 1488.2C430.789 1479.39 412.849 1467.69 404.72 1460.75C400.807 1457.41 395.583 1455.25 389.541 1453.61C384.371 1452.21 378.662 1451.21 372.734 1450.17C371.734 1449.99 370.727 1449.81 369.715 1449.63C355.768 1447.15 340.946 1444.07 330.093 1434.74L329.972 1434.64L329.904 1434.49C327.919 1430.22 327.019 1423.15 326.729 1414.83C326.439 1406.47 326.764 1396.72 327.299 1387.01C327.674 1380.18 328.154 1373.36 328.6 1367.03C328.788 1364.35 328.971 1361.76 329.137 1359.29C329.694 1350.98 330.057 1344.15 329.837 1340.14C328.814 1321.52 325.77 1278.32 321.54 1233.93C317.308 1189.53 311.896 1144.02 306.146 1120.75C300.393 1097.48 290.586 1071.75 281.947 1050.26C280.018 1045.46 278.144 1040.87 276.388 1036.56C274.218 1031.24 272.227 1026.36 270.53 1022.07C267.469 1014.33 265.313 1008.39 264.785 1005.19C264.537 1003.69 263.62 1000.18 262.181 995.138C260.747 990.112 258.809 983.607 256.541 976.146C252.004 961.226 246.147 942.495 240.353 924.149C234.559 905.805 228.828 887.847 224.547 874.477C222.406 867.791 220.628 862.252 219.385 858.385C218.763 856.451 218.275 854.935 217.942 853.902C217.839 853.582 217.75 853.309 217.678 853.084L217.562 852.725C217.538 852.648 217.517 852.582 217.499 852.527L217.466 852.423C217.459 852.403 217.453 852.386 217.448 852.372C217.445 852.362 217.443 852.354 217.44 852.347C217.438 852.338 217.436 852.331 217.435 852.327C217.434 852.326 217.434 852.324 217.434 852.323C217.437 852.321 217.467 852.311 217.679 852.242L217.433 852.321L217.426 852.299L217.42 852.275L212.446 832.56L207.519 852.097C207.512 852.149 189.893 989.78 186.867 1008.14C185.549 1016.13 187.833 1032.69 190.55 1052.38C194.07 1077.88 198.314 1108.64 196.382 1132.81C194.528 1156 196.976 1194.95 199.287 1231.71C201.245 1262.85 203.104 1292.42 202.165 1309.51C201.94 1313.59 201.926 1320.33 201.909 1328.39C201.858 1352.41 201.783 1388.17 196.046 1400.53C185.352 1409.53 177.971 1425.58 170.856 1441.05C168.302 1446.6 165.782 1452.08 163.155 1457.13C153.212 1476.25 123.617 1503.34 105.19 1499.2C86.7633 1495.06 59.1306 1483.14 56.8359 1464.78C55.3155 1452.62 67.9018 1434.29 79.6729 1417.16C85.665 1408.43 91.4459 1400.02 95.0469 1392.88C95.0638 1392.83 98.3637 1383.83 99.79 1369.22C100.109 1365.06 100.314 1360.66 100.434 1356.17C100.46 1341.96 100.14 1323.99 99.9053 1312.9C99.7706 1308.61 99.669 1305.07 99.6689 1302.62C99.6689 1281.96 91.1004 1239.3 83.1885 1199.91C76.8304 1168.26 70.8966 1138.71 70.1748 1124.4C69.6558 1114.11 68.6844 1100.75 67.6035 1085.9C65.3107 1054.38 62.5264 1016.1 62.5264 985.954C62.5264 941.634 51.3514 893.497 51.3291 893.401C51.3291 893.4 51.3224 868.159 34.4951 843.683C33.7132 842.545 32.9035 841.383 32.0742 840.191C21.1135 824.447 6.68948 803.728 6.68945 771.018C6.68945 754.942 5.30983 730.882 3.81152 704.748C2.03048 673.683 0.0810837 639.686 0.0810547 612.684C0.081032 586.196 1.95636 556.452 3.70898 528.656C5.24612 504.278 6.68945 481.398 6.68945 463.528C6.68945 461.996 6.68568 460.35 6.68164 458.601C6.58491 416.689 6.34991 315.047 54.877 275.363C81.6973 253.431 102.881 248.086 119.437 243.909C134.086 240.213 145.112 237.431 153.212 224.88C162.497 210.493 163.793 198.299 163.012 190.105C153.383 175.04 147.922 153.136 141.354 125.055C127.902 67.5435 141.354 -0.000333695 213.101 -0.000976562ZM347.26 444.22C346.817 444.271 346.504 444.559 346.301 444.819C345.9 445.334 345.584 446.191 345.312 447.214C344.752 449.312 344.262 452.579 343.827 456.628C342.956 464.745 342.295 476.168 341.801 488.074C340.812 511.892 340.488 537.717 340.488 543.079C340.488 548.442 341.264 591.479 342.417 634.695C342.993 656.305 343.665 677.967 344.38 694.991C344.737 703.503 345.106 710.86 345.48 716.474C345.852 722.054 346.233 725.989 346.629 727.595C346.713 727.936 347.027 728.17 347.379 728.153C347.73 728.136 348.02 727.873 348.071 727.525L347.343 727.418L348.071 727.524C348.071 727.524 348.072 727.522 348.072 727.521C348.073 727.518 348.073 727.513 348.074 727.507C348.076 727.495 348.079 727.477 348.082 727.454C348.089 727.407 348.099 727.337 348.112 727.244C348.139 727.059 348.179 726.784 348.23 726.424C348.334 725.704 348.485 724.643 348.675 723.283C349.055 720.562 349.594 716.64 350.226 711.834C351.489 702.221 353.127 689.068 354.621 674.909C356.115 660.752 357.467 645.583 358.158 631.939C358.849 618.311 358.885 606.154 357.729 598.047C355.447 582.036 354.482 545.191 353.425 511.598C352.897 494.819 352.345 478.864 351.594 466.769C351.218 460.723 350.792 455.625 350.291 451.866C350.041 449.988 349.77 448.426 349.473 447.239C349.324 446.647 349.165 446.132 348.992 445.711C348.825 445.304 348.621 444.923 348.354 444.653C348.101 444.399 347.728 444.165 347.26 444.22ZM95.6924 420.915C90.3834 415.563 82.6895 508.884 82.6895 519.587C82.6893 530.292 70.4459 650.928 70.4482 702.176C70.4507 753.424 91.1025 614.213 103.342 557.61C115.581 501.008 101.001 426.268 95.6924 420.915Z"/>
</mask>
<path d="M213.101 -0.000976562C284.847 -0.000976562 298.818 67.5434 284.848 125.055C278.737 150.211 273.315 171.942 263.694 187.646C263.486 188.945 263.323 190.381 263.241 191.944C262.825 199.925 264.519 211.244 273.06 224.479C277.26 230.987 282.35 233.987 288.512 235.403C293.844 236.629 299.951 236.67 307.022 236.716C308.216 236.724 309.437 236.731 310.686 236.745C327.948 236.937 350.081 238.286 377.989 256.35C405.99 274.473 421.168 310.303 429.366 347.839C437.572 385.41 438.824 424.883 438.824 450.523V597.384C438.824 617.739 432.949 652.039 427.093 681.189C424.162 695.778 421.23 709.099 419.032 718.771C417.933 723.608 417.018 727.534 416.377 730.25C416.056 731.608 415.804 732.663 415.632 733.38C415.546 733.738 415.48 734.012 415.436 734.196C415.425 734.239 415.416 734.277 415.408 734.31C415.402 734.336 415.397 734.359 415.393 734.379C415.393 734.39 415.393 734.402 415.393 734.414C415.393 734.428 415.393 734.443 415.394 734.459L415.399 734.673C415.402 734.762 415.404 734.866 415.407 734.984C415.418 735.446 415.433 736.126 415.447 737.001C415.477 738.752 415.506 741.286 415.506 744.42C415.505 750.687 415.385 759.358 414.911 768.97C413.966 788.135 411.606 811.149 405.911 826.285C403.536 838.925 400.531 846.818 398.098 851.57C396.879 853.95 395.802 855.544 395.021 856.551C394.63 857.054 394.312 857.41 394.088 857.646C394.062 857.672 394.036 857.697 394.013 857.721C394.027 857.837 394.045 857.982 394.066 858.152L394.114 858.54C394.176 859.032 394.257 859.672 394.355 860.451C394.609 862.457 394.98 865.382 395.451 869.057C396.393 876.406 397.733 886.755 399.328 898.753C402.518 922.75 406.723 953.34 410.791 979.721C411.894 986.877 412.887 993.24 413.785 998.992C419.508 1035.66 421.356 1047.49 423.128 1081.53C423.681 1092.14 424.43 1117.76 425.364 1149.7C426.161 1176.95 427.094 1208.81 428.153 1239.9C429.305 1273.68 430.607 1306.55 432.052 1331.65C432.774 1344.2 433.531 1354.8 434.322 1362.59C434.718 1366.49 435.121 1369.67 435.53 1372.04C435.735 1373.23 435.939 1374.2 436.142 1374.95C436.349 1375.71 436.539 1376.18 436.689 1376.42C440.085 1381.7 449.97 1392.54 459.072 1402.12C463.61 1406.9 467.934 1411.34 471.123 1414.59C472.717 1416.22 474.029 1417.54 474.94 1418.46C475.396 1418.92 475.753 1419.28 475.995 1419.52L476.271 1419.8L476.379 1419.91L476.392 1419.92C480.437 1424.42 485.718 1428.01 491.372 1431.15C495.291 1433.32 499.351 1435.26 503.288 1437.14C505.044 1437.98 506.776 1438.81 508.459 1439.64C513.88 1442.32 518.808 1445.04 522.233 1448.28C525.688 1451.54 527.668 1455.4 527.058 1460.28C526.772 1462.57 526.558 1464.72 526.353 1466.77C526.147 1468.81 525.951 1470.76 525.701 1472.6C525.202 1476.28 524.486 1479.62 523.031 1482.69C520.098 1488.87 514.258 1493.74 501.777 1498.36C495.377 1500.73 487.095 1500.36 478.113 1498.34C469.112 1496.32 459.307 1492.61 449.799 1488.2C430.789 1479.39 412.849 1467.69 404.72 1460.75C400.807 1457.41 395.583 1455.25 389.541 1453.61C384.371 1452.21 378.662 1451.21 372.734 1450.17C371.734 1449.99 370.727 1449.81 369.715 1449.63C355.768 1447.15 340.946 1444.07 330.093 1434.74L329.972 1434.64L329.904 1434.49C327.919 1430.22 327.019 1423.15 326.729 1414.83C326.439 1406.47 326.764 1396.72 327.299 1387.01C327.674 1380.18 328.154 1373.36 328.6 1367.03C328.788 1364.35 328.971 1361.76 329.137 1359.29C329.694 1350.98 330.057 1344.15 329.837 1340.14C328.814 1321.52 325.77 1278.32 321.54 1233.93C317.308 1189.53 311.896 1144.02 306.146 1120.75C300.393 1097.48 290.586 1071.75 281.947 1050.26C280.018 1045.46 278.144 1040.87 276.388 1036.56C274.218 1031.24 272.227 1026.36 270.53 1022.07C267.469 1014.33 265.313 1008.39 264.785 1005.19C264.537 1003.69 263.62 1000.18 262.181 995.138C260.747 990.112 258.809 983.607 256.541 976.146C252.004 961.226 246.147 942.495 240.353 924.149C234.559 905.805 228.828 887.847 224.547 874.477C222.406 867.791 220.628 862.252 219.385 858.385C218.763 856.451 218.275 854.935 217.942 853.902C217.839 853.582 217.75 853.309 217.678 853.084L217.562 852.725C217.538 852.648 217.517 852.582 217.499 852.527L217.466 852.423C217.459 852.403 217.453 852.386 217.448 852.372C217.445 852.362 217.443 852.354 217.44 852.347C217.438 852.338 217.436 852.331 217.435 852.327C217.434 852.326 217.434 852.324 217.434 852.323C217.437 852.321 217.467 852.311 217.679 852.242L217.433 852.321L217.426 852.299L217.42 852.275L212.446 832.56L207.519 852.097C207.512 852.149 189.893 989.78 186.867 1008.14C185.549 1016.13 187.833 1032.69 190.55 1052.38C194.07 1077.88 198.314 1108.64 196.382 1132.81C194.528 1156 196.976 1194.95 199.287 1231.71C201.245 1262.85 203.104 1292.42 202.165 1309.51C201.94 1313.59 201.926 1320.33 201.909 1328.39C201.858 1352.41 201.783 1388.17 196.046 1400.53C185.352 1409.53 177.971 1425.58 170.856 1441.05C168.302 1446.6 165.782 1452.08 163.155 1457.13C153.212 1476.25 123.617 1503.34 105.19 1499.2C86.7633 1495.06 59.1306 1483.14 56.8359 1464.78C55.3155 1452.62 67.9018 1434.29 79.6729 1417.16C85.665 1408.43 91.4459 1400.02 95.0469 1392.88C95.0638 1392.83 98.3637 1383.83 99.79 1369.22C100.109 1365.06 100.314 1360.66 100.434 1356.17C100.46 1341.96 100.14 1323.99 99.9053 1312.9C99.7706 1308.61 99.669 1305.07 99.6689 1302.62C99.6689 1281.96 91.1004 1239.3 83.1885 1199.91C76.8304 1168.26 70.8966 1138.71 70.1748 1124.4C69.6558 1114.11 68.6844 1100.75 67.6035 1085.9C65.3107 1054.38 62.5264 1016.1 62.5264 985.954C62.5264 941.634 51.3514 893.497 51.3291 893.401C51.3291 893.4 51.3224 868.159 34.4951 843.683C33.7132 842.545 32.9035 841.383 32.0742 840.191C21.1135 824.447 6.68948 803.728 6.68945 771.018C6.68945 754.942 5.30983 730.882 3.81152 704.748C2.03048 673.683 0.0810837 639.686 0.0810547 612.684C0.081032 586.196 1.95636 556.452 3.70898 528.656C5.24612 504.278 6.68945 481.398 6.68945 463.528C6.68945 461.996 6.68568 460.35 6.68164 458.601C6.58491 416.689 6.34991 315.047 54.877 275.363C81.6973 253.431 102.881 248.086 119.437 243.909C134.086 240.213 145.112 237.431 153.212 224.88C162.497 210.493 163.793 198.299 163.012 190.105C153.383 175.04 147.922 153.136 141.354 125.055C127.902 67.5435 141.354 -0.000333695 213.101 -0.000976562ZM347.26 444.22C346.817 444.271 346.504 444.559 346.301 444.819C345.9 445.334 345.584 446.191 345.312 447.214C344.752 449.312 344.262 452.579 343.827 456.628C342.956 464.745 342.295 476.168 341.801 488.074C340.812 511.892 340.488 537.717 340.488 543.079C340.488 548.442 341.264 591.479 342.417 634.695C342.993 656.305 343.665 677.967 344.38 694.991C344.737 703.503 345.106 710.86 345.48 716.474C345.852 722.054 346.233 725.989 346.629 727.595C346.713 727.936 347.027 728.17 347.379 728.153C347.73 728.136 348.02 727.873 348.071 727.525L347.343 727.418L348.071 727.524C348.071 727.524 348.072 727.522 348.072 727.521C348.073 727.518 348.073 727.513 348.074 727.507C348.076 727.495 348.079 727.477 348.082 727.454C348.089 727.407 348.099 727.337 348.112 727.244C348.139 727.059 348.179 726.784 348.23 726.424C348.334 725.704 348.485 724.643 348.675 723.283C349.055 720.562 349.594 716.64 350.226 711.834C351.489 702.221 353.127 689.068 354.621 674.909C356.115 660.752 357.467 645.583 358.158 631.939C358.849 618.311 358.885 606.154 357.729 598.047C355.447 582.036 354.482 545.191 353.425 511.598C352.897 494.819 352.345 478.864 351.594 466.769C351.218 460.723 350.792 455.625 350.291 451.866C350.041 449.988 349.77 448.426 349.473 447.239C349.324 446.647 349.165 446.132 348.992 445.711C348.825 445.304 348.621 444.923 348.354 444.653C348.101 444.399 347.728 444.165 347.26 444.22ZM95.6924 420.915C90.3834 415.563 82.6895 508.884 82.6895 519.587C82.6893 530.292 70.4459 650.928 70.4482 702.176C70.4507 753.424 91.1025 614.213 103.342 557.61C115.581 501.008 101.001 426.268 95.6924 420.915Z" fill="url(#paint0_linear_1503_32835)" fill-opacity="0.6"/>
<path d="M213.101 -0.000976562V-6.00098H213.101L213.101 -0.000976562ZM284.848 125.055L290.678 126.471V126.471L284.848 125.055ZM263.694 187.646L258.578 184.511L257.959 185.522L257.77 186.694L263.694 187.646ZM263.241 191.944L257.249 191.631L257.249 191.632L263.241 191.944ZM273.06 224.479L268.018 227.732L268.018 227.732L273.06 224.479ZM288.512 235.403L287.167 241.251L287.167 241.251L288.512 235.403ZM307.022 236.716L307.062 230.716L307.022 236.716ZM310.686 236.745L310.752 230.745H310.752L310.686 236.745ZM377.989 256.35L381.249 251.313L381.249 251.313L377.989 256.35ZM429.366 347.839L435.228 346.559V346.559L429.366 347.839ZM438.824 450.523H444.824H438.824ZM427.093 681.189L432.975 682.371L427.093 681.189ZM419.032 718.771L424.883 720.101V720.101L419.032 718.771ZM416.377 730.25L422.216 731.629L416.377 730.25ZM415.632 733.38L421.466 734.779L421.466 734.779L415.632 733.38ZM415.436 734.196L421.268 735.606L421.268 735.605L415.436 734.196ZM415.408 734.31L421.252 735.669L421.253 735.665L415.408 734.31ZM415.393 734.379L409.56 732.97L409.372 733.749L409.395 734.549L415.393 734.379ZM415.393 734.414L421.393 734.388V734.385L415.393 734.414ZM415.394 734.459L409.396 734.617L409.396 734.623L415.394 734.459ZM415.399 734.673L421.397 734.513L421.397 734.509L415.399 734.673ZM415.407 734.984L421.406 734.841V734.841L415.407 734.984ZM415.447 737.001L409.448 737.101V737.101L415.447 737.001ZM415.506 744.42L421.506 744.421V744.421L415.506 744.42ZM414.911 768.97L420.904 769.265L414.911 768.97ZM405.911 826.285L400.295 824.172L400.111 824.662L400.014 825.177L405.911 826.285ZM398.098 851.57L403.438 854.305L403.438 854.305L398.098 851.57ZM395.021 856.551L399.76 860.23L399.76 860.23L395.021 856.551ZM394.088 857.646L398.425 861.792L398.427 861.789L394.088 857.646ZM394.013 857.721L389.728 853.521L387.699 855.591L388.059 858.466L394.013 857.721ZM394.066 858.152L400.021 857.417L400.02 857.405L394.066 858.152ZM394.114 858.54L388.159 859.275L388.161 859.287L394.114 858.54ZM394.355 860.451L388.403 861.203V861.203L394.355 860.451ZM395.451 869.057L389.5 869.819V869.819L395.451 869.057ZM399.328 898.753L405.276 897.962L399.328 898.753ZM410.791 979.721L404.861 980.635L410.791 979.721ZM413.785 998.992L407.857 999.918L413.785 998.992ZM423.128 1081.53L429.12 1081.21L423.128 1081.53ZM425.364 1149.7L431.362 1149.53L425.364 1149.7ZM428.153 1239.9L434.15 1239.69L428.153 1239.9ZM432.052 1331.65L438.042 1331.31L432.052 1331.65ZM434.322 1362.59L428.353 1363.2L434.322 1362.59ZM435.53 1372.04L441.443 1371.02L441.443 1371.02L435.53 1372.04ZM436.142 1374.95L430.35 1376.51V1376.51L436.142 1374.95ZM436.689 1376.42L431.642 1379.66L431.642 1379.66L436.689 1376.42ZM459.072 1402.12L454.722 1406.26L459.072 1402.12ZM471.123 1414.59L466.841 1418.8L466.841 1418.8L471.123 1414.59ZM474.94 1418.46L470.68 1422.69L470.681 1422.69L474.94 1418.46ZM475.995 1419.52L471.744 1423.76L471.745 1423.76L475.995 1419.52ZM476.271 1419.8L472.02 1424.03L472.028 1424.04L476.271 1419.8ZM476.379 1419.91L480.913 1415.98L480.773 1415.82L480.622 1415.67L476.379 1419.91ZM476.392 1419.92L471.857 1423.85L471.893 1423.89L471.929 1423.93L476.392 1419.92ZM491.372 1431.15L488.461 1436.39H488.461L491.372 1431.15ZM503.288 1437.14L505.875 1431.73L503.288 1437.14ZM508.459 1439.64L505.803 1445.02H505.803L508.459 1439.64ZM522.233 1448.28L526.356 1443.92L526.356 1443.92L522.233 1448.28ZM527.058 1460.28L533.011 1461.03V1461.03L527.058 1460.28ZM526.353 1466.77L532.323 1467.37V1467.37L526.353 1466.77ZM525.701 1472.6L531.647 1473.4L531.647 1473.4L525.701 1472.6ZM523.031 1482.69L528.452 1485.26L528.452 1485.26L523.031 1482.69ZM501.777 1498.36L503.86 1503.99H503.86L501.777 1498.36ZM478.113 1498.34L476.797 1504.19L476.797 1504.19L478.113 1498.34ZM449.799 1488.2L447.274 1493.65L449.799 1488.2ZM404.72 1460.75L400.825 1465.31H400.825L404.72 1460.75ZM389.541 1453.61L391.111 1447.82H391.111L389.541 1453.61ZM372.734 1450.17L373.772 1444.26L372.734 1450.17ZM369.715 1449.63L368.664 1455.54H368.664L369.715 1449.63ZM330.093 1434.74L334.004 1430.19L333.997 1430.19L333.991 1430.18L330.093 1434.74ZM329.972 1434.64L324.534 1437.17L325.084 1438.35L326.073 1439.2L329.972 1434.64ZM329.904 1434.49L324.462 1437.02L324.466 1437.03L329.904 1434.49ZM326.729 1414.83L320.733 1415.04V1415.04L326.729 1414.83ZM327.299 1387.01L333.29 1387.34L327.299 1387.01ZM328.6 1367.03L334.585 1367.46L328.6 1367.03ZM329.137 1359.29L323.15 1358.89L329.137 1359.29ZM329.837 1340.14L323.846 1340.47L329.837 1340.14ZM321.54 1233.93L327.513 1233.36L321.54 1233.93ZM306.146 1120.75L311.97 1119.31L306.146 1120.75ZM281.947 1050.26L276.38 1052.5L281.947 1050.26ZM276.388 1036.56L281.943 1034.3V1034.3L276.388 1036.56ZM270.53 1022.07L276.11 1019.86L270.53 1022.07ZM264.785 1005.19L270.705 1004.22L270.705 1004.22L264.785 1005.19ZM262.181 995.138L267.951 993.492L267.95 993.492L262.181 995.138ZM256.541 976.146L262.282 974.401L256.541 976.146ZM240.353 924.149L234.631 925.956L240.353 924.149ZM224.547 874.477L230.261 872.647L224.547 874.477ZM219.385 858.385L225.097 856.548L219.385 858.385ZM217.942 853.902L223.654 852.063L223.654 852.063L217.942 853.902ZM217.678 853.084L211.964 854.916L211.968 854.927L217.678 853.084ZM217.562 852.725L223.276 850.893L223.273 850.884L217.562 852.725ZM217.499 852.527L211.781 854.344L211.783 854.352L217.499 852.527ZM217.466 852.423L223.184 850.606L223.18 850.593L223.176 850.579L217.466 852.423ZM217.448 852.372L211.766 854.297L211.766 854.299L217.448 852.372ZM217.44 852.347L211.727 854.178L211.728 854.181L217.44 852.347ZM217.435 852.327L211.718 854.148L211.721 854.158L211.724 854.169L217.435 852.327ZM217.434 852.323L214.639 847.014L210.28 849.309L211.682 854.031L217.434 852.323ZM217.679 852.242L219.536 857.948L215.843 846.53L217.679 852.242ZM217.433 852.321L211.693 854.068L213.467 859.898L219.269 858.033L217.433 852.321ZM217.426 852.299L211.605 853.754L211.642 853.901L211.686 854.046L217.426 852.299ZM217.42 852.275L223.241 850.82L223.238 850.808L217.42 852.275ZM212.446 832.56L218.264 831.092L206.628 831.092L212.446 832.56ZM207.519 852.097L201.701 850.629L201.613 850.978L201.567 851.335L207.519 852.097ZM186.867 1008.14L192.787 1009.11L186.867 1008.14ZM190.55 1052.38L196.493 1051.56L190.55 1052.38ZM196.382 1132.81L202.363 1133.29L196.382 1132.81ZM199.287 1231.71L193.299 1232.08L199.287 1231.71ZM202.165 1309.51L208.156 1309.84L202.165 1309.51ZM201.909 1328.39L195.909 1328.38L201.909 1328.39ZM196.046 1400.53L199.911 1405.12L200.929 1404.26L201.489 1403.05L196.046 1400.53ZM170.856 1441.05L176.307 1443.56H176.307L170.856 1441.05ZM163.155 1457.13L168.479 1459.9L163.155 1457.13ZM105.19 1499.2L103.875 1505.06H103.875L105.19 1499.2ZM56.8359 1464.78L50.8823 1465.52L50.8823 1465.52L56.8359 1464.78ZM79.6729 1417.16L74.7273 1413.76H74.7273L79.6729 1417.16ZM95.0469 1392.88L100.404 1395.58L100.56 1395.27L100.679 1394.95L95.0469 1392.88ZM99.79 1369.22L105.762 1369.8L105.768 1369.74L105.772 1369.68L99.79 1369.22ZM100.434 1356.17L106.431 1356.33L106.433 1356.25L106.434 1356.18L100.434 1356.17ZM99.9053 1312.9L105.904 1312.77L105.903 1312.74L105.902 1312.71L99.9053 1312.9ZM99.6689 1302.62H93.6689H99.6689ZM83.1885 1199.91L77.306 1201.09L83.1885 1199.91ZM70.1748 1124.4L76.1672 1124.1L70.1748 1124.4ZM67.6035 1085.9L73.5877 1085.46L67.6035 1085.9ZM62.5264 985.954H56.5264H62.5264ZM51.3291 893.401L45.3291 893.403L45.3293 894.09L45.4847 894.759L51.3291 893.401ZM34.4951 843.683L39.4394 840.283H39.4394L34.4951 843.683ZM32.0742 840.191L36.9985 836.763L36.9985 836.763L32.0742 840.191ZM6.68945 771.018H0.689453H6.68945ZM3.81152 704.748L9.80169 704.405L3.81152 704.748ZM0.0810547 612.684H-5.91895H0.0810547ZM3.70898 528.656L-2.27912 528.279L3.70898 528.656ZM6.68945 463.528H12.6895H6.68945ZM6.68164 458.601L0.681657 458.614L6.68164 458.601ZM54.877 275.363L51.0787 270.719L51.0787 270.719L54.877 275.363ZM119.437 243.909L120.904 249.727L119.437 243.909ZM153.212 224.88L158.253 228.133L158.253 228.133L153.212 224.88ZM163.012 190.105L168.985 189.536L168.847 188.094L168.067 186.874L163.012 190.105ZM141.354 125.055L135.511 126.421V126.421L141.354 125.055ZM347.26 444.22L346.565 438.26L346.563 438.26L347.26 444.22ZM346.301 444.819L341.568 441.132L341.567 441.133L346.301 444.819ZM345.312 447.214L339.514 445.669L339.514 445.669L345.312 447.214ZM343.827 456.628L337.861 455.988L343.827 456.628ZM341.801 488.074L335.806 487.825L341.801 488.074ZM340.488 543.079H334.488H340.488ZM342.417 634.695L336.419 634.855L342.417 634.695ZM344.38 694.991L338.385 695.243L344.38 694.991ZM345.48 716.474L339.494 716.872L345.48 716.474ZM346.629 727.595L340.803 729.031L340.804 729.033L346.629 727.595ZM347.379 728.153L347.667 734.146L347.671 734.146L347.379 728.153ZM348.071 727.525L354.008 728.397L354.879 722.464L348.947 721.59L348.071 727.525ZM347.343 727.418L348.21 721.481L346.468 733.354L347.343 727.418ZM348.071 727.524L347.204 733.461L352.882 734.291L353.964 728.655L348.071 727.524ZM348.072 727.521L354.009 728.389L354.009 728.387L348.072 727.521ZM348.074 727.507L342.137 726.639L342.137 726.639L348.074 727.507ZM348.082 727.454L354.019 728.32V728.32L348.082 727.454ZM348.112 727.244L354.05 728.105L348.112 727.244ZM348.23 726.424L354.17 727.276V727.276L348.23 726.424ZM348.675 723.283L354.617 724.114L348.675 723.283ZM350.226 711.834L356.174 712.616L350.226 711.834ZM354.621 674.909L360.588 675.539L354.621 674.909ZM358.158 631.939L364.151 632.243L358.158 631.939ZM357.729 598.047L363.669 597.2L357.729 598.047ZM353.425 511.598L359.422 511.409L353.425 511.598ZM351.594 466.769L357.582 466.396L351.594 466.769ZM350.291 451.866L356.238 451.074L350.291 451.866ZM349.473 447.239L355.293 445.781L355.293 445.781L349.473 447.239ZM348.992 445.711L354.543 443.434L354.543 443.433L348.992 445.711ZM348.354 444.653L352.614 440.428L352.613 440.427L348.354 444.653ZM95.6924 420.915L99.9523 416.69L99.952 416.689L95.6924 420.915ZM82.6895 519.587L88.6895 519.587V519.587H82.6895ZM70.4482 702.176L64.4482 702.176L70.4482 702.176ZM103.342 557.61L109.206 558.878L103.342 557.61ZM213.101 -0.000976562V5.99902C230.072 5.99902 243.224 9.98287 253.285 16.4896C263.349 22.9979 270.68 32.2627 275.636 43.3997C285.63 65.8544 285.814 95.6557 279.017 123.638L284.848 125.055L290.678 126.471C297.851 96.9424 298.035 64.2158 286.6 38.5205C280.841 25.5826 272.1 14.3667 259.802 6.41325C247.502 -1.54177 232.002 -6.00098 213.101 -6.00098V-0.000976562ZM284.848 125.055L279.017 123.638C272.837 149.083 267.604 169.778 258.578 184.511L263.694 187.646L268.811 190.78C279.026 174.106 284.637 151.34 290.678 126.471L284.848 125.055ZM263.694 187.646L257.77 186.694C257.529 188.195 257.343 189.845 257.249 191.631L263.241 191.944L269.233 192.257C269.303 190.918 269.442 189.695 269.618 188.598L263.694 187.646ZM263.241 191.944L257.249 191.632C256.769 200.84 258.777 213.412 268.018 227.732L273.06 224.479L278.101 221.225C270.261 209.077 268.88 199.01 269.233 192.257L263.241 191.944ZM273.06 224.479L268.018 227.732C273.14 235.668 279.621 239.516 287.167 241.251L288.512 235.403L289.856 229.556C285.079 228.457 281.38 226.306 278.101 221.225L273.06 224.479ZM288.512 235.403L287.167 241.251C293.274 242.655 300.104 242.671 306.983 242.716L307.022 236.716L307.062 230.716C299.799 230.668 294.413 230.604 289.856 229.556L288.512 235.403ZM307.022 236.716L306.983 242.716C308.18 242.724 309.386 242.731 310.619 242.745L310.686 236.745L310.752 230.745C309.487 230.731 308.251 230.724 307.062 230.716L307.022 236.716ZM310.686 236.745L310.619 242.745C327.325 242.931 348.163 244.192 374.729 261.387L377.989 256.35L381.249 251.313C351.999 232.381 328.571 230.944 310.752 230.745L310.686 236.745ZM377.989 256.35L374.729 261.387C400.638 278.156 415.382 311.927 423.504 349.119L429.366 347.839L435.228 346.559C426.955 308.68 411.342 270.79 381.249 251.313L377.989 256.35ZM429.366 347.839L423.504 349.119C431.571 386.054 432.824 425.015 432.824 450.523H438.824H444.824C444.824 424.752 443.573 384.766 435.228 346.559L429.366 347.839ZM438.824 450.523H432.824V597.384H438.824H444.824V450.523H438.824ZM438.824 597.384H432.824C432.824 617.045 427.085 650.767 421.21 680.008L427.093 681.189L432.975 682.371C438.814 653.311 444.824 618.432 444.824 597.384H438.824ZM427.093 681.189L421.21 680.008C418.292 694.533 415.372 707.803 413.181 717.442L419.032 718.771L424.883 720.101C427.089 710.394 430.032 697.022 432.975 682.371L427.093 681.189ZM419.032 718.771L413.181 717.442C412.086 722.261 411.175 726.171 410.537 728.871L416.377 730.25L422.216 731.629C422.861 728.897 423.78 724.955 424.883 720.101L419.032 718.771ZM416.377 730.25L410.537 728.871C410.219 730.219 409.968 731.267 409.797 731.981L415.632 733.38L421.466 734.779C421.639 734.06 421.894 732.996 422.216 731.629L416.377 730.25ZM415.632 733.38L409.797 731.981C409.712 732.337 409.647 732.608 409.603 732.788L415.436 734.196L421.268 735.605C421.313 735.416 421.38 735.138 421.466 734.779L415.632 733.38ZM415.436 734.196L409.603 732.787C409.602 732.791 409.601 732.797 409.599 732.806C409.597 732.812 409.594 732.827 409.591 732.838C409.585 732.861 409.575 732.904 409.563 732.954L415.408 734.31L421.253 735.665C421.251 735.675 421.249 735.681 421.249 735.682C421.249 735.683 421.249 735.681 421.251 735.675C421.253 735.667 421.254 735.662 421.257 735.649C421.26 735.637 421.264 735.622 421.268 735.606L415.436 734.196ZM415.408 734.31L409.564 732.95C409.557 732.98 409.551 733.006 409.547 733.024C409.545 733.033 409.544 733.041 409.542 733.047C409.542 733.05 409.541 733.052 409.541 733.054C409.541 733.055 409.54 733.056 409.54 733.057C409.54 733.057 409.54 733.058 409.54 733.058C409.539 733.061 409.54 733.06 409.54 733.058C409.54 733.056 409.542 733.051 409.543 733.044C409.545 733.037 409.547 733.027 409.55 733.015C409.552 733.003 409.556 732.988 409.56 732.97L415.393 734.379L421.225 735.788C421.236 735.743 421.244 735.706 421.249 735.683C421.254 735.66 421.259 735.64 421.26 735.635C421.262 735.625 421.261 735.629 421.26 735.633C421.259 735.639 421.256 735.652 421.252 735.669L415.408 734.31ZM415.393 734.379L409.395 734.549C409.393 734.488 409.393 734.438 409.393 734.407C409.393 734.377 409.393 734.354 409.393 734.349C409.393 734.347 409.393 734.344 409.393 734.348C409.393 734.35 409.393 734.356 409.393 734.363C409.393 734.378 409.392 734.407 409.393 734.443L415.393 734.414L421.393 734.385C421.393 734.415 421.393 734.437 421.392 734.446C421.392 734.451 421.392 734.454 421.392 734.453C421.392 734.453 421.392 734.453 421.392 734.452C421.392 734.451 421.392 734.451 421.392 734.45C421.392 734.448 421.392 734.446 421.392 734.442C421.393 734.432 421.393 734.403 421.393 734.367C421.393 734.33 421.392 734.275 421.39 734.208L415.393 734.379ZM415.393 734.414L409.393 734.44C409.393 734.505 409.394 734.558 409.395 734.583C409.395 734.596 409.395 734.608 409.396 734.612C409.396 734.619 409.396 734.618 409.396 734.617L415.394 734.459L421.391 734.301C421.391 734.292 421.391 734.283 421.391 734.282C421.391 734.279 421.391 734.283 421.391 734.289C421.391 734.298 421.392 734.337 421.393 734.388L415.393 734.414ZM415.394 734.459L409.396 734.623L409.402 734.837L415.399 734.673L421.397 734.509L421.391 734.295L415.394 734.459ZM415.399 734.673L409.402 734.833C409.404 734.915 409.406 735.013 409.409 735.128L415.407 734.984L421.406 734.841C421.403 734.719 421.4 734.609 421.397 734.513L415.399 734.673ZM415.407 734.984L409.409 735.128C409.42 735.573 409.434 736.239 409.448 737.101L415.447 737.001L421.446 736.901C421.432 736.012 421.417 735.318 421.406 734.841L415.407 734.984ZM415.447 737.001L409.448 737.101C409.477 738.823 409.506 741.323 409.506 744.419L415.506 744.42L421.506 744.421C421.506 741.249 421.476 738.681 421.446 736.901L415.447 737.001ZM415.506 744.42L409.506 744.419C409.505 750.616 409.387 759.185 408.918 768.674L414.911 768.97L420.904 769.265C421.384 759.532 421.505 750.759 421.506 744.421L415.506 744.42ZM414.911 768.97L408.918 768.674C407.973 787.842 405.626 810.005 400.295 824.172L405.911 826.285L411.527 828.398C417.586 812.294 419.958 788.428 420.904 769.265L414.911 768.97ZM405.911 826.285L400.014 825.177C397.723 837.37 394.878 844.694 392.757 848.836L398.098 851.57L403.438 854.305C406.184 848.942 409.349 840.48 411.808 827.393L405.911 826.285ZM398.098 851.57L392.757 848.836C391.697 850.906 390.818 852.18 390.281 852.871L395.021 856.551L399.76 860.23C400.786 858.908 402.061 856.995 403.438 854.305L398.098 851.57ZM395.021 856.551L390.281 852.871C390.015 853.214 389.831 853.416 389.749 853.502L394.088 857.646L398.427 861.789C398.794 861.405 399.245 860.893 399.76 860.23L395.021 856.551ZM394.088 857.646L389.751 853.499C389.781 853.468 389.805 853.444 389.82 853.429C389.827 853.421 389.833 853.415 389.837 853.412C389.84 853.408 389.842 853.406 389.842 853.407C389.841 853.407 389.841 853.408 389.839 853.409C389.838 853.41 389.836 853.413 389.834 853.415C389.829 853.419 389.822 853.427 389.812 853.436C389.803 853.445 389.791 853.457 389.777 853.471C389.763 853.485 389.747 853.502 389.728 853.521L394.013 857.721L398.298 861.921C398.273 861.946 398.254 861.965 398.249 861.97C398.246 861.973 398.244 861.974 398.246 861.972C398.247 861.971 398.248 861.971 398.25 861.969C398.252 861.967 398.254 861.964 398.257 861.962C398.268 861.951 398.29 861.929 398.317 861.902C398.345 861.874 398.382 861.836 398.425 861.792L394.088 857.646ZM394.013 857.721L388.059 858.466C388.067 858.526 388.096 858.763 388.113 858.9L394.066 858.152L400.02 857.405C399.994 857.2 399.988 857.148 399.966 856.975L394.013 857.721ZM394.066 858.152L388.112 858.887L388.159 859.275L394.114 858.54L400.069 857.805L400.021 857.417L394.066 858.152ZM394.114 858.54L388.161 859.287C388.223 859.782 388.305 860.428 388.403 861.203L394.355 860.451L400.308 859.699C400.209 858.917 400.129 858.282 400.068 857.793L394.114 858.54ZM394.355 860.451L388.403 861.203C388.657 863.213 389.029 866.141 389.5 869.819L395.451 869.057L401.402 868.294C400.932 864.623 400.561 861.702 400.308 859.699L394.355 860.451ZM395.451 869.057L389.5 869.819C390.443 877.176 391.784 887.535 393.38 899.543L399.328 898.753L405.276 897.962C403.683 885.976 402.343 875.636 401.402 868.294L395.451 869.057ZM399.328 898.753L393.38 899.543C396.572 923.554 400.784 954.192 404.861 980.635L410.791 979.721L416.721 978.806C412.663 952.487 408.463 921.945 405.276 897.962L399.328 898.753ZM410.791 979.721L404.861 980.635C405.965 987.797 406.959 994.165 407.857 999.918L413.785 998.992L419.713 998.067C418.816 992.315 417.823 985.956 416.721 978.806L410.791 979.721ZM413.785 998.992L407.857 999.918C413.569 1036.51 415.38 1048.11 417.136 1081.84L423.128 1081.53L429.12 1081.21C427.332 1046.88 425.448 1034.8 419.713 998.067L413.785 998.992ZM423.128 1081.53L417.136 1081.84C417.684 1092.37 418.431 1117.88 419.367 1149.88L425.364 1149.7L431.362 1149.53C430.429 1117.63 429.677 1091.92 429.12 1081.21L423.128 1081.53ZM425.364 1149.7L419.367 1149.88C420.164 1177.13 421.097 1209 422.157 1240.1L428.153 1239.9L434.15 1239.69C433.091 1208.62 432.159 1176.78 431.362 1149.53L425.364 1149.7ZM428.153 1239.9L422.157 1240.1C423.308 1273.89 424.613 1306.82 426.062 1332L432.052 1331.65L438.042 1331.31C436.602 1306.28 435.301 1273.46 434.15 1239.69L428.153 1239.9ZM432.052 1331.65L426.062 1332C426.785 1344.58 427.549 1355.28 428.353 1363.2L434.322 1362.59L440.292 1361.99C439.514 1354.33 438.763 1343.83 438.042 1331.31L432.052 1331.65ZM434.322 1362.59L428.353 1363.2C428.754 1367.15 429.174 1370.49 429.618 1373.06L435.53 1372.04L441.443 1371.02C441.068 1368.85 440.682 1365.83 440.292 1361.99L434.322 1362.59ZM435.53 1372.04L429.618 1373.06C429.839 1374.34 430.08 1375.51 430.35 1376.51L436.142 1374.95L441.933 1373.38C441.798 1372.88 441.631 1372.11 441.443 1371.02L435.53 1372.04ZM436.142 1374.95L430.35 1376.51C430.582 1377.37 430.962 1378.6 431.642 1379.66L436.689 1376.42L441.737 1373.17C441.809 1373.28 441.863 1373.38 441.902 1373.45C441.942 1373.52 441.971 1373.58 441.991 1373.63C442.012 1373.67 442.026 1373.7 442.034 1373.72C442.038 1373.73 442.041 1373.74 442.043 1373.74C442.045 1373.75 442.046 1373.75 442.046 1373.75C442.046 1373.75 442.043 1373.74 442.037 1373.73C442.031 1373.71 442.023 1373.68 442.013 1373.65C441.993 1373.59 441.966 1373.5 441.933 1373.38L436.142 1374.95ZM436.689 1376.42L431.642 1379.66C435.416 1385.53 445.777 1396.84 454.722 1406.26L459.072 1402.12L463.422 1397.99C454.163 1388.24 444.754 1377.87 441.737 1373.17L436.689 1376.42ZM459.072 1402.12L454.722 1406.26C459.289 1411.06 463.637 1415.53 466.841 1418.8L471.123 1414.59L475.405 1410.39C472.231 1407.16 467.931 1402.74 463.422 1397.99L459.072 1402.12ZM471.123 1414.59L466.841 1418.8C468.444 1420.43 469.763 1421.76 470.68 1422.69L474.94 1418.46L479.2 1414.24C478.294 1413.32 476.99 1412 475.405 1410.39L471.123 1414.59ZM474.94 1418.46L470.681 1422.69C471.139 1423.15 471.498 1423.51 471.744 1423.76L475.995 1419.52L480.246 1415.29C480.008 1415.05 479.654 1414.69 479.2 1414.24L474.94 1418.46ZM475.995 1419.52L471.745 1423.76L472.02 1424.03L476.271 1419.8L480.521 1415.56L480.245 1415.29L475.995 1419.52ZM476.271 1419.8L472.028 1424.04L472.136 1424.15L476.379 1419.91L480.622 1415.67L480.513 1415.56L476.271 1419.8ZM476.379 1419.91L471.845 1423.84L471.857 1423.85L476.392 1419.92L480.926 1415.99L480.913 1415.98L476.379 1419.91ZM476.392 1419.92L471.929 1423.93C476.616 1429.15 482.554 1433.12 488.461 1436.39L491.372 1431.15L494.284 1425.9C488.882 1422.9 484.258 1419.7 480.854 1415.91L476.392 1419.92ZM491.372 1431.15L488.461 1436.39C492.565 1438.67 496.79 1440.69 500.701 1442.56L503.288 1437.14L505.875 1431.73C501.911 1429.84 498.016 1427.97 494.284 1425.9L491.372 1431.15ZM503.288 1437.14L500.701 1442.56C502.465 1443.4 504.16 1444.21 505.803 1445.02L508.459 1439.64L511.115 1434.26C509.391 1433.41 507.623 1432.57 505.875 1431.73L503.288 1437.14ZM508.459 1439.64L505.803 1445.02C511.234 1447.7 515.411 1450.08 518.111 1452.64L522.233 1448.28L526.356 1443.92C522.205 1439.99 516.527 1436.93 511.115 1434.26L508.459 1439.64ZM522.233 1448.28L518.111 1452.64C520.597 1454.99 521.414 1457.06 521.104 1459.54L527.058 1460.28L533.011 1461.03C533.922 1453.74 530.779 1448.1 526.356 1443.92L522.233 1448.28ZM527.058 1460.28L521.104 1459.54C520.808 1461.91 520.587 1464.13 520.383 1466.17L526.353 1466.77L532.323 1467.37C532.529 1465.31 532.736 1463.22 533.011 1461.03L527.058 1460.28ZM526.353 1466.77L520.383 1466.17C520.176 1468.23 519.989 1470.07 519.755 1471.79L525.701 1472.6L531.647 1473.4C531.913 1471.44 532.119 1469.39 532.323 1467.37L526.353 1466.77ZM525.701 1472.6L519.755 1471.79C519.288 1475.25 518.675 1477.87 517.611 1480.11L523.031 1482.69L528.452 1485.26C530.297 1481.37 531.116 1477.32 531.647 1473.4L525.701 1472.6ZM523.031 1482.69L517.611 1480.11C515.651 1484.24 511.537 1488.35 499.695 1492.73L501.777 1498.36L503.86 1503.99C516.979 1499.13 524.545 1493.49 528.452 1485.26L523.031 1482.69ZM501.777 1498.36L499.695 1492.73C494.916 1494.5 488.007 1494.41 479.429 1492.49L478.113 1498.34L476.797 1504.19C486.183 1506.3 495.838 1506.96 503.86 1503.99L501.777 1498.36ZM478.113 1498.34L479.429 1492.49C470.99 1490.59 461.609 1487.07 452.324 1482.76L449.799 1488.2L447.274 1493.65C457.005 1498.16 467.234 1502.04 476.797 1504.19L478.113 1498.34ZM449.799 1488.2L452.324 1482.76C433.697 1474.12 416.245 1462.7 408.614 1456.19L404.72 1460.75L400.825 1465.31C409.453 1472.68 427.881 1484.65 447.274 1493.65L449.799 1488.2ZM404.72 1460.75L408.614 1456.19C403.714 1452 397.494 1449.55 391.111 1447.82L389.541 1453.61L387.971 1459.4C393.672 1460.95 397.901 1462.82 400.825 1465.31L404.72 1460.75ZM389.541 1453.61L391.111 1447.82C385.628 1446.33 379.636 1445.29 373.772 1444.26L372.734 1450.17L371.697 1456.07C377.688 1457.13 383.114 1458.08 387.971 1459.4L389.541 1453.61ZM372.734 1450.17L373.772 1444.26C372.773 1444.08 371.771 1443.9 370.766 1443.72L369.715 1449.63L368.664 1455.54C369.682 1455.72 370.694 1455.9 371.697 1456.07L372.734 1450.17ZM369.715 1449.63L370.766 1443.72C356.635 1441.21 343.44 1438.3 334.004 1430.19L330.093 1434.74L326.182 1439.29C338.452 1449.84 354.901 1453.09 368.664 1455.54L369.715 1449.63ZM330.093 1434.74L333.991 1430.18L333.87 1430.08L329.972 1434.64L326.073 1439.2L326.194 1439.3L330.093 1434.74ZM329.972 1434.64L335.41 1432.1L335.342 1431.96L329.904 1434.49L324.466 1437.03L324.534 1437.17L329.972 1434.64ZM329.904 1434.49L335.347 1431.97C333.927 1428.91 333.016 1422.96 332.726 1414.62L326.729 1414.83L320.733 1415.04C321.022 1423.34 321.912 1431.52 324.462 1437.02L329.904 1434.49ZM326.729 1414.83L332.726 1414.62C332.445 1406.53 332.758 1397 333.29 1387.34L327.299 1387.01L321.308 1386.68C320.77 1396.45 320.433 1406.41 320.733 1415.04L326.729 1414.83ZM327.299 1387.01L333.29 1387.34C333.663 1380.57 334.139 1373.79 334.585 1367.46L328.6 1367.03L322.614 1366.61C322.17 1372.93 321.686 1379.8 321.308 1386.68L327.299 1387.01ZM328.6 1367.03L334.585 1367.46C334.773 1364.77 334.957 1362.17 335.123 1359.69L329.137 1359.29L323.15 1358.89C322.985 1361.34 322.803 1363.93 322.614 1366.61L328.6 1367.03ZM329.137 1359.29L335.123 1359.69C335.673 1351.5 336.073 1344.27 335.828 1339.81L329.837 1340.14L323.846 1340.47C324.042 1344.04 323.716 1350.47 323.15 1358.89L329.137 1359.29ZM329.837 1340.14L335.828 1339.81C334.8 1321.11 331.75 1277.82 327.513 1233.36L321.54 1233.93L315.567 1234.5C319.79 1278.81 322.827 1321.94 323.846 1340.47L329.837 1340.14ZM321.54 1233.93L327.513 1233.36C323.29 1189.05 317.846 1143.09 311.97 1119.31L306.146 1120.75L300.321 1122.19C305.946 1144.95 311.327 1190.01 315.567 1234.5L321.54 1233.93ZM306.146 1120.75L311.97 1119.31C306.108 1095.59 296.159 1069.53 287.514 1048.02L281.947 1050.26L276.38 1052.5C285.013 1073.97 294.678 1099.36 300.321 1122.19L306.146 1120.75ZM281.947 1050.26L287.514 1048.02C285.578 1043.21 283.699 1038.6 281.943 1034.3L276.388 1036.56L270.832 1038.83C272.589 1043.14 274.457 1047.71 276.38 1052.5L281.947 1050.26ZM276.388 1036.56L281.943 1034.3C279.77 1028.97 277.793 1024.12 276.11 1019.86L270.53 1022.07L264.951 1024.28C266.662 1028.6 268.666 1033.52 270.832 1038.83L276.388 1036.56ZM270.53 1022.07L276.11 1019.86C272.963 1011.91 271.105 1006.64 270.705 1004.22L264.785 1005.19L258.865 1006.17C259.52 1010.15 261.976 1016.76 264.951 1024.28L270.53 1022.07ZM264.785 1005.19L270.705 1004.22C270.389 1002.3 269.358 998.425 267.951 993.492L262.181 995.138L256.411 996.784C257.882 1001.94 258.685 1005.08 258.865 1006.17L264.785 1005.19ZM262.181 995.138L267.95 993.492C266.503 988.417 264.554 981.874 262.282 974.401L256.541 976.146L250.801 977.892C253.065 985.34 254.991 991.807 256.411 996.784L262.181 995.138ZM256.541 976.146L262.282 974.401C257.736 959.45 251.87 940.694 246.074 922.342L240.353 924.149L234.631 925.956C240.423 944.295 246.273 963.003 250.801 977.892L256.541 976.146ZM240.353 924.149L246.074 922.342C240.277 903.987 234.544 886.022 230.261 872.647L224.547 874.477L218.833 876.306C223.113 889.673 228.84 907.622 234.631 925.956L240.353 924.149ZM224.547 874.477L230.261 872.647C228.12 865.96 226.341 860.418 225.097 856.548L219.385 858.385L213.673 860.221C214.915 864.086 216.693 869.623 218.833 876.306L224.547 874.477ZM219.385 858.385L225.097 856.548C224.475 854.613 223.986 853.096 223.654 852.063L217.942 853.902L212.231 855.742C212.564 856.773 213.051 858.289 213.673 860.221L219.385 858.385ZM217.942 853.902L223.654 852.063C223.553 851.75 223.452 851.439 223.388 851.241L217.678 853.084L211.968 854.927C212.049 855.179 212.126 855.415 212.231 855.742L217.942 853.902ZM217.678 853.084L223.391 851.252L223.276 850.893L217.562 852.725L211.849 854.557L211.964 854.916L217.678 853.084ZM217.562 852.725L223.273 850.884C223.246 850.8 223.229 850.747 223.215 850.702L217.499 852.527L211.783 854.352C211.804 854.418 211.83 854.497 211.852 854.565L217.562 852.725ZM217.499 852.527L223.217 850.71L223.184 850.606L217.466 852.423L211.748 854.24L211.781 854.344L217.499 852.527ZM217.466 852.423L223.176 850.579C223.146 850.489 223.121 850.417 223.112 850.391C223.11 850.385 223.107 850.379 223.107 850.378C223.106 850.375 223.107 850.377 223.108 850.38C223.11 850.385 223.119 850.411 223.13 850.445L217.448 852.372L211.766 854.299C211.774 854.321 211.78 854.34 211.785 854.354C211.79 854.367 211.794 854.379 211.796 854.386C211.799 854.393 211.801 854.399 211.801 854.401C211.802 854.403 211.802 854.402 211.801 854.399C211.799 854.394 211.793 854.378 211.786 854.356C211.778 854.334 211.768 854.303 211.756 854.266L217.466 852.423ZM217.448 852.372L223.131 850.447C223.15 850.502 223.165 850.549 223.176 850.585C223.186 850.619 223.194 850.646 223.197 850.655C223.198 850.659 223.2 850.663 223.198 850.66C223.198 850.658 223.196 850.65 223.193 850.64C223.189 850.629 223.184 850.613 223.178 850.592C223.172 850.572 223.163 850.544 223.153 850.512L217.44 852.347L211.728 854.181C211.709 854.123 211.696 854.079 211.692 854.065C211.69 854.06 211.689 854.057 211.689 854.054C211.688 854.053 211.688 854.052 211.688 854.052C211.688 854.051 211.688 854.051 211.688 854.051C211.687 854.049 211.689 854.056 211.691 854.062C211.698 854.087 211.726 854.181 211.766 854.297L217.448 852.372ZM217.44 852.347L223.154 850.515C223.167 850.555 223.177 850.589 223.185 850.615C223.192 850.64 223.198 850.659 223.2 850.664C223.2 850.665 223.2 850.665 223.2 850.666C223.2 850.666 223.2 850.666 223.2 850.666C223.2 850.666 223.2 850.666 223.2 850.666C223.2 850.666 223.2 850.666 223.2 850.666C223.2 850.667 223.2 850.665 223.199 850.664C223.199 850.661 223.196 850.652 223.193 850.641C223.189 850.63 223.184 850.61 223.177 850.587C223.173 850.574 223.168 850.56 223.163 850.543C223.158 850.527 223.152 850.508 223.145 850.486L217.435 852.327L211.724 854.169C211.717 854.147 211.711 854.128 211.706 854.113C211.701 854.097 211.697 854.083 211.694 854.071C211.69 854.059 211.687 854.049 211.685 854.041C211.682 854.033 211.68 854.026 211.679 854.021C211.677 854.015 211.676 854.011 211.675 854.008C211.674 854.005 211.673 854.003 211.673 854.002C211.673 854.002 211.673 854.001 211.673 854.002C211.673 854.003 211.674 854.004 211.674 854.007C211.676 854.011 211.678 854.019 211.681 854.029C211.684 854.039 211.688 854.052 211.692 854.067C211.701 854.096 211.713 854.134 211.727 854.178L217.44 852.347ZM217.435 852.327L223.152 850.506C223.197 850.649 223.229 850.768 223.25 850.852C223.271 850.934 223.285 850.998 223.29 851.018C223.291 851.024 223.292 851.029 223.293 851.03C223.293 851.034 223.292 851.029 223.292 851.028C223.291 851.024 223.287 851.003 223.281 850.977C223.275 850.95 223.264 850.905 223.25 850.849C223.236 850.794 223.214 850.713 223.185 850.616L217.434 852.323L211.682 854.031C211.653 853.934 211.632 853.853 211.618 853.798C211.604 853.742 211.593 853.697 211.587 853.671C211.581 853.645 211.576 853.625 211.576 853.621C211.576 853.621 211.574 853.615 211.575 853.62C211.576 853.621 211.577 853.626 211.578 853.632C211.583 853.653 211.597 853.718 211.618 853.8C211.64 853.884 211.672 854.005 211.718 854.148L217.435 852.327ZM217.434 852.323L220.229 857.632C220.014 857.745 219.839 857.82 219.768 857.851C219.681 857.887 219.611 857.914 219.572 857.929C219.496 857.958 219.438 857.978 219.421 857.984C219.382 857.998 219.356 858.007 219.368 858.002C219.384 857.997 219.429 857.982 219.536 857.948L217.679 852.242L215.822 846.537C215.717 846.571 215.641 846.596 215.588 846.613C215.566 846.62 215.519 846.636 215.466 846.655C215.443 846.663 215.38 846.685 215.301 846.715C215.298 846.716 214.993 846.828 214.639 847.014L217.434 852.323ZM217.679 852.242L215.843 846.53L215.597 846.609L217.433 852.321L219.269 858.033L219.515 857.954L217.679 852.242ZM217.433 852.321L223.173 850.574L223.166 850.552L217.426 852.299L211.686 854.046L211.693 854.068L217.433 852.321ZM217.426 852.299L223.247 850.844L223.241 850.82L217.42 852.275L211.599 853.731L211.605 853.754L217.426 852.299ZM217.42 852.275L223.238 850.808L218.264 831.092L212.446 832.56L206.629 834.027L211.602 853.743L217.42 852.275ZM212.446 832.56L206.628 831.092L201.701 850.629L207.519 852.097L213.336 853.564L218.264 834.027L212.446 832.56ZM207.519 852.097L201.567 851.335C201.547 851.495 183.95 988.945 180.947 1007.16L186.867 1008.14L192.787 1009.11C194.322 999.804 199.501 960.659 204.275 924.028C209.059 887.312 213.466 852.886 213.47 852.859L207.519 852.097ZM186.867 1008.14L180.947 1007.16C180.145 1012.03 180.481 1018.89 181.224 1026.46C181.984 1034.2 183.253 1043.39 184.606 1053.2L190.55 1052.38L196.493 1051.56C195.13 1041.68 193.899 1032.74 193.167 1025.29C192.418 1017.65 192.272 1012.24 192.787 1009.11L186.867 1008.14ZM190.55 1052.38L184.606 1053.2C188.154 1078.9 192.27 1108.95 190.401 1132.34L196.382 1132.81L202.363 1133.29C204.358 1108.33 199.986 1076.86 196.493 1051.56L190.55 1052.38ZM196.382 1132.81L190.401 1132.34C188.505 1156.06 191.002 1195.55 193.299 1232.08L199.287 1231.71L205.275 1231.33C202.951 1194.35 200.552 1155.94 202.363 1133.29L196.382 1132.81ZM199.287 1231.71L193.299 1232.08C195.269 1263.42 197.089 1292.54 196.174 1309.18L202.165 1309.51L208.156 1309.84C209.12 1292.3 207.221 1262.28 205.275 1231.33L199.287 1231.71ZM202.165 1309.51L196.174 1309.18C195.938 1313.46 195.926 1320.41 195.909 1328.38L201.909 1328.39L207.909 1328.4C207.926 1320.26 207.942 1313.72 208.156 1309.84L202.165 1309.51ZM201.909 1328.39L195.909 1328.38C195.884 1340.42 195.851 1355.2 195.119 1368.5C194.753 1375.15 194.217 1381.32 193.441 1386.53C192.646 1391.87 191.663 1395.72 190.603 1398L196.046 1400.53L201.489 1403.05C203.297 1399.16 204.475 1393.91 205.309 1388.3C206.162 1382.58 206.724 1376 207.101 1369.16C207.853 1355.49 207.884 1340.38 207.909 1328.4L201.909 1328.39ZM196.046 1400.53L192.181 1395.94C186.065 1401.09 181.133 1408.04 176.91 1415.37C172.677 1422.72 168.939 1430.86 165.405 1438.54L170.856 1441.05L176.307 1443.56C179.889 1435.77 183.399 1428.15 187.309 1421.36C191.228 1414.55 195.333 1408.97 199.911 1405.12L196.046 1400.53ZM170.856 1441.05L165.405 1438.54C162.838 1444.12 160.38 1449.46 157.832 1454.36L163.155 1457.13L168.479 1459.9C171.185 1454.7 173.766 1449.08 176.307 1443.56L170.856 1441.05ZM163.155 1457.13L157.832 1454.36C153.329 1463.02 144.059 1473.95 133.635 1482.18C128.457 1486.27 123.205 1489.53 118.353 1491.51C113.433 1493.52 109.453 1494.01 106.506 1493.35L105.19 1499.2L103.875 1505.06C110.141 1506.46 116.771 1505.12 122.893 1502.62C129.083 1500.09 135.307 1496.15 141.073 1491.6C152.538 1482.54 163.038 1470.36 168.479 1459.9L163.155 1457.13ZM105.19 1499.2L106.506 1493.35C97.7587 1491.38 86.894 1487.57 78.0877 1482.2C69.0249 1476.67 63.5858 1470.41 62.7896 1464.04L56.8359 1464.78L50.8823 1465.52C52.3807 1477.51 61.9054 1486.39 71.8393 1492.44C82.0298 1498.66 94.195 1502.88 103.875 1505.06L105.19 1499.2ZM56.8359 1464.78L62.7896 1464.04C62.2832 1459.98 64.1658 1453.84 68.5558 1445.67C72.7985 1437.77 78.6843 1429.19 84.6184 1420.55L79.6729 1417.16L74.7273 1413.76C68.8904 1422.26 62.5976 1431.41 57.9844 1439.99C53.5186 1448.31 49.8682 1457.41 50.8823 1465.52L56.8359 1464.78ZM79.6729 1417.16L84.6184 1420.55C90.5294 1411.95 96.5803 1403.16 100.404 1395.58L95.0469 1392.88L89.6898 1390.18C86.3115 1396.88 80.8006 1404.92 74.7273 1413.76L79.6729 1417.16ZM95.0469 1392.88L100.679 1394.95C100.822 1394.56 104.273 1385.05 105.762 1369.8L99.79 1369.22L93.8184 1368.63C92.4539 1382.62 89.3056 1391.11 89.4147 1390.81L95.0469 1392.88ZM99.79 1369.22L105.772 1369.68C106.101 1365.4 106.309 1360.89 106.431 1356.33L100.434 1356.17L94.4357 1356C94.3176 1360.42 94.1177 1364.72 93.8077 1368.76L99.79 1369.22ZM100.434 1356.17L106.434 1356.18C106.46 1341.9 106.138 1323.87 105.904 1312.77L99.9053 1312.9L93.9066 1313.03C94.1408 1324.11 94.4601 1342.02 94.4336 1356.15L100.434 1356.17ZM99.9053 1312.9L105.902 1312.71C105.767 1308.39 105.669 1304.95 105.669 1302.62H99.6689H93.6689C93.669 1305.18 93.7744 1308.82 93.9082 1313.09L99.9053 1312.9ZM99.6689 1302.62H105.669C105.669 1291.72 103.436 1275.42 100.309 1257.27C97.1607 1239 93.0229 1218.41 89.071 1198.73L83.1885 1199.91L77.306 1201.09C81.266 1220.81 85.3685 1241.24 88.4828 1259.31C91.6179 1277.51 93.6689 1292.87 93.6689 1302.62H99.6689ZM83.1885 1199.91L89.071 1198.73C82.6544 1166.78 76.8602 1137.84 76.1672 1124.1L70.1748 1124.4L64.1824 1124.7C64.9329 1139.59 71.0063 1169.73 77.306 1201.09L83.1885 1199.91ZM70.1748 1124.4L76.1672 1124.1C75.6441 1113.72 74.6667 1100.29 73.5877 1085.46L67.6035 1085.9L61.6193 1086.33C62.7021 1101.21 63.6676 1114.49 64.1824 1124.7L70.1748 1124.4ZM67.6035 1085.9L73.5877 1085.46C71.2902 1053.88 68.5264 1015.84 68.5264 985.954H62.5264H56.5264C56.5264 1016.37 59.3313 1054.88 61.6193 1086.33L67.6035 1085.9ZM62.5264 985.954H68.5264C68.5264 940.893 57.2047 892.178 57.1735 892.044L51.3291 893.401L45.4847 894.759C45.4751 894.718 48.2428 906.631 51.0106 924.036C53.7834 941.473 56.5264 964.24 56.5264 985.954H62.5264ZM51.3291 893.401L57.3291 893.4C57.329 892.944 57.2853 866.241 39.4394 840.283L34.4951 843.683L29.5508 847.082C45.3595 870.076 45.3292 893.857 45.3291 893.403L51.3291 893.401ZM34.4951 843.683L39.4394 840.283C38.6456 839.129 37.8252 837.951 36.9985 836.763L32.0742 840.191L27.15 843.619C27.9818 844.814 28.7809 845.962 29.5509 847.082L34.4951 843.683ZM32.0742 840.191L36.9985 836.763C26.1018 821.111 12.6895 801.728 12.6895 771.018H6.68945H0.689453C0.689482 805.727 16.1253 827.783 27.15 843.62L32.0742 840.191ZM6.68945 771.018H12.6895C12.6895 754.727 11.2954 730.458 9.80169 704.405L3.81152 704.748L-2.17864 705.091C-0.675704 731.306 0.689453 755.156 0.689453 771.018H6.68945ZM3.81152 704.748L9.80169 704.405C8.01754 673.285 6.08108 639.478 6.08105 612.684H0.0810547H-5.91895C-5.91892 639.894 -3.95658 674.08 -2.17864 705.091L3.81152 704.748ZM0.0810547 612.684H6.08105C6.08103 586.421 7.94164 556.874 9.69709 529.034L3.70898 528.656L-2.27912 528.279C-4.02892 556.03 -5.91897 585.971 -5.91895 612.684H0.0810547ZM3.70898 528.656L9.69709 529.034C11.2299 504.724 12.6894 481.63 12.6895 463.528H6.68945H0.689453C0.689448 481.167 -0.737665 503.832 -2.27912 528.279L3.70898 528.656ZM6.68945 463.528H12.6895C12.6895 461.988 12.6857 460.335 12.6816 458.587L6.68164 458.601L0.681657 458.614C0.685698 460.366 0.689453 462.004 0.689453 463.528H6.68945ZM6.68164 458.601L12.6816 458.587C12.6332 437.605 12.562 402.189 18.4621 367.143C24.4107 331.809 36.1961 298.391 58.6752 280.008L54.877 275.363L51.0787 270.719C25.0308 292.02 12.6701 329.265 6.62864 365.15C0.538711 401.324 0.63335 437.685 0.681657 458.614L6.68164 458.601ZM54.877 275.363L58.6752 280.008C84.4808 258.905 104.653 253.827 120.904 249.727L119.437 243.909L117.969 238.091C101.11 242.345 78.9138 247.956 51.0787 270.719L54.877 275.363ZM119.437 243.909L120.904 249.727C135.319 246.09 148.713 242.916 158.253 228.133L153.212 224.88L148.171 221.626C141.511 231.946 132.853 234.336 117.969 238.091L119.437 243.909ZM153.212 224.88L158.253 228.133C168.302 212.563 169.888 199.013 168.985 189.536L163.012 190.105L157.039 190.675C157.698 197.586 156.692 208.422 148.171 221.626L153.212 224.88ZM163.012 190.105L168.067 186.874C159.107 172.856 153.839 152.09 147.196 123.688L141.354 125.055L135.511 126.421C142.005 154.183 147.658 177.225 157.956 193.337L163.012 190.105ZM141.354 125.055L147.196 123.688C140.643 95.6717 140.827 65.8531 150.765 43.3877C155.693 32.2477 162.978 22.9877 172.997 16.4845C183.014 9.98296 196.129 5.99918 213.101 5.99902L213.101 -0.000976562L213.101 -6.00098C194.199 -6.00081 178.728 -1.54138 166.464 6.41895C154.202 14.3776 145.513 25.5982 139.791 38.5331C128.429 64.2175 128.613 96.9265 135.511 126.421L141.354 125.055ZM347.26 444.22L346.563 438.26C343.794 438.584 342.188 440.335 341.568 441.132L346.301 444.819L351.034 448.507C350.819 448.783 349.84 449.959 347.957 450.179L347.26 444.22ZM346.301 444.819L341.567 441.133C340.351 442.694 339.794 444.616 339.514 445.669L345.312 447.214L351.109 448.759C351.157 448.578 351.201 448.429 351.24 448.307C351.279 448.184 351.309 448.104 351.326 448.061C351.345 448.015 351.34 448.033 351.306 448.097C351.288 448.13 351.259 448.183 351.216 448.25C351.174 448.316 351.114 448.404 351.035 448.506L346.301 444.819ZM345.312 447.214L339.514 445.669C338.827 448.247 338.299 451.91 337.861 455.988L343.827 456.628L349.793 457.268C350.224 453.248 350.678 450.377 351.109 448.759L345.312 447.214ZM343.827 456.628L337.861 455.988C336.968 464.311 336.301 475.897 335.806 487.825L341.801 488.074L347.796 488.323C348.289 476.438 348.944 465.179 349.793 457.268L343.827 456.628ZM341.801 488.074L335.806 487.825C334.814 511.73 334.488 537.638 334.488 543.079H340.488H346.488C346.488 537.796 346.811 512.054 347.796 488.323L341.801 488.074ZM340.488 543.079H334.488C334.488 548.536 335.267 591.654 336.419 634.855L342.417 634.695L348.415 634.535C347.262 591.305 346.488 548.349 346.488 543.079H340.488ZM342.417 634.695L336.419 634.855C336.996 656.476 337.668 678.173 338.385 695.243L344.38 694.991L350.375 694.739C349.661 677.76 348.991 656.135 348.415 634.535L342.417 634.695ZM344.38 694.991L338.385 695.243C338.744 703.773 339.115 711.187 339.494 716.872L345.48 716.474L351.467 716.075C351.098 710.533 350.731 703.232 350.375 694.739L344.38 694.991ZM345.48 716.474L339.494 716.872C339.852 722.251 340.252 726.796 340.803 729.031L346.629 727.595L352.455 726.159C352.213 725.181 351.852 721.856 351.467 716.075L345.48 716.474ZM346.629 727.595L340.804 729.033C341.576 732.161 344.454 734.301 347.667 734.146L347.379 728.153L347.09 722.16C349.601 722.039 351.85 723.711 352.454 726.157L346.629 727.595ZM347.379 728.153L347.671 734.146C350.883 733.99 353.539 731.584 354.008 728.397L348.071 727.525L342.135 726.653C342.501 724.163 344.578 722.283 347.087 722.16L347.379 728.153ZM348.071 727.525L348.947 721.59L348.218 721.482L347.343 727.418L346.468 733.354L347.196 733.461L348.071 727.525ZM347.343 727.418L346.475 733.355L347.204 733.461L348.071 727.524L348.939 721.587L348.21 721.481L347.343 727.418ZM348.071 727.524L353.964 728.655C353.947 728.74 353.932 728.812 353.919 728.866C353.907 728.922 353.895 728.969 353.886 729.005C353.868 729.074 353.853 729.128 353.846 729.153C353.842 729.166 353.839 729.177 353.837 729.184C353.836 729.187 353.836 729.19 353.835 729.191C353.835 729.193 353.834 729.194 353.834 729.195C353.833 729.198 353.838 729.183 353.842 729.166C353.852 729.132 353.877 729.043 353.905 728.928C353.919 728.868 353.936 728.793 353.954 728.706C353.971 728.62 353.991 728.513 354.009 728.389L348.072 727.521L342.136 726.652C342.154 726.528 342.173 726.422 342.19 726.336C342.208 726.249 342.225 726.175 342.239 726.115C342.267 726.001 342.292 725.913 342.301 725.88C342.306 725.863 342.31 725.848 342.309 725.852C342.309 725.852 342.309 725.853 342.308 725.855C342.308 725.857 342.307 725.86 342.306 725.863C342.304 725.87 342.301 725.881 342.297 725.895C342.29 725.919 342.275 725.974 342.257 726.043C342.248 726.079 342.236 726.127 342.223 726.182C342.211 726.237 342.195 726.309 342.179 726.393L348.071 727.524ZM348.072 727.521L354.009 728.387C354.01 728.38 354.011 728.374 354.012 728.37C354.012 728.366 354.013 728.362 354.013 728.36C354.014 728.358 354.014 728.356 354.014 728.355C354.014 728.355 354.014 728.354 354.014 728.354C354.014 728.354 354.014 728.354 354.014 728.354C354.014 728.355 354.013 728.363 354.011 728.375L348.074 727.507L342.137 726.639C342.135 726.656 342.133 726.67 342.132 726.675C342.132 726.676 342.132 726.676 342.132 726.677C342.132 726.677 342.132 726.677 342.132 726.677C342.132 726.678 342.132 726.677 342.132 726.676C342.132 726.675 342.133 726.672 342.133 726.669C342.133 726.666 342.134 726.66 342.135 726.654L348.072 727.521ZM348.074 727.507L354.011 728.375C354.01 728.38 354.01 728.383 354.01 728.381C354.011 728.378 354.011 728.378 354.012 728.37C354.013 728.359 354.016 728.341 354.019 728.32L348.082 727.454L342.145 726.588C342.145 726.59 342.144 726.593 342.143 726.599C342.143 726.601 342.143 726.602 342.142 726.605C342.142 726.607 342.142 726.61 342.141 726.613C342.14 726.618 342.139 726.628 342.137 726.639L348.074 727.507ZM348.082 727.454L354.019 728.32C354.024 728.289 354.043 728.154 354.05 728.105L348.112 727.244L342.174 726.383C342.155 726.519 342.154 726.525 342.145 726.589L348.082 727.454ZM348.112 727.244L354.05 728.105C354.078 727.916 354.118 727.638 354.17 727.276L348.23 726.424L342.291 725.572C342.24 725.93 342.201 726.202 342.174 726.383L348.112 727.244ZM348.23 726.424L354.17 727.276C354.274 726.549 354.426 725.482 354.617 724.114L348.675 723.283L342.733 722.452C342.543 723.805 342.394 724.859 342.291 725.572L348.23 726.424ZM348.675 723.283L354.617 724.114C355 721.379 355.54 717.441 356.174 712.616L350.226 711.834L344.277 711.052C343.647 715.84 343.111 719.746 342.733 722.452L348.675 723.283ZM350.226 711.834L356.174 712.616C357.443 702.969 359.087 689.763 360.588 675.539L354.621 674.909L348.654 674.279C347.167 688.373 345.536 701.473 344.277 711.052L350.226 711.834ZM354.621 674.909L360.588 675.539C362.088 661.326 363.451 646.038 364.151 632.243L358.158 631.939L352.166 631.636C351.482 645.127 350.142 660.178 348.654 674.279L354.621 674.909ZM358.158 631.939L364.151 632.243C364.843 618.584 364.913 605.926 363.669 597.2L357.729 598.047L351.79 598.894C352.857 606.382 352.855 618.038 352.166 631.636L358.158 631.939ZM357.729 598.047L363.669 597.2C361.448 581.617 360.488 545.272 359.422 511.409L353.425 511.598L347.428 511.786C348.477 545.11 349.446 582.456 351.79 598.894L357.729 598.047ZM353.425 511.598L359.422 511.409C358.894 494.645 358.34 478.599 357.582 466.396L351.594 466.769L345.605 467.141C346.35 479.13 346.899 494.994 347.428 511.786L353.425 511.598ZM351.594 466.769L357.582 466.396C357.204 460.312 356.768 455.046 356.238 451.074L350.291 451.866L344.344 452.659C344.816 456.204 345.232 461.133 345.605 467.141L351.594 466.769ZM350.291 451.866L356.238 451.074C355.976 449.104 355.67 447.287 355.293 445.781L349.473 447.239L343.652 448.697C343.87 449.565 344.106 450.873 344.344 452.659L350.291 451.866ZM349.473 447.239L355.293 445.781C355.104 445.028 354.863 444.214 354.543 443.434L348.992 445.711L343.441 447.988C343.466 448.05 343.544 448.265 343.652 448.697L349.473 447.239ZM348.992 445.711L354.543 443.433C354.272 442.774 353.708 441.532 352.614 440.428L348.354 444.653L344.093 448.878C343.782 448.564 343.608 448.29 343.534 448.164C343.457 448.032 343.43 447.96 343.441 447.989L348.992 445.711ZM348.354 444.653L352.613 440.427C351.68 439.487 349.586 437.908 346.565 438.26L347.26 444.22L347.954 450.179C345.87 450.422 344.522 449.311 344.094 448.879L348.354 444.653ZM95.6924 420.915L99.952 416.689C98.9537 415.683 97.0609 414.436 94.4897 414.738C92.2142 415.004 90.7982 416.349 90.1837 417.041C88.9884 418.388 88.3228 420.117 87.944 421.204C87.0586 423.743 86.2561 427.39 85.5157 431.508C84.0089 439.887 82.5315 451.557 81.2346 463.587C78.6512 487.552 76.6895 513.866 76.6895 519.587H82.6895H88.6895C88.6895 514.605 90.5747 488.907 93.1655 464.874C94.4557 452.905 95.8972 441.579 97.3262 433.632C98.0537 429.586 98.7233 426.737 99.2749 425.155C99.6145 424.181 99.6586 424.443 99.1593 425.006C98.8927 425.306 97.8212 426.429 95.8862 426.656C93.6556 426.917 92.0993 425.812 91.4328 425.141L95.6924 420.915ZM82.6895 519.587L76.6895 519.587C76.6894 521.933 75.9627 531.1 74.7976 544.922C73.6512 558.521 72.1188 576.229 70.5874 595.195C67.5309 633.046 64.447 676.266 64.4482 702.176L70.4482 702.176L76.4482 702.175C76.4471 676.837 79.4837 634.115 82.5484 596.16C84.0776 577.223 85.6059 559.562 86.7551 545.93C87.8856 532.52 88.6894 522.593 88.6895 519.587L82.6895 519.587ZM70.4482 702.176L64.4482 702.176C64.4484 705.449 64.5299 708.105 64.706 710.137C64.7937 711.15 64.9136 712.115 65.0879 712.979C65.2339 713.703 65.5217 714.923 66.2069 716.072C66.5615 716.667 67.2756 717.677 68.55 718.427C70.0305 719.298 71.7967 719.535 73.4639 719.07C74.8996 718.669 75.8518 717.866 76.3448 717.38C76.8732 716.859 77.2496 716.327 77.4989 715.935C78.3841 714.543 79.0578 712.655 79.5885 710.976C81.8486 703.829 84.8788 689.062 88.2021 671.45C94.9402 635.74 103.105 587.093 109.206 558.878L103.342 557.61L97.4773 556.342C91.3389 584.73 83.0585 633.99 76.4102 669.225C73.0404 687.084 70.1423 701.048 68.1469 707.358C67.6139 709.044 67.3283 709.566 67.3729 709.496C67.4121 709.434 67.5858 709.164 67.9191 708.836C68.217 708.542 68.9818 707.862 70.238 707.511C71.7256 707.096 73.3201 707.31 74.637 708.085C75.7478 708.739 76.3064 709.579 76.5137 709.927C76.9045 710.582 76.9312 711.003 76.8509 710.606C76.7991 710.349 76.7279 709.871 76.6612 709.102C76.5285 707.571 76.4484 705.308 76.4482 702.175L70.4482 702.176ZM103.342 557.61L109.206 558.878C115.515 529.702 114.876 496.156 112.065 469.417C110.655 456.006 108.683 444.165 106.705 435.27C105.719 430.833 104.711 427.042 103.743 424.118C103.261 422.662 102.758 421.326 102.234 420.192C101.784 419.219 101.06 417.806 99.9523 416.69L95.6924 420.915L91.4325 425.14C90.9887 424.693 91.0006 424.491 91.3416 425.228C91.6083 425.805 91.9507 426.68 92.3514 427.89C93.1489 430.298 94.056 433.667 94.9916 437.875C96.858 446.268 98.7619 457.653 100.131 470.671C102.877 496.791 103.408 528.917 97.4773 556.342L103.342 557.61Z" fill="currentColor" mask="url(#path-1-inside-1_1503_32835)"/>
<defs>
<linearGradient id="paint0_linear_1503_32835" x1="458.928" y1="1500" x2="-356.796" y2="1098.85" gradientUnits="userSpaceOnUse">
<stop stop-color="#E4ECFC"/>
<stop offset="1" stop-color="white" stop-opacity="0.5"/>
</linearGradient>
</defs>
</svg>
