<svg width="22" height="50" viewBox="0 0 22 50" fill="none" xmlns="http://www.w3.org/2000/svg">
<path d="M15.3909 26.7533C15.3909 27.1627 15.3909 27.5564 15.3909 27.9492C15.3869 34.1677 15.3821 41.4792 15.3805 47.6977C15.3805 48.24 15.3217 48.7664 14.9639 49.2075C14.4242 49.8723 13.7136 50.1228 12.8765 49.93C12.0402 49.7379 11.5632 49.1703 11.3747 48.3649C11.3304 48.1752 11.3199 47.9744 11.3199 47.7791C11.3175 44.6007 11.336 40.3293 11.3062 37.1509C11.2998 36.4387 11.133 35.7273 11.0323 35.0167C10.8446 33.6919 10.6528 32.3679 10.4595 31.0438C10.3362 30.1981 10.2073 29.3531 10.0768 28.4812C9.74244 28.5689 9.41936 28.6337 9.11482 28.7444C9.01412 28.7808 8.94886 28.9317 8.88601 29.0408C8.23987 30.1641 7.59534 31.2889 6.95484 32.4153C6.2805 33.6018 5.60535 34.789 4.9447 35.9826C4.85366 36.147 4.80049 36.3533 4.80049 36.5407C4.78841 39.9167 4.78599 44.3849 4.78357 47.761C4.78357 48.6866 4.44278 49.4264 3.55171 49.8217C2.19175 50.424 0.698853 49.4312 0.698048 47.938C0.696436 44.8687 0.702882 40.7056 0.698048 37.6363C0.698048 37.2639 0.66421 36.8909 0.618287 36.5209C0.495826 35.5162 0.913967 34.6286 1.24671 33.7282C1.98872 31.7205 2.7533 29.7198 3.5219 27.7216C3.75071 27.1256 3.9916 26.5303 4.28487 25.9636C4.47178 25.6023 4.49031 25.2285 4.53543 24.853C4.65628 23.857 4.77068 22.8595 4.86172 21.8603C4.99385 20.4011 5.02848 18.7865 4.9162 17.488C4.80568 16.4913 4.6283 15.5509 4.35921 14.6261C4.32215 14.4996 4.02502 14.3184 3.80222 14.3184C3.57942 14.3184 3.38897 14.5225 3.32129 14.6261C3.13761 15.302 3.1328 19.346 3.1328 19.346C3.1328 19.346 3.1328 19.346 3.13761 19.346V21.6412L3.1328 24.9201C3.1328 24.9201 3.13761 26.2316 3.13761 26.5595C3.13761 26.8874 2.68814 27.871 1.57416 27.871C0.460177 27.871 0.0145829 26.8874 0.0145829 26.4502C0.0145829 26.013 0.0140378 19.2367 0.0140378 19.2367C0.0140378 19.2367 -0.196968 13.0196 1.01717 11.0395C1.78738 9.78428 3.47437 8.76326 4.94148 8.64944C6.21201 8.55063 7.49383 8.58699 8.77 8.58146C10.3491 8.57434 11.9298 8.55932 13.5081 8.59568C14.8294 8.62572 16.0024 9.07233 16.8524 10.0999C17.3052 10.6469 17.6589 11.2753 18.0424 11.8753C19.0616 13.4704 20.0735 15.0695 21.0862 16.6678C21.7299 17.6836 21.7066 18.5776 21.0121 19.4945C20.8501 19.7079 20.6826 19.9182 20.5085 20.1221C19.5425 21.258 18.5612 22.3804 17.6138 23.5298C17.2174 24.0112 16.9145 24.5653 16.5294 25.0561C16.0097 25.717 15.055 25.8363 14.3702 25.3652C13.6499 24.8688 13.4259 23.9455 13.9125 23.2294C14.2558 22.7235 14.6852 22.2745 15.0703 21.7947C15.8961 20.7655 16.7155 19.7308 17.5413 18.7017C17.8249 18.3483 17.8482 17.9942 17.5993 17.6132C16.9547 16.6259 16.3199 15.6323 15.6721 14.6474C15.4256 14.2727 15.171 14.2799 15.0171 14.7051C14.7698 15.3873 14.5611 16.0868 14.3927 16.7919C14.0447 18.2511 13.9641 19.7364 14.0366 21.2295C14.0463 21.4374 14.0012 21.5702 13.8167 21.6951C12.5292 22.5623 12.2899 24.0009 12.6936 24.9637C13.1294 26.0039 13.894 26.6426 15.0792 26.7161C15.167 26.7216 15.2548 26.7343 15.3901 26.7485L15.3909 26.7533Z" fill="url(#paint0_radial_1846_30674)"/>
<path d="M6 3.49518C5.99774 1.53981 7.53806 -0.00444284 9.48455 9.60376e-06C11.4295 0.00446205 12.9992 1.56504 13 3.49443C13.0008 5.39563 11.4039 7.00444 9.51997 6.99999C7.55162 6.99554 6.00151 5.45277 6 3.49518Z" fill="url(#paint1_radial_1846_30674)"/>
<defs>
<radialGradient id="paint0_radial_1846_30674" cx="0" cy="0" r="1" gradientUnits="userSpaceOnUse" gradientTransform="translate(-14.7242 0.700982) rotate(54.3391) scale(62.2242 47.7992)">
<stop stop-color="#A92BEC"/>
<stop offset="1" stop-color="#2A3AEB"/>
</radialGradient>
<radialGradient id="paint1_radial_1846_30674" cx="0" cy="0" r="1" gradientUnits="userSpaceOnUse" gradientTransform="translate(1.21754 -1.32999) rotate(35.9422) scale(14.5533 11.216)">
<stop stop-color="#A92BEC"/>
<stop offset="1" stop-color="#2A3AEB"/>
</radialGradient>
</defs>
</svg>
