<svg width="19" height="49" viewBox="0 0 19 49" fill="none" xmlns="http://www.w3.org/2000/svg">
<path d="M4.64787 9.23779C7.72678 9.2091 10.8068 9.16942 13.8842 9.24463C15.7495 9.29045 17.0873 10.3214 17.9526 11.9565C18.3728 12.7505 18.5287 13.612 18.5287 14.5044C18.5287 18.6772 18.5295 22.8501 18.5287 27.0229C18.5287 27.792 18.0701 28.3597 17.3119 28.5435C16.66 28.7016 15.9644 28.3854 15.6674 27.7583C15.5682 27.5482 15.5188 27.2944 15.518 27.061C15.5095 23.1789 15.5142 19.2957 15.5072 15.4136C15.5072 15.1973 15.4693 14.9679 15.391 14.7671C15.2492 14.4028 14.8899 14.2229 14.5248 14.2847C14.1798 14.3428 13.8918 14.6611 13.891 15.0503C13.8895 16.6768 13.887 18.3034 13.9164 19.9292C13.9358 20.9837 14.0008 22.0376 14.059 23.0913C14.1621 24.9365 14.3008 26.7795 14.3783 28.6255C14.4574 30.5017 14.4882 32.3796 14.5278 34.2573C14.6138 38.3123 14.6766 42.3684 14.7836 46.4233C14.8146 47.6071 14.0207 48.4171 13.1625 48.5894C12.1298 48.7964 11.047 48.044 10.9819 46.9927C10.9012 45.6895 10.8621 44.3833 10.8031 43.0786C10.7349 41.59 10.6647 40.1016 10.5942 38.6138C10.5492 37.6571 10.5022 36.7003 10.4565 35.7436C10.3836 34.217 10.31 32.69 10.2387 31.1626C10.21 30.5541 10.1923 29.9447 10.1606 29.3354C10.1427 28.9836 10.0996 28.6305 9.7758 28.4087C9.48435 28.2087 9.16701 28.163 8.84611 28.3403C8.54295 28.5086 8.38526 28.7761 8.37052 29.1196C8.33176 30.0089 8.30517 30.8993 8.26408 31.7886C8.16561 33.9439 8.06018 36.1 7.95939 38.2554C7.84697 40.6628 7.7351 43.0704 7.62345 45.477C7.60175 45.9507 7.58091 46.4243 7.55998 46.8979C7.52896 47.5911 7.18061 48.0923 6.58048 48.4009C5.91612 48.7426 5.24716 48.6883 4.62931 48.272C4.05186 47.8828 3.76287 47.3217 3.77287 46.6226C3.81396 43.612 3.86149 40.6011 3.90568 37.5913H3.91935C3.96819 35.3655 4.0025 33.1396 4.07072 30.9145C4.12189 29.2514 4.21176 27.5888 4.2924 25.9272C4.34745 24.7977 4.43894 23.6689 4.47306 22.5386C4.54517 20.1497 4.59181 17.7595 4.64298 15.3706C4.64681 15.1994 4.62171 15.0217 4.57756 14.856C4.48446 14.5041 4.20265 14.2877 3.86466 14.2808C3.51525 14.2731 3.18159 14.4824 3.09611 14.8247C3.02555 15.1116 2.99707 15.4172 2.99552 15.7134C2.98157 19.5278 2.97438 23.3423 2.96818 27.1567C2.9674 27.6615 2.76905 28.0613 2.34416 28.3296C1.83486 28.6504 1.29476 28.6617 0.773844 28.3765C0.232654 28.0803 0.0031387 27.582 0.0023599 26.978C0.000809215 24.4318 0.00178578 21.8856 0.00333646 19.3394C0.00411178 17.684 -0.0107287 16.0279 0.0140786 14.3726C0.0474187 12.1388 1.03762 10.4828 3.10392 9.56396C3.57602 9.35393 4.13006 9.24246 4.64787 9.23779ZM8.65177 0.0024383C10.5941 -0.0697102 12.287 1.46844 12.2904 3.39892H12.2914C12.4139 5.24574 10.8947 6.91027 8.94767 6.99658C6.87749 7.08875 5.52606 5.51311 5.32951 3.94482C5.03783 1.61066 6.88629 0.0680504 8.65177 0.0024383Z" fill="url(#paint0_radial_2330_1571)"/>
<defs>
<radialGradient id="paint0_radial_2330_1571" cx="0" cy="0" r="1" gradientUnits="userSpaceOnUse" gradientTransform="translate(-0.000732862 0.000974401) rotate(69.7024) scale(53.415 34.7732)">
<stop stop-color="#8B4CEF"/>
<stop offset="1" stop-color="#2A3AEB"/>
</radialGradient>
</defs>
</svg>
