<svg width="595" height="1506" viewBox="0 0 595 1506" fill="none" xmlns="http://www.w3.org/2000/svg">
<path d="M274.271 3C351.773 2.9995 348.734 75.1846 348.734 96.46C348.734 130.631 330.521 187.567 330.498 187.64C330.498 187.64 328.979 212.715 336.577 224.112C344.176 235.51 434.77 248.429 464.229 275.783C487.783 297.656 505.26 340.371 518.177 357.847C531.094 375.323 583.071 464.982 591.121 502.214C597.2 530.328 524.258 664.82 519.698 674.698C515.139 684.576 471.828 723.895 457.391 734.723C455.566 736.091 454.229 737.581 453.25 739.254L452.613 738.406C448.123 741.775 440.438 745.385 433.952 746.999C430.698 747.809 427.832 748.092 425.847 747.654C424.863 747.437 424.149 747.055 423.693 746.526C423.247 746.008 422.991 745.282 423.047 744.25C423.081 743.624 423.469 742.735 424.265 741.586C425.045 740.458 426.161 739.159 427.525 737.729C430.255 734.87 433.924 731.547 437.771 728.098C441.609 724.655 445.62 721.089 449.002 717.767C452.371 714.457 455.175 711.334 456.554 708.772L456.984 707.972L456.081 707.879C454.594 707.726 452.694 708.279 450.567 709.223C448.417 710.177 445.934 711.579 443.245 713.232C440.553 714.888 437.635 716.807 434.612 718.804C431.587 720.802 428.455 722.88 425.322 724.857C419.046 728.82 412.822 732.353 407.525 734.052C402.195 735.762 398.087 735.534 395.681 732.44C395.222 731.851 395.135 731.167 395.445 730.286C395.767 729.372 396.507 728.294 397.645 727.05C399.915 724.567 403.588 721.612 407.989 718.197C416.752 711.399 428.303 702.857 436.717 692.912L437.564 691.911H436.253C420.436 691.911 406.405 701.935 395.595 710.092C390.145 714.204 385.554 717.808 381.896 719.556C380.068 720.429 378.573 720.787 377.378 720.589C376.251 720.402 375.279 719.7 374.494 718.166C373.65 714.12 375.705 709.974 379.608 705.776C383.521 701.569 389.166 697.445 395.139 693.505C398.121 691.538 401.175 689.622 404.125 687.77C407.072 685.919 409.917 684.129 412.471 682.419C415.023 680.709 417.299 679.068 419.105 677.514C420.899 675.968 422.282 674.464 422.986 673.02L423.309 672.357L422.598 672.166C406.795 667.909 395.411 674.708 386.545 681.584C384.334 683.299 382.261 685.034 380.331 686.593C378.392 688.159 376.59 689.553 374.884 690.625C371.458 692.778 368.588 693.528 365.85 691.989C364.45 691.202 363.737 690.227 363.49 689.133C363.238 688.013 363.453 686.668 364.115 685.121C365.444 682.017 368.459 678.356 372.251 674.611C379.815 667.142 390.231 659.565 395.555 655.764C400.717 652.078 409.072 650.855 416.254 650.584C419.824 650.449 423.066 650.55 425.415 650.685C426.589 650.752 427.54 650.828 428.195 650.887C428.523 650.916 428.778 650.941 428.949 650.959C428.975 650.962 429 650.964 429.022 650.967C429.44 651.293 430.058 651.528 430.745 651.703C431.566 651.912 432.597 652.062 433.772 652.141C436.126 652.298 439.118 652.176 442.295 651.646C448.627 650.591 455.834 647.892 460.148 642.399C461.243 641.006 462.813 638.07 464.709 634.042C466.616 629.992 468.879 624.778 471.356 618.784C476.311 606.795 482.133 591.661 487.691 576.411C493.25 561.161 498.548 545.789 502.458 533.323C504.413 527.091 506.022 521.579 507.144 517.17C508.259 512.785 508.909 509.424 508.909 507.532C508.909 505.605 508.271 503.388 507.195 500.994C506.116 498.592 504.574 495.966 502.72 493.208C499.012 487.691 494.018 481.59 488.862 475.603C486.283 472.607 483.66 469.635 481.134 466.777C478.606 463.918 476.177 461.173 473.98 458.624C469.569 453.504 466.158 449.242 464.774 446.474C461.864 440.652 456.07 435.058 450.608 432.062C447.883 430.566 445.164 429.675 442.882 429.79C441.731 429.848 440.671 430.164 439.787 430.807C438.9 431.451 438.232 432.395 437.818 433.637C437.041 435.969 435.657 442.814 434.022 452.114C432.382 461.441 430.481 473.296 428.676 485.695C425.068 510.477 421.831 537.495 421.831 550.844C421.831 564.162 422.972 588.494 424.397 609.772C425.109 620.413 425.894 630.299 426.643 637.67C427.017 641.354 427.383 644.418 427.729 646.636C427.901 647.743 428.07 648.652 428.234 649.326C428.265 649.45 428.297 649.566 428.328 649.677C428.32 649.676 428.312 649.675 428.304 649.675C427.637 649.615 426.673 649.539 425.484 649.471C423.108 649.334 419.826 649.232 416.208 649.368C409.013 649.64 400.329 650.86 394.848 654.773C389.528 658.572 379.037 666.2 371.396 673.746C367.586 677.508 364.424 681.308 362.997 684.643C362.281 686.315 361.974 687.935 362.304 689.4C362.64 690.892 363.613 692.126 365.254 693.049C368.598 694.929 372.001 693.874 375.531 691.655C377.303 690.542 379.153 689.108 381.096 687.539C383.048 685.962 385.091 684.251 387.29 682.546C395.92 675.853 406.677 669.454 421.519 673.144C420.848 674.19 419.761 675.343 418.311 676.592C416.56 678.099 414.331 679.708 411.794 681.408C409.258 683.107 406.428 684.887 403.479 686.739C400.532 688.59 397.466 690.513 394.47 692.489C388.486 696.436 382.735 700.627 378.717 704.948C374.714 709.253 372.304 713.826 373.32 718.499L373.336 718.573L373.37 718.642C374.29 720.481 375.562 721.52 377.18 721.788C378.746 722.047 380.518 721.562 382.42 720.653C386.221 718.837 390.944 715.124 396.327 711.062C406.863 703.113 420.097 693.699 434.902 693.152C426.679 702.539 415.743 710.644 407.244 717.236C402.861 720.637 399.101 723.656 396.747 726.229C395.573 727.513 394.702 728.735 394.298 729.882C393.882 731.063 393.954 732.202 394.721 733.188C397.636 736.934 402.474 736.949 407.897 735.21C413.353 733.46 419.692 729.851 425.972 725.886C429.117 723.9 432.261 721.815 435.283 719.819C438.308 717.821 441.21 715.912 443.882 714.269C446.556 712.624 448.984 711.256 451.061 710.334C452.605 709.648 453.905 709.235 454.941 709.11C453.524 711.328 451.102 713.999 448.149 716.899C444.792 720.198 440.805 723.742 436.958 727.192C433.119 730.635 429.413 733.99 426.646 736.89C425.262 738.339 424.098 739.69 423.265 740.894C422.447 742.076 421.886 743.201 421.832 744.184C421.762 745.463 422.081 746.518 422.772 747.32C423.455 748.112 424.442 748.59 425.585 748.842C427.853 749.342 430.944 749 434.246 748.179C440.743 746.562 448.399 742.998 453.064 739.584C449.396 746.256 451.15 755.813 450.552 771.955C449.792 792.47 436.875 1014.34 433.836 1032.58C430.797 1050.81 425.435 1143.51 425.435 1160.99C425.435 1178.47 398.089 1357.79 398.089 1363.11C398.088 1368.42 386.734 1383.62 404.21 1420.09C421.686 1456.57 402.108 1486.4 395.092 1492.28C371.495 1512.03 354.019 1499.87 338.864 1492.28C329.355 1487.51 312.988 1449.73 317.547 1427.69C322.106 1405.66 308.604 1396.54 303.869 1376.02C301.59 1366.14 307.821 1228.47 311.62 1213.27C315.419 1198.07 318.341 1089.57 318.341 1072.85C318.341 1056.13 300.822 850.977 293.224 865.414C285.625 879.852 219.563 1109.32 214.244 1124.52C208.925 1139.72 196.768 1216.46 196.008 1232.42C195.248 1248.37 181.571 1357.79 180.812 1367.67C180.052 1377.54 178.532 1397.3 180.812 1420.09C183.091 1442.89 136.706 1467.2 122.27 1467.2C107.833 1467.2 85.0378 1486.2 69.8408 1496.84C54.6438 1507.48 18.9277 1493.04 9.04983 1482.4C-0.827753 1471.76 5.25067 1453.53 9.04983 1442.89C12.849 1432.25 63.7972 1403.38 69.876 1397.3C75.9547 1391.22 79.7537 1370.7 82.0332 1357.79C84.3127 1344.87 90.3912 1166.31 94.9502 1145.79C99.5093 1125.28 101.029 1073.61 101.029 1053.09C101.029 1036.68 115.423 925.187 122.262 879.851C117.196 869.466 97.9473 846.57 97.9473 841.1C97.9473 834.261 97.1875 806.147 97.9473 796.27C98.7071 786.392 87.3098 757.518 85.0303 743.081C82.7508 728.644 69.2061 583.908 72.1553 566.8C75.9541 544.764 69.0915 462.596 72.1553 429.27C75.9972 387.479 69.834 342.649 107.064 290.221C122.957 267.841 196.767 239.309 219.563 230.19C231.562 225.391 223 199.897 221.914 196.096C214.533 170.26 196.768 123.054 196.768 87.3418C196.768 51.6297 207.285 3.00065 274.271 3ZM173.171 532.607C173.171 521.97 160.211 442.188 154.935 447.505C149.661 452.825 150.416 625.889 150.417 626.066V755.998C150.462 755.95 160.345 745.333 163.335 733.203C166.332 721.042 173.171 543.247 173.171 532.607Z" fill="url(#paint0_linear_1503_32851)" fill-opacity="0.6"/>
<path d="M274.271 3L274.271 0L274.271 3ZM348.734 96.46L351.734 96.46V96.46H348.734ZM330.498 187.64L327.641 186.725L327.526 187.083L327.504 187.458L330.498 187.64ZM336.577 224.112L334.081 225.776L334.081 225.776L336.577 224.112ZM464.229 275.783L466.27 273.585H466.27L464.229 275.783ZM518.177 357.847L520.589 356.064L518.177 357.847ZM591.121 502.214L594.053 501.58L591.121 502.214ZM519.698 674.698L516.974 673.441V673.441L519.698 674.698ZM457.391 734.723L459.191 737.123V737.123L457.391 734.723ZM453.25 739.254L450.851 741.056L453.561 744.663L455.839 740.769L453.25 739.254ZM452.613 738.406L455.012 736.604L453.211 734.207L450.813 736.006L452.613 738.406ZM433.952 746.999L434.676 749.91H434.676L433.952 746.999ZM425.847 747.654L425.201 750.584L425.201 750.584L425.847 747.654ZM423.693 746.526L421.421 748.485L421.421 748.485L423.693 746.526ZM423.047 744.25L420.051 744.087L420.051 744.087L423.047 744.25ZM424.265 741.586L421.798 739.878L421.798 739.879L424.265 741.586ZM427.525 737.729L425.355 735.658H425.355L427.525 737.729ZM437.771 728.098L435.767 725.864L437.771 728.098ZM449.002 717.767L451.104 719.907H451.104L449.002 717.767ZM456.554 708.772L459.195 710.195L459.196 710.193L456.554 708.772ZM456.984 707.972L459.627 709.393L461.749 705.445L457.291 704.987L456.984 707.972ZM456.081 707.879L455.773 710.863L455.775 710.863L456.081 707.879ZM450.567 709.223L449.35 706.481H449.35L450.567 709.223ZM443.245 713.232L441.674 710.677H441.674L443.245 713.232ZM434.612 718.804L432.959 716.3L434.612 718.804ZM425.322 724.857L426.924 727.394H426.924L425.322 724.857ZM407.525 734.052L408.442 736.908H408.442L407.525 734.052ZM395.681 732.44L393.313 734.282L393.313 734.283L395.681 732.44ZM395.445 730.286L392.616 729.29L392.615 729.29L395.445 730.286ZM397.645 727.05L395.431 725.025L395.431 725.025L397.645 727.05ZM407.989 718.197L406.15 715.827L407.989 718.197ZM436.717 692.912L439.007 694.85L439.007 694.85L436.717 692.912ZM437.564 691.911L439.854 693.849L444.03 688.911H437.564V691.911ZM395.595 710.092L393.788 707.697L395.595 710.092ZM381.896 719.556L383.189 722.263L383.189 722.263L381.896 719.556ZM377.378 720.589L376.887 723.548L376.888 723.549L377.378 720.589ZM374.494 718.166L371.557 718.779L371.64 719.173L371.823 719.532L374.494 718.166ZM379.608 705.776L377.412 703.733L377.411 703.733L379.608 705.776ZM395.139 693.505L393.487 691.001L395.139 693.505ZM404.125 687.77L405.721 690.31L404.125 687.77ZM412.471 682.419L414.14 684.911L412.471 682.419ZM419.105 677.514L421.062 679.787L421.062 679.787L419.105 677.514ZM422.986 673.02L425.683 674.335L425.684 674.332L422.986 673.02ZM423.309 672.357L426.006 673.67L427.596 670.405L424.089 669.461L423.309 672.357ZM422.598 672.166L421.817 675.063L421.818 675.063L422.598 672.166ZM386.545 681.584L384.706 679.213L384.706 679.213L386.545 681.584ZM380.331 686.593L382.216 688.927L380.331 686.593ZM374.884 690.625L376.48 693.165L376.48 693.165L374.884 690.625ZM365.85 691.989L364.379 694.604L364.38 694.604L365.85 691.989ZM363.49 689.133L360.563 689.791L360.564 689.792L363.49 689.133ZM364.115 685.121L361.357 683.94L361.357 683.941L364.115 685.121ZM372.251 674.611L370.143 672.477L370.143 672.477L372.251 674.611ZM395.555 655.764L393.812 653.322L393.811 653.322L395.555 655.764ZM416.254 650.584L416.141 647.586H416.141L416.254 650.584ZM425.415 650.685L425.587 647.69H425.587L425.415 650.685ZM428.195 650.887L428.463 647.899H428.463L428.195 650.887ZM428.949 650.959L429.258 647.975H429.258L428.949 650.959ZM429.022 650.967L430.869 648.602L430.192 648.073L429.337 647.983L429.022 650.967ZM430.745 651.703L430.005 654.61L430.005 654.61L430.745 651.703ZM433.772 652.141L433.572 655.134H433.572L433.772 652.141ZM442.295 651.646L442.788 654.606H442.788L442.295 651.646ZM460.148 642.399L462.508 644.253L462.508 644.253L460.148 642.399ZM464.709 634.042L467.423 635.32V635.32L464.709 634.042ZM471.356 618.784L474.129 619.93L471.356 618.784ZM487.691 576.411L490.51 577.439V577.438L487.691 576.411ZM502.458 533.323L505.321 534.221L502.458 533.323ZM507.144 517.17L510.051 517.909L507.144 517.17ZM508.909 507.532L511.909 507.532V507.532L508.909 507.532ZM507.195 500.994L509.932 499.764L509.932 499.764L507.195 500.994ZM502.72 493.208L505.21 491.535L502.72 493.208ZM488.862 475.603L491.136 473.645L488.862 475.603ZM481.134 466.777L483.382 464.79L481.134 466.777ZM473.98 458.624L471.708 460.582L473.98 458.624ZM464.774 446.474L462.091 447.815V447.815L464.774 446.474ZM450.608 432.062L452.052 429.431L452.052 429.431L450.608 432.062ZM442.882 429.79L442.731 426.794L442.731 426.794L442.882 429.79ZM439.787 430.807L438.023 428.38L438.023 428.38L439.787 430.807ZM437.818 433.637L434.972 432.688L434.972 432.688L437.818 433.637ZM434.022 452.114L431.067 451.595L434.022 452.114ZM428.676 485.695L425.707 485.263L428.676 485.695ZM421.831 550.844L418.831 550.844L421.831 550.844ZM424.397 609.772L421.403 609.973L424.397 609.772ZM426.643 637.67L423.658 637.973L426.643 637.67ZM427.729 646.636L424.764 647.097L427.729 646.636ZM428.234 649.326L425.32 650.038L425.32 650.038L428.234 649.326ZM428.328 649.677L428.059 652.665L432.382 653.054L431.218 648.873L428.328 649.677ZM428.304 649.675L428.036 652.663L428.04 652.663L428.304 649.675ZM425.484 649.471L425.656 646.476L425.484 649.471ZM416.208 649.368L416.095 646.37H416.095L416.208 649.368ZM394.848 654.773L393.105 652.332L393.104 652.332L394.848 654.773ZM371.396 673.746L369.288 671.612L369.288 671.612L371.396 673.746ZM362.997 684.643L360.239 683.462L360.239 683.462L362.997 684.643ZM362.304 689.4L359.377 690.059L359.377 690.06L362.304 689.4ZM365.254 693.049L363.784 695.664L363.784 695.664L365.254 693.049ZM375.531 691.655L377.127 694.195L377.128 694.195L375.531 691.655ZM381.096 687.539L382.981 689.873L381.096 687.539ZM387.29 682.546L385.452 680.175L385.451 680.175L387.29 682.546ZM421.519 673.144L424.045 674.761L426.299 671.241L422.242 670.232L421.519 673.144ZM418.311 676.592L420.268 678.865L420.268 678.865L418.311 676.592ZM411.794 681.408L413.464 683.901L411.794 681.408ZM403.479 686.739L405.074 689.28L403.479 686.739ZM394.47 692.489L392.818 689.985L394.47 692.489ZM378.717 704.948L376.52 702.905H376.52L378.717 704.948ZM373.32 718.499L376.256 717.881L376.254 717.871L376.252 717.862L373.32 718.499ZM373.336 718.573L370.4 719.191L370.48 719.569L370.653 719.915L373.336 718.573ZM373.37 718.642L376.054 717.3L376.053 717.3L373.37 718.642ZM377.18 721.788L376.689 724.748L376.69 724.748L377.18 721.788ZM382.42 720.653L383.713 723.36L383.713 723.36L382.42 720.653ZM396.327 711.062L394.52 708.668L396.327 711.062ZM434.902 693.152L437.159 695.129L441.742 689.898L434.792 690.154L434.902 693.152ZM407.244 717.236L405.405 714.866L407.244 717.236ZM396.747 726.229L394.533 724.205L394.533 724.205L396.747 726.229ZM394.298 729.882L391.468 728.885L391.468 728.886L394.298 729.882ZM394.721 733.188L392.353 735.03L392.353 735.03L394.721 733.188ZM407.897 735.21L408.813 738.067H408.813L407.897 735.21ZM425.972 725.886L427.573 728.422H427.573L425.972 725.886ZM435.283 719.819L433.63 717.316L435.283 719.819ZM443.882 714.269L442.31 711.713H442.31L443.882 714.269ZM451.061 710.334L449.843 707.592H449.843L451.061 710.334ZM454.941 709.11L457.469 710.726L460.888 705.376L454.584 706.132L454.941 709.11ZM448.149 716.899L450.252 719.039H450.252L448.149 716.899ZM436.958 727.192L434.955 724.959L436.958 727.192ZM426.646 736.89L424.476 734.818H424.476L426.646 736.89ZM423.265 740.894L420.798 739.186L420.798 739.186L423.265 740.894ZM421.832 744.184L418.837 744.02L418.836 744.021L421.832 744.184ZM422.772 747.32L420.5 749.279L420.5 749.279L422.772 747.32ZM425.585 748.842L424.939 751.771L424.939 751.771L425.585 748.842ZM434.246 748.179L434.97 751.09H434.97L434.246 748.179ZM453.064 739.584L455.693 741.029L451.292 737.163L453.064 739.584ZM450.552 771.955L453.55 772.066L450.552 771.955ZM433.836 1032.58L436.795 1033.07H436.795L433.836 1032.58ZM425.435 1160.99H422.435H425.435ZM398.089 1363.11L401.089 1363.11V1363.11H398.089ZM404.21 1420.09L406.915 1418.8L404.21 1420.09ZM395.092 1492.28L397.018 1494.58H397.018L395.092 1492.28ZM338.864 1492.28L337.52 1494.96H337.52L338.864 1492.28ZM317.547 1427.69L320.485 1428.3L317.547 1427.69ZM303.869 1376.02L300.946 1376.7L303.869 1376.02ZM311.62 1213.27L308.71 1212.54V1212.54L311.62 1213.27ZM318.341 1072.85H321.341H318.341ZM293.224 865.414L290.569 864.017H290.569L293.224 865.414ZM214.244 1124.52L211.413 1123.53L214.244 1124.52ZM196.008 1232.42L199.004 1232.56L196.008 1232.42ZM180.812 1367.67L183.803 1367.9L180.812 1367.67ZM180.812 1420.09L183.797 1419.8L180.812 1420.09ZM122.27 1467.2V1470.2H122.27L122.27 1467.2ZM69.8408 1496.84L71.5612 1499.3H71.5612L69.8408 1496.84ZM9.04983 1482.4L6.85142 1484.44H6.85144L9.04983 1482.4ZM9.04983 1442.89L11.8751 1443.9H11.8751L9.04983 1442.89ZM69.876 1397.3L71.9973 1399.42H71.9973L69.876 1397.3ZM82.0332 1357.79L84.9876 1358.31L82.0332 1357.79ZM94.9502 1145.79L92.0217 1145.14H92.0216L94.9502 1145.79ZM101.029 1053.09H98.0293H101.029ZM122.262 879.851L125.228 880.298L125.367 879.375L124.958 878.535L122.262 879.851ZM97.9473 841.1H94.9473H97.9473ZM97.9473 796.27L94.9561 796.039L97.9473 796.27ZM85.0303 743.081L82.067 743.549L85.0303 743.081ZM72.1553 566.8L69.1989 566.29L72.1553 566.8ZM72.1553 429.27L75.1427 429.544L72.1553 429.27ZM107.064 290.221L104.618 288.484H104.618L107.064 290.221ZM219.563 230.19L220.677 232.976L219.563 230.19ZM221.914 196.096L224.799 195.272V195.272L221.914 196.096ZM196.768 87.3418H193.768H196.768ZM173.171 532.607H176.171H173.171ZM154.935 447.505L152.805 445.392L152.804 445.393L154.935 447.505ZM150.417 626.066H153.417L153.417 626.053L150.417 626.066ZM150.417 755.998H147.417V763.619L152.612 758.043L150.417 755.998ZM163.335 733.203L166.248 733.921L166.248 733.921L163.335 733.203ZM274.271 3V6C293.168 5.99988 306.902 10.3942 316.934 17.1046C326.97 23.8176 333.525 32.9982 337.811 42.9394C346.448 62.9698 345.734 85.6694 345.734 96.46H348.734H351.734C351.734 85.9752 352.54 61.9445 343.321 40.5637C338.679 29.7993 331.462 19.6039 320.27 12.1175C309.074 4.62848 294.124 -0.000127316 274.271 0L274.271 3ZM348.734 96.46L345.734 96.46C345.734 113.153 341.263 135.625 336.712 154.12C334.446 163.327 332.179 171.477 330.477 177.33C328.775 183.181 327.64 186.727 327.641 186.725L330.498 187.64L333.355 188.554C333.378 188.485 337.959 174.161 342.538 155.554C347.099 137.019 351.734 113.937 351.734 96.46L348.734 96.46ZM330.498 187.64C327.504 187.458 327.504 187.459 327.503 187.459C327.503 187.46 327.503 187.461 327.503 187.461C327.503 187.463 327.503 187.465 327.503 187.467C327.503 187.471 327.502 187.477 327.502 187.484C327.501 187.499 327.5 187.52 327.499 187.546C327.496 187.6 327.491 187.676 327.487 187.775C327.477 187.973 327.464 188.26 327.45 188.626C327.422 189.359 327.392 190.412 327.38 191.708C327.355 194.296 327.404 197.873 327.696 201.824C328.268 209.537 329.809 219.368 334.081 225.776L336.577 224.112L339.073 222.448C335.748 217.46 334.249 209.053 333.68 201.38C333.403 197.638 333.356 194.233 333.379 191.764C333.391 190.531 333.42 189.535 333.445 188.852C333.458 188.511 333.47 188.248 333.479 188.073C333.484 187.986 333.487 187.92 333.489 187.878C333.491 187.856 333.491 187.841 333.492 187.831C333.492 187.827 333.492 187.824 333.493 187.822C333.493 187.821 333.493 187.82 333.493 187.82C333.493 187.82 333.493 187.82 333.493 187.82C333.493 187.821 333.493 187.821 330.498 187.64ZM336.577 224.112L334.081 225.776C334.87 226.96 336.037 227.939 337.272 228.764C338.539 229.611 340.071 230.423 341.784 231.209C345.208 232.781 349.619 234.371 354.662 236.002C364.727 239.257 377.812 242.833 391.354 246.841C404.973 250.871 419.176 255.372 431.784 260.548C444.448 265.746 455.227 271.518 462.187 277.982L464.229 275.783L466.27 273.585C458.501 266.371 446.909 260.271 434.063 254.997C421.162 249.701 406.719 245.131 393.057 241.087C379.318 237.021 366.488 233.521 356.509 230.293C351.531 228.683 347.387 227.179 344.287 225.757C342.738 225.045 341.516 224.384 340.607 223.776C339.665 223.147 339.234 222.689 339.073 222.448L336.577 224.112ZM464.229 275.783L462.187 277.982C473.6 288.579 483.667 304.368 492.588 319.954C501.367 335.291 509.168 350.706 515.764 359.63L518.177 357.847L520.589 356.064C514.268 347.511 506.872 332.83 497.795 316.973C488.861 301.365 478.412 284.86 466.27 273.585L464.229 275.783ZM518.177 357.847L515.764 359.63C522.084 368.181 538.223 394.8 553.828 424.035C569.472 453.344 584.266 484.706 588.189 502.848L591.121 502.214L594.053 501.58C589.926 482.49 574.706 450.407 559.121 421.209C543.495 391.937 527.186 364.989 520.589 356.064L518.177 357.847ZM591.121 502.214L588.189 502.848C588.803 505.686 588.463 510.318 587.056 516.64C585.673 522.852 583.352 530.316 580.346 538.614C574.338 555.202 565.693 574.862 556.684 594.018C547.681 613.161 538.343 631.744 530.965 646.167C523.635 660.499 518.147 670.9 516.974 673.441L519.698 674.698L522.422 675.955C523.529 673.557 528.869 663.442 536.307 648.9C543.699 634.449 553.071 615.8 562.114 596.571C571.151 577.355 579.886 557.502 585.988 540.658C589.037 532.239 591.452 524.507 592.913 517.944C594.349 511.491 594.959 505.77 594.053 501.58L591.121 502.214ZM519.698 674.698L516.974 673.441C516.57 674.316 515.598 675.768 513.97 677.784C512.386 679.746 510.319 682.075 507.883 684.667C503.014 689.85 496.771 695.982 490.193 702.169C477.015 714.565 462.674 727.01 455.591 732.323L457.391 734.723L459.191 737.123C466.545 731.607 481.078 718.98 494.304 706.539C500.929 700.308 507.27 694.082 512.256 688.776C514.747 686.124 516.925 683.676 518.638 681.554C520.308 679.487 521.686 677.55 522.422 675.955L519.698 674.698ZM457.391 734.723L455.591 732.323C453.48 733.906 451.861 735.688 450.661 737.739L453.25 739.254L455.839 740.769C456.597 739.475 457.653 738.276 459.191 737.123L457.391 734.723ZM453.25 739.254L455.649 737.452L455.012 736.604L452.613 738.406L450.215 740.208L450.851 741.056L453.25 739.254ZM452.613 738.406L450.813 736.006C446.675 739.111 439.365 742.561 433.228 744.088L433.952 746.999L434.676 749.91C441.511 748.21 449.571 744.439 454.414 740.806L452.613 738.406ZM433.952 746.999L433.228 744.088C430.092 744.868 427.782 745.009 426.492 744.725L425.847 747.654L425.201 750.584C427.882 751.175 431.304 750.749 434.676 749.91L433.952 746.999ZM425.847 747.654L426.493 744.725C425.905 744.595 425.863 744.449 425.966 744.568L423.693 746.526L421.421 748.485C422.435 749.661 423.822 750.28 425.201 750.584L425.847 747.654ZM423.693 746.526L425.966 744.568C425.989 744.595 426.011 744.626 426.028 744.658C426.045 744.689 426.053 744.711 426.055 744.717C426.058 744.73 426.03 744.645 426.042 744.413L423.047 744.25L420.051 744.087C419.962 745.729 420.371 747.266 421.421 748.485L423.693 746.526ZM423.047 744.25L426.042 744.413C426.032 744.605 425.989 744.604 426.104 744.35C426.209 744.117 426.403 743.768 426.731 743.293L424.265 741.586L421.798 739.879C420.948 741.107 420.133 742.581 420.051 744.087L423.047 744.25ZM424.265 741.586L426.731 743.293C427.383 742.352 428.376 741.183 429.695 739.801L427.525 737.729L425.355 735.658C423.945 737.136 422.708 738.564 421.798 739.878L424.265 741.586ZM427.525 737.729L429.695 739.801C432.33 737.041 435.909 733.797 439.774 730.331L437.771 728.098L435.767 725.864C431.939 729.298 428.18 732.7 425.355 735.658L427.525 737.729ZM437.771 728.098L439.774 730.331C443.588 726.91 447.661 723.289 451.104 719.907L449.002 717.767L446.9 715.627C443.578 718.89 439.629 722.401 435.767 725.864L437.771 728.098ZM449.002 717.767L451.104 719.907C454.468 716.602 457.578 713.198 459.195 710.195L456.554 708.772L453.912 707.35C452.772 709.469 450.273 712.312 446.9 715.627L449.002 717.767ZM456.554 708.772L459.196 710.193L459.627 709.393L456.984 707.972L454.342 706.551L453.912 707.352L456.554 708.772ZM456.984 707.972L457.291 704.987L456.388 704.895L456.081 707.879L455.775 710.863L456.678 710.956L456.984 707.972ZM456.081 707.879L456.389 704.895C454.065 704.655 451.543 705.507 449.35 706.481L450.567 709.223L451.785 711.965C453.845 711.05 455.122 710.796 455.773 710.863L456.081 707.879ZM450.567 709.223L449.35 706.481C447.016 707.517 444.4 709.001 441.674 710.677L443.245 713.232L444.817 715.788C447.469 714.157 449.818 712.838 451.785 711.965L450.567 709.223ZM443.245 713.232L441.674 710.677C438.934 712.362 435.976 714.307 432.959 716.3L434.612 718.804L436.266 721.307C439.294 719.307 442.173 717.414 444.817 715.788L443.245 713.232ZM434.612 718.804L432.959 716.3C429.924 718.305 426.821 720.363 423.721 722.321L425.322 724.857L426.924 727.394C430.088 725.396 433.25 723.299 436.266 721.307L434.612 718.804ZM425.322 724.857L423.721 722.321C417.453 726.279 411.509 729.623 406.609 731.195L407.525 734.052L408.442 736.908C414.134 735.082 420.64 731.362 426.924 727.394L425.322 724.857ZM407.525 734.052L406.609 731.195C401.51 732.831 399.204 732.084 398.048 730.598L395.681 732.44L393.313 734.283C396.971 738.984 402.879 738.693 408.442 736.908L407.525 734.052ZM395.681 732.44L398.049 730.599C398.08 730.639 398.128 730.711 398.171 730.814C398.216 730.919 398.244 731.029 398.256 731.134C398.279 731.343 398.228 731.418 398.275 731.282L395.445 730.286L392.615 729.29C392.353 730.035 392.19 730.891 392.294 731.81C392.402 732.761 392.775 733.592 393.313 734.282L395.681 732.44ZM395.445 730.286L398.275 731.282C398.395 730.941 398.809 730.222 399.858 729.074L397.645 727.05L395.431 725.025C394.204 726.367 393.139 727.802 392.616 729.29L395.445 730.286ZM397.645 727.05L399.858 729.074C401.925 726.815 405.382 724.017 409.828 720.568L407.989 718.197L406.15 715.827C401.794 719.206 397.906 722.319 395.431 725.025L397.645 727.05ZM407.989 718.197L409.828 720.568C418.482 713.854 430.342 705.092 439.007 694.85L436.717 692.912L434.427 690.974C426.265 700.621 415.022 708.945 406.15 715.827L407.989 718.197ZM436.717 692.912L439.007 694.85L439.854 693.849L437.564 691.911L435.273 689.974L434.426 690.975L436.717 692.912ZM437.564 691.911V688.911H436.253V691.911V694.911H437.564V691.911ZM436.253 691.911V688.911C419.288 688.911 404.489 699.623 393.788 707.697L395.595 710.092L397.402 712.487C408.322 704.247 421.584 694.911 436.253 694.911V691.911ZM395.595 710.092L393.788 707.697C388.172 711.934 383.91 715.268 380.602 716.849L381.896 719.556L383.189 722.263C387.198 720.347 392.118 716.473 397.402 712.487L395.595 710.092ZM381.896 719.556L380.602 716.849C378.957 717.635 378.148 717.676 377.868 717.629L377.378 720.589L376.888 723.549C378.998 723.898 381.179 723.223 383.189 722.263L381.896 719.556ZM377.378 720.589L377.869 717.629C377.795 717.617 377.758 717.601 377.697 717.552C377.614 717.485 377.416 717.29 377.165 716.8L374.494 718.166L371.823 719.532C372.934 721.704 374.613 723.171 376.887 723.548L377.378 720.589ZM374.494 718.166L377.431 717.553C376.895 714.984 378.089 711.816 381.805 707.819L379.608 705.776L377.411 703.733C373.321 708.133 370.406 713.257 371.557 718.779L374.494 718.166ZM379.608 705.776L381.805 707.819C385.457 703.892 390.844 699.932 396.791 696.009L395.139 693.505L393.487 691.001C387.488 694.958 381.584 699.246 377.412 703.733L379.608 705.776ZM395.139 693.505L396.791 696.009C399.74 694.064 402.765 692.166 405.721 690.31L404.125 687.77L402.53 685.229C399.586 687.077 396.502 689.011 393.487 691.001L395.139 693.505ZM404.125 687.77L405.721 690.31C408.66 688.464 411.544 686.651 414.14 684.911L412.471 682.419L410.801 679.927C408.291 681.608 405.484 683.374 402.53 685.229L404.125 687.77ZM412.471 682.419L414.14 684.911C416.728 683.178 419.121 681.458 421.062 679.787L419.105 677.514L417.147 675.24C415.477 676.678 413.317 678.241 410.801 679.927L412.471 682.419ZM419.105 677.514L421.062 679.787C422.939 678.171 424.703 676.343 425.683 674.335L422.986 673.02L420.29 671.704C419.86 672.586 418.859 673.766 417.147 675.24L419.105 677.514ZM422.986 673.02L425.684 674.332L426.006 673.67L423.309 672.357L420.611 671.044L420.289 671.707L422.986 673.02ZM423.309 672.357L424.089 669.461L423.378 669.269L422.598 672.166L421.818 675.063L422.529 675.254L423.309 672.357ZM422.598 672.166L423.378 669.269C406.179 664.636 393.792 672.167 384.706 679.213L386.545 681.584L388.384 683.955C397.029 677.249 407.412 671.182 421.817 675.063L422.598 672.166ZM386.545 681.584L384.706 679.213C382.466 680.951 380.32 682.745 378.446 684.259L380.331 686.593L382.216 688.927C384.202 687.323 386.201 685.647 388.384 683.955L386.545 681.584ZM380.331 686.593L378.446 684.259C376.516 685.818 374.832 687.114 373.288 688.085L374.884 690.625L376.48 693.165C378.348 691.991 380.267 690.5 382.216 688.927L380.331 686.593ZM374.884 690.625L373.288 688.085C370.123 690.073 368.565 690.074 367.32 689.374L365.85 691.989L364.38 694.604C368.61 696.982 372.793 695.482 376.48 693.165L374.884 690.625ZM365.85 691.989L367.32 689.374C366.891 689.133 366.68 688.927 366.578 688.8C366.484 688.683 366.442 688.584 366.417 688.474L363.49 689.133L360.564 689.792C361.03 691.862 362.382 693.481 364.379 694.604L365.85 691.989ZM363.49 689.133L366.417 688.474C366.357 688.206 366.343 687.54 366.873 686.302L364.115 685.121L361.357 683.941C360.563 685.796 360.12 687.819 360.563 689.791L363.49 689.133ZM364.115 685.121L366.873 686.302C367.958 683.767 370.609 680.449 374.359 676.746L372.251 674.611L370.143 672.477C366.308 676.264 362.93 680.268 361.357 683.94L364.115 685.121ZM372.251 674.611L374.359 676.746C381.732 669.465 391.965 662.013 397.298 658.205L395.555 655.764L393.811 653.322C388.497 657.116 377.898 664.819 370.143 672.477L372.251 674.611ZM395.555 655.764L397.298 658.205C399.419 656.691 402.362 655.579 405.793 654.823C409.194 654.074 412.888 653.713 416.367 653.582L416.254 650.584L416.141 647.586C412.438 647.726 408.364 648.113 404.501 648.964C400.669 649.808 396.853 651.151 393.812 653.322L395.555 655.764ZM416.254 650.584L416.367 653.582C419.818 653.452 422.961 653.549 425.243 653.68L425.415 650.685L425.587 647.69C423.17 647.551 419.829 647.447 416.141 647.586L416.254 650.584ZM425.415 650.685L425.243 653.68C426.381 653.745 427.3 653.818 427.927 653.875L428.195 650.887L428.463 647.899C427.78 647.837 426.797 647.759 425.587 647.69L425.415 650.685ZM428.195 650.887L427.927 653.875C428.241 653.903 428.483 653.927 428.641 653.943L428.949 650.959L429.258 647.975C429.073 647.956 428.804 647.929 428.463 647.899L428.195 650.887ZM428.949 650.959L428.64 653.943C428.675 653.947 428.652 653.944 428.708 653.95L429.022 650.967L429.337 647.983C429.33 647.983 429.324 647.982 429.309 647.98C429.296 647.979 429.278 647.977 429.258 647.975L428.949 650.959ZM429.022 650.967L427.176 653.331C428.093 654.047 429.201 654.406 430.005 654.61L430.745 651.703L431.486 648.796C431.237 648.733 431.056 648.672 430.933 648.621C430.802 648.566 430.801 648.549 430.869 648.602L429.022 650.967ZM430.745 651.703L430.005 654.61C431.055 654.878 432.277 655.047 433.572 655.134L433.772 652.141L433.973 649.147C432.917 649.077 432.078 648.947 431.485 648.796L430.745 651.703ZM433.772 652.141L433.572 655.134C436.174 655.308 439.4 655.17 442.788 654.606L442.295 651.646L441.802 648.687C438.837 649.182 436.078 649.288 433.973 649.147L433.772 652.141ZM442.295 651.646L442.788 654.606C449.433 653.498 457.52 650.602 462.508 644.253L460.148 642.399L457.789 640.546C454.148 645.181 447.821 647.684 441.802 648.687L442.295 651.646ZM460.148 642.399L462.508 644.253C463.846 642.549 465.549 639.3 467.423 635.32L464.709 634.042L461.995 632.764C460.076 636.839 458.639 639.464 457.789 640.546L460.148 642.399ZM464.709 634.042L467.423 635.32C469.359 631.208 471.643 625.946 474.129 619.93L471.356 618.784L468.584 617.638C466.116 623.61 463.873 628.775 461.995 632.764L464.709 634.042ZM471.356 618.784L474.129 619.93C479.104 607.891 484.941 592.716 490.51 577.439L487.691 576.411L484.873 575.384C479.324 590.606 473.519 605.698 468.584 617.638L471.356 618.784ZM487.691 576.411L490.51 577.438C496.078 562.162 501.393 546.744 505.321 534.221L502.458 533.323L499.596 532.425C495.704 544.834 490.421 560.161 484.873 575.384L487.691 576.411ZM502.458 533.323L505.321 534.221C507.283 527.963 508.911 522.393 510.051 517.909L507.144 517.17L504.236 516.431C503.134 520.765 501.542 526.219 499.596 532.425L502.458 533.323ZM507.144 517.17L510.051 517.909C511.155 513.569 511.909 509.856 511.909 507.532L508.909 507.532L505.909 507.532C505.909 508.993 505.363 512.001 504.236 516.431L507.144 517.17ZM508.909 507.532L511.909 507.532C511.909 504.996 511.085 502.332 509.932 499.764L507.195 500.994L504.459 502.224C505.457 504.445 505.909 506.213 505.909 507.533L508.909 507.532ZM507.195 500.994L509.932 499.764C508.757 497.152 507.116 494.371 505.21 491.535L502.72 493.208L500.23 494.881C502.031 497.562 503.474 500.032 504.459 502.224L507.195 500.994ZM502.72 493.208L505.21 491.535C501.398 485.863 496.306 479.65 491.136 473.645L488.862 475.603L486.589 477.56C491.73 483.53 496.627 489.52 500.23 494.881L502.72 493.208ZM488.862 475.603L491.136 473.645C488.542 470.633 485.907 467.648 483.382 464.79L481.134 466.777L478.886 468.764C481.413 471.623 484.024 474.581 486.589 477.56L488.862 475.603ZM481.134 466.777L483.382 464.79C480.85 461.926 478.434 459.197 476.253 456.666L473.98 458.624L471.708 460.582C473.919 463.149 476.363 465.91 478.886 468.764L481.134 466.777ZM473.98 458.624L476.253 456.666C471.776 451.469 468.642 447.5 467.458 445.132L464.774 446.474L462.091 447.815C463.675 450.983 467.362 455.538 471.708 460.582L473.98 458.624ZM464.774 446.474L467.458 445.132C464.242 438.7 457.98 432.684 452.052 429.431L450.608 432.062L449.165 434.692C454.16 437.432 459.486 442.605 462.091 447.815L464.774 446.474ZM450.608 432.062L452.052 429.431C449.117 427.821 445.817 426.639 442.731 426.794L442.882 429.79L443.032 432.786C444.511 432.712 446.649 433.311 449.165 434.692L450.608 432.062ZM442.882 429.79L442.731 426.794C441.125 426.875 439.471 427.328 438.023 428.38L439.787 430.807L441.551 433.233C441.871 433.001 442.337 432.821 443.033 432.786L442.882 429.79ZM439.787 430.807L438.023 428.38C436.558 429.445 435.554 430.944 434.972 432.688L437.818 433.637L440.664 434.585C440.911 433.846 441.243 433.457 441.551 433.233L439.787 430.807ZM437.818 433.637L434.972 432.688C434.108 435.282 432.686 442.387 431.067 451.595L434.022 452.114L436.976 452.634C438.628 443.24 439.974 436.657 440.665 434.585L437.818 433.637ZM434.022 452.114L431.067 451.595C429.421 460.955 427.516 472.839 425.707 485.263L428.676 485.695L431.645 486.128C433.446 473.752 435.342 461.927 436.976 452.634L434.022 452.114ZM428.676 485.695L425.707 485.263C422.105 510.005 418.831 537.241 418.831 550.844L421.831 550.844L424.831 550.844C424.831 537.749 428.031 510.948 431.645 486.128L428.676 485.695ZM421.831 550.844L418.831 550.844C418.831 564.266 419.977 588.679 421.403 609.973L424.397 609.772L427.39 609.572C425.966 588.309 424.831 564.058 424.831 550.844L421.831 550.844ZM424.397 609.772L421.403 609.973C422.117 620.63 422.904 630.554 423.658 637.973L426.643 637.67L429.627 637.367C428.883 630.044 428.101 620.196 427.39 609.572L424.397 609.772ZM426.643 637.67L423.658 637.973C424.034 641.675 424.407 644.8 424.764 647.097L427.729 646.636L430.693 646.174C430.36 644.035 430 641.033 429.627 637.367L426.643 637.67ZM427.729 646.636L424.764 647.097C424.942 648.236 425.126 649.242 425.32 650.038L428.234 649.326L431.149 648.614C431.014 648.062 430.86 647.25 430.693 646.174L427.729 646.636ZM428.234 649.326L425.32 650.038C425.364 650.218 425.411 650.385 425.438 650.481L428.328 649.677L431.218 648.873C431.184 648.748 431.165 648.681 431.149 648.614L428.234 649.326ZM428.328 649.677L428.597 646.689C428.581 646.687 428.568 646.686 428.559 646.686C428.551 646.685 428.544 646.684 428.543 646.684C428.539 646.684 428.542 646.684 428.545 646.685C428.548 646.685 428.556 646.685 428.567 646.686L428.304 649.675L428.04 652.663C428.055 652.665 428.067 652.666 428.075 652.666C428.079 652.666 428.082 652.667 428.085 652.667C428.087 652.667 428.089 652.667 428.089 652.667C428.092 652.667 428.089 652.667 428.085 652.667C428.081 652.667 428.071 652.666 428.059 652.665L428.328 649.677ZM428.304 649.675L428.572 646.687C427.875 646.624 426.879 646.546 425.656 646.476L425.484 649.471L425.312 652.466C426.467 652.532 427.399 652.606 428.036 652.663L428.304 649.675ZM425.484 649.471L425.656 646.476C423.213 646.335 419.832 646.229 416.095 646.37L416.208 649.368L416.321 652.366C419.82 652.234 423.003 652.333 425.312 652.466L425.484 649.471ZM416.208 649.368L416.095 646.37C408.866 646.643 399.371 647.858 393.105 652.332L394.848 654.773L396.591 657.215C401.286 653.863 409.16 652.637 416.321 652.366L416.208 649.368ZM394.848 654.773L393.104 652.332C387.794 656.124 377.12 663.877 369.288 671.612L371.396 673.746L373.504 675.881C380.954 668.523 391.262 661.02 396.591 657.215L394.848 654.773ZM371.396 673.746L369.288 671.612C365.435 675.417 361.91 679.559 360.239 683.462L362.997 684.643L365.755 685.823C366.939 683.057 369.737 679.6 373.504 675.881L371.396 673.746ZM362.997 684.643L360.239 683.462C359.392 685.442 358.855 687.741 359.377 690.059L362.304 689.4L365.23 688.742C365.092 688.128 365.171 687.187 365.755 685.823L362.997 684.643ZM362.304 689.4L359.377 690.06C359.933 692.53 361.548 694.407 363.784 695.664L365.254 693.049L366.724 690.434C365.677 689.845 365.346 689.253 365.23 688.741L362.304 689.4ZM365.254 693.049L363.784 695.664C368.624 698.385 373.342 696.574 377.127 694.195L375.531 691.655L373.935 689.115C370.66 691.173 368.572 691.472 366.724 690.434L365.254 693.049ZM375.531 691.655L377.128 694.195C379.061 692.98 381.028 691.45 382.981 689.873L381.096 687.539L379.211 685.205C377.277 686.767 375.545 688.103 373.935 689.115L375.531 691.655ZM381.096 687.539L382.981 689.873C384.989 688.251 386.958 686.6 389.129 684.916L387.29 682.546L385.451 680.175C383.223 681.903 381.107 683.674 379.211 685.205L381.096 687.539ZM387.29 682.546L389.129 684.917C397.547 678.387 407.329 672.707 420.795 676.055L421.519 673.144L422.242 670.232C406.026 666.201 394.292 673.319 385.452 680.175L387.29 682.546ZM421.519 673.144L418.992 671.526C418.548 672.219 417.709 673.151 416.353 674.318L418.311 676.592L420.268 678.865C421.814 677.534 423.149 676.161 424.045 674.761L421.519 673.144ZM418.311 676.592L416.353 674.318C414.738 675.709 412.625 677.24 410.124 678.916L411.794 681.408L413.464 683.901C416.037 682.177 418.382 680.489 420.268 678.865L418.311 676.592ZM411.794 681.408L410.124 678.916C407.632 680.586 404.84 682.342 401.883 684.199L403.479 686.739L405.074 689.28C408.016 687.432 410.885 685.628 413.464 683.901L411.794 681.408ZM403.479 686.739L401.883 684.199C398.942 686.046 395.847 687.987 392.818 689.985L394.47 692.489L396.122 694.993C399.084 693.039 402.121 691.134 405.074 689.28L403.479 686.739ZM394.47 692.489L392.818 689.985C386.808 693.95 380.798 698.304 376.52 702.905L378.717 704.948L380.914 706.991C384.671 702.95 390.164 698.923 396.122 694.993L394.47 692.489ZM378.717 704.948L376.52 702.905C372.331 707.41 369.049 712.973 370.389 719.136L373.32 718.499L376.252 717.862C375.56 714.679 377.096 711.096 380.914 706.991L378.717 704.948ZM373.32 718.499L370.385 719.117L370.4 719.191L373.336 718.573L376.272 717.955L376.256 717.881L373.32 718.499ZM373.336 718.573L370.653 719.915L370.687 719.983L373.37 718.642L376.053 717.3L376.019 717.232L373.336 718.573ZM373.37 718.642L370.687 719.983C371.924 722.457 373.9 724.286 376.689 724.748L377.18 721.788L377.67 718.828C377.224 718.754 376.656 718.505 376.054 717.3L373.37 718.642ZM377.18 721.788L376.69 724.748C379.17 725.158 381.628 724.357 383.713 723.36L382.42 720.653L381.127 717.946C379.409 718.767 378.322 718.936 377.67 718.828L377.18 721.788ZM382.42 720.653L383.713 723.36C387.865 721.377 392.916 717.394 398.134 713.457L396.327 711.062L394.52 708.668C388.973 712.853 384.577 716.298 381.127 717.946L382.42 720.653ZM396.327 711.062L398.134 713.457C408.769 705.433 421.284 696.657 435.013 696.15L434.902 693.152L434.792 690.154C418.909 690.741 404.958 700.793 394.52 708.668L396.327 711.062ZM434.902 693.152L432.646 691.175C424.658 700.293 414.004 708.195 405.405 714.866L407.244 717.236L409.083 719.607C417.481 713.092 428.699 704.785 437.159 695.129L434.902 693.152ZM407.244 717.236L405.405 714.866C401.067 718.232 397.091 721.408 394.533 724.205L396.747 726.229L398.961 728.254C401.11 725.904 404.655 723.042 409.083 719.607L407.244 717.236ZM396.747 726.229L394.533 724.205C393.271 725.586 392.074 727.166 391.468 728.885L394.298 729.882L397.128 730.878C397.329 730.305 397.876 729.441 398.961 728.254L396.747 726.229ZM394.298 729.882L391.468 728.886C390.793 730.802 390.825 733.065 392.353 735.03L394.721 733.188L397.089 731.345C397.072 731.324 397.062 731.309 397.057 731.3C397.052 731.29 397.049 731.286 397.049 731.284C397.049 731.284 397.049 731.283 397.049 731.284C397.049 731.284 397.049 731.284 397.049 731.284C397.049 731.284 397.049 731.283 397.048 731.282C397.048 731.281 397.048 731.279 397.048 731.276C397.046 731.258 397.037 731.137 397.128 730.878L394.298 729.882ZM394.721 733.188L392.353 735.03C396.523 740.39 403.171 739.876 408.813 738.067L407.897 735.21L406.98 732.353C401.777 734.022 398.748 733.478 397.089 731.345L394.721 733.188ZM407.897 735.21L408.813 738.067C414.666 736.189 421.286 732.393 427.573 728.422L425.972 725.886L424.37 723.349C418.099 727.309 412.041 730.73 406.98 732.353L407.897 735.21ZM425.972 725.886L427.573 728.422C430.75 726.416 433.923 724.313 436.937 722.323L435.283 719.819L433.63 717.316C430.599 719.318 427.483 721.383 424.37 723.349L425.972 725.886ZM435.283 719.819L436.937 722.323C439.967 720.321 442.829 718.438 445.453 716.824L443.882 714.269L442.31 711.713C439.59 713.386 436.649 715.322 433.63 717.316L435.283 719.819ZM443.882 714.269L445.453 716.824C448.092 715.202 450.386 713.916 452.278 713.076L451.061 710.334L449.843 707.592C447.583 708.595 445.021 710.046 442.31 711.713L443.882 714.269ZM451.061 710.334L452.278 713.076C453.705 712.442 454.691 712.162 455.299 712.089L454.941 709.11L454.584 706.132C453.12 706.307 451.505 706.854 449.843 707.592L451.061 710.334ZM454.941 709.11L452.413 707.495C451.19 709.409 448.977 711.881 446.047 714.759L448.149 716.899L450.252 719.039C453.228 716.116 455.858 713.248 457.469 710.726L454.941 709.11ZM448.149 716.899L446.047 714.759C442.75 717.998 438.826 721.487 434.955 724.959L436.958 727.192L438.961 729.426C442.785 725.996 446.833 722.398 450.252 719.039L448.149 716.899ZM436.958 727.192L434.955 724.959C431.134 728.386 427.338 731.82 424.476 734.818L426.646 736.89L428.815 738.961C431.489 736.161 435.104 732.885 438.961 729.426L436.958 727.192ZM426.646 736.89L424.476 734.818C423.046 736.315 421.76 737.796 420.798 739.186L423.265 740.894L425.731 742.601C426.435 741.584 427.478 740.362 428.815 738.961L426.646 736.89ZM423.265 740.894L420.798 739.186C419.924 740.449 418.938 742.159 418.837 744.02L421.832 744.184L424.828 744.347C424.827 744.353 424.829 744.315 424.854 744.225C424.879 744.136 424.922 744.011 424.996 743.848C425.146 743.514 425.386 743.1 425.731 742.601L423.265 740.894ZM421.832 744.184L418.836 744.021C418.734 745.909 419.204 747.775 420.5 749.279L422.772 747.32L425.045 745.362C424.958 745.261 424.791 745.017 424.828 744.346L421.832 744.184ZM422.772 747.32L420.5 749.279C421.742 750.719 423.403 751.433 424.939 751.771L425.585 748.842L426.231 745.912C425.481 745.747 425.168 745.504 425.045 745.362L422.772 747.32ZM425.585 748.842L424.939 751.771C427.903 752.425 431.549 751.941 434.97 751.09L434.246 748.179L433.522 745.267C430.339 746.059 427.803 746.259 426.231 745.912L425.585 748.842ZM434.246 748.179L434.97 751.09C441.815 749.387 449.834 745.666 454.835 742.005L453.064 739.584L451.292 737.163C446.965 740.33 439.67 743.738 433.522 745.267L434.246 748.179ZM453.064 739.584L450.434 738.139C448.222 742.165 447.753 746.869 447.657 752.164C447.556 757.777 447.856 763.677 447.554 771.844L450.552 771.955L453.55 772.066C453.845 764.09 453.568 757.141 453.656 752.272C453.75 747.085 454.238 743.675 455.693 741.029L453.064 739.584ZM450.552 771.955L447.554 771.844C447.176 782.056 443.759 842.608 440.054 902.936C438.203 933.089 436.28 963.164 434.63 986.838C432.973 1010.62 431.606 1027.71 430.877 1032.08L433.836 1032.58L436.795 1033.07C437.585 1028.33 438.973 1010.84 440.616 987.255C442.267 963.557 444.191 933.463 446.043 903.304C449.746 843.009 453.168 782.369 453.55 772.066L450.552 771.955ZM433.836 1032.58L430.877 1032.08C429.325 1041.39 427.217 1069.32 425.501 1096.88C423.782 1124.5 422.435 1152.14 422.435 1160.99H425.435H428.435C428.435 1152.36 429.768 1124.92 431.49 1097.25C433.215 1069.54 435.307 1042 436.795 1033.07L433.836 1032.58ZM425.435 1160.99H422.435C422.435 1165.11 420.768 1179.32 418.188 1198.8C415.626 1218.14 412.21 1242.34 408.792 1266.18C405.373 1290.03 401.958 1313.46 399.392 1331.31C398.11 1340.23 397.041 1347.75 396.292 1353.2C395.917 1355.93 395.622 1358.15 395.419 1359.78C395.231 1361.29 395.089 1362.54 395.089 1363.11H398.089H401.089C401.089 1363.12 401.096 1362.94 401.151 1362.42C401.2 1361.95 401.274 1361.32 401.373 1360.52C401.571 1358.93 401.863 1356.74 402.236 1354.02C402.982 1348.58 404.049 1341.08 405.331 1332.17C407.892 1314.35 411.314 1290.86 414.731 1267.03C418.15 1243.19 421.57 1218.96 424.136 1199.59C426.683 1180.36 428.435 1165.61 428.435 1160.99H425.435ZM398.089 1363.11L395.089 1363.11C395.089 1363.33 395.017 1363.8 394.744 1364.78C394.458 1365.82 394.15 1366.75 393.705 1368.29C392.881 1371.15 391.951 1374.91 391.604 1379.7C390.906 1389.32 392.578 1402.76 401.505 1421.39L404.21 1420.09L406.915 1418.8C398.367 1400.96 396.977 1388.56 397.588 1380.13C397.895 1375.91 398.711 1372.59 399.47 1369.96C399.816 1368.76 400.26 1367.35 400.526 1366.39C400.805 1365.38 401.089 1364.22 401.089 1363.11L398.089 1363.11ZM404.21 1420.09L401.505 1421.39C409.887 1438.88 409.364 1454.7 405.947 1466.85C402.491 1479.14 396.126 1487.5 393.166 1489.98L395.092 1492.28L397.018 1494.58C401.074 1491.18 408.005 1481.69 411.723 1468.47C415.481 1455.11 416.009 1437.77 406.915 1418.8L404.21 1420.09ZM395.092 1492.28L393.166 1489.98C381.976 1499.34 372.575 1500.94 364.3 1499.57C355.671 1498.15 348.096 1493.55 340.209 1489.6L338.864 1492.28L337.52 1494.96C344.787 1498.6 353.528 1503.88 363.324 1505.49C373.475 1507.17 384.61 1504.96 397.018 1494.58L395.092 1492.28ZM338.864 1492.28L340.209 1489.6C339.514 1489.25 338.518 1488.46 337.283 1487.06C336.078 1485.69 334.776 1483.88 333.436 1481.7C330.759 1477.34 328.045 1471.67 325.745 1465.42C321.098 1452.8 318.376 1438.49 320.485 1428.3L317.547 1427.69L314.609 1427.08C312.158 1438.93 315.341 1454.53 320.115 1467.5C322.525 1474.04 325.402 1480.09 328.325 1484.84C329.785 1487.22 331.286 1489.32 332.779 1491.02C334.242 1492.68 335.837 1494.12 337.52 1494.96L338.864 1492.28ZM317.547 1427.69L320.485 1428.3C322.934 1416.46 320.486 1408.01 316.932 1400.06C313.352 1392.06 309.072 1385.23 306.792 1375.35L303.869 1376.02L300.946 1376.7C303.4 1387.33 308.239 1395.32 311.454 1402.51C314.695 1409.76 316.719 1416.88 314.609 1427.08L317.547 1427.69ZM303.869 1376.02L306.792 1375.35C306.717 1375.02 306.614 1374.15 306.535 1372.58C306.459 1371.09 306.412 1369.14 306.392 1366.79C306.352 1362.1 306.422 1355.88 306.584 1348.63C306.906 1334.13 307.589 1315.54 308.462 1296.78C309.335 1278.02 310.398 1259.1 311.478 1243.94C312.019 1236.35 312.562 1229.72 313.088 1224.52C313.621 1219.25 314.117 1215.65 314.531 1214L311.62 1213.27L308.71 1212.54C308.173 1214.69 307.644 1218.72 307.118 1223.92C306.584 1229.2 306.036 1235.9 305.493 1243.51C304.408 1258.74 303.343 1277.71 302.468 1296.5C301.594 1315.29 300.909 1333.93 300.585 1348.5C300.423 1355.78 300.351 1362.06 300.392 1366.84C300.412 1369.23 300.461 1371.27 300.543 1372.89C300.62 1374.42 300.736 1375.79 300.946 1376.7L303.869 1376.02ZM311.62 1213.27L314.531 1214C315.562 1209.87 316.466 1199.92 317.267 1187.46C318.077 1174.85 318.8 1159.31 319.403 1143.75C320.608 1112.62 321.341 1081.27 321.341 1072.85H318.341H315.341C315.341 1081.15 314.612 1112.4 313.407 1143.51C312.805 1159.06 312.085 1174.54 311.279 1187.08C310.464 1199.76 309.578 1209.07 308.71 1212.54L311.62 1213.27ZM318.341 1072.85H321.341C321.341 1064.3 316.939 1008.66 311.616 957.141C308.95 931.344 306.041 906.468 303.318 888.924C301.962 880.185 300.631 873.132 299.371 868.68C298.781 866.595 298.08 864.587 297.141 863.359C296.736 862.829 295.527 861.452 293.561 861.719C291.743 861.965 290.872 863.442 290.569 864.017L293.224 865.414L295.878 866.811C296.051 866.484 295.673 867.487 294.367 867.664C293.66 867.76 293.096 867.539 292.773 867.339C292.622 867.245 292.52 867.155 292.464 867.1C292.407 867.045 292.378 867.008 292.375 867.003C292.372 867 292.42 867.064 292.508 867.234C292.592 867.397 292.695 867.622 292.812 867.917C293.049 868.512 293.313 869.307 293.598 870.314C294.75 874.383 296.035 881.119 297.389 889.845C300.088 907.23 302.984 931.981 305.647 957.758C310.983 1009.39 315.341 1064.68 315.341 1072.85H318.341ZM293.224 865.414L290.569 864.017C289.475 866.095 287.527 871.549 285.019 879.127C282.465 886.841 279.234 897.071 275.559 908.968C268.209 932.765 259.069 963.29 250.003 993.828C231.843 1055 214.04 1116.02 211.413 1123.53L214.244 1124.52L217.076 1125.51C219.767 1117.82 237.655 1056.51 255.755 995.535C264.82 965.001 273.952 934.502 281.292 910.738C284.962 898.854 288.18 888.669 290.715 881.012C293.294 873.218 295.072 868.343 295.878 866.811L293.224 865.414ZM214.244 1124.52L211.413 1123.53C210.001 1127.56 208.208 1135.41 206.315 1144.96C204.407 1154.58 202.359 1166.13 200.456 1177.69C196.664 1200.73 193.401 1224.09 193.011 1232.27L196.008 1232.42L199.004 1232.56C199.375 1224.79 202.57 1201.79 206.377 1178.67C208.273 1167.15 210.309 1155.67 212.2 1146.13C214.107 1136.51 215.828 1129.08 217.076 1125.51L214.244 1124.52ZM196.008 1232.42L193.011 1232.27C192.638 1240.11 189.049 1271.3 185.43 1301.97C181.831 1332.47 178.207 1362.41 177.82 1367.43L180.812 1367.67L183.803 1367.9C184.176 1363.04 187.771 1333.33 191.389 1302.67C194.988 1272.17 198.618 1240.67 199.004 1232.56L196.008 1232.42ZM180.812 1367.67L177.82 1367.43C177.059 1377.33 175.519 1397.32 177.826 1420.39L180.812 1420.09L183.797 1419.8C181.545 1397.28 183.045 1377.75 183.803 1367.9L180.812 1367.67ZM180.812 1420.09L177.826 1420.39C178.288 1425.01 176.307 1430.05 172.285 1435.23C168.289 1440.39 162.524 1445.36 156.121 1449.72C149.735 1454.06 142.835 1457.72 136.677 1460.28C130.413 1462.88 125.262 1464.2 122.27 1464.2L122.27 1467.2L122.27 1470.2C126.496 1470.2 132.556 1468.49 138.979 1465.82C145.507 1463.11 152.768 1459.26 159.497 1454.68C166.21 1450.11 172.516 1444.73 177.027 1438.91C181.512 1433.13 184.474 1426.57 183.797 1419.8L180.812 1420.09ZM122.27 1467.2V1464.2C118.058 1464.2 113.482 1465.57 108.911 1467.59C104.304 1469.63 99.4781 1472.43 94.7116 1475.51C85.2788 1481.61 75.5048 1489.21 68.1205 1494.38L69.8408 1496.84L71.5612 1499.3C79.3739 1493.83 88.596 1486.61 97.9691 1480.55C102.606 1477.55 107.135 1474.94 111.337 1473.08C115.575 1471.21 119.263 1470.2 122.27 1470.2V1467.2ZM69.8408 1496.84L68.1205 1494.38C65.0217 1496.55 60.639 1497.59 55.3329 1497.57C50.0608 1497.54 44.1574 1496.47 38.3107 1494.72C32.4759 1492.98 26.7993 1490.59 22.0028 1488C17.1617 1485.39 13.3994 1482.67 11.2482 1480.36L9.04983 1482.4L6.85144 1484.44C9.63917 1487.44 14.0456 1490.52 19.1543 1493.28C24.3076 1496.06 30.362 1498.61 36.5906 1500.47C42.8073 1502.33 49.2997 1503.54 55.3073 1503.57C61.2808 1503.59 67.0615 1502.45 71.5612 1499.3L69.8408 1496.84ZM9.04983 1482.4L11.2482 1480.36C7.16483 1475.96 6.18444 1469.8 6.90457 1462.96C7.62259 1456.14 9.9726 1449.22 11.8751 1443.9L9.04983 1442.89L6.2246 1441.88C4.32791 1447.19 1.73912 1454.71 0.937536 1462.33C0.138061 1469.92 1.05724 1478.2 6.85142 1484.44L9.04983 1482.4ZM9.04983 1442.89L11.8751 1443.9C12.1204 1443.21 12.9383 1441.98 14.6561 1440.21C16.2992 1438.52 18.5148 1436.59 21.1688 1434.48C26.4718 1430.26 33.3004 1425.52 40.2713 1420.88C47.2506 1416.23 54.2502 1411.76 59.9856 1408C62.8359 1406.13 65.3731 1404.44 67.397 1403.02C69.3588 1401.64 71.0274 1400.39 71.9973 1399.42L69.876 1397.3L67.7547 1395.18C67.205 1395.73 65.9517 1396.71 63.9489 1398.11C62.0081 1399.47 59.538 1401.12 56.6978 1402.98C51.052 1406.68 43.9373 1411.23 36.9448 1415.89C29.9439 1420.55 22.9431 1425.4 17.4349 1429.78C14.6833 1431.97 12.2478 1434.08 10.3537 1436.03C8.53439 1437.9 6.929 1439.91 6.2246 1441.88L9.04983 1442.89ZM69.876 1397.3L71.9973 1399.42C73.9338 1397.48 75.4927 1394.63 76.7871 1391.53C78.1064 1388.38 79.2629 1384.7 80.2786 1380.88C82.31 1373.24 83.8489 1364.76 84.9876 1358.31L82.0332 1357.79L79.0789 1357.27C77.9381 1363.73 76.4377 1371.97 74.48 1379.34C73.5012 1383.02 72.4257 1386.41 71.2518 1389.22C70.053 1392.09 68.8575 1394.07 67.7547 1395.18L69.876 1397.3ZM82.0332 1357.79L84.9876 1358.31C85.3085 1356.49 85.661 1352.09 86.0496 1346C86.4442 1339.82 86.8872 1331.69 87.3682 1322.25C88.33 1303.37 89.4467 1279.18 90.6333 1254.79C91.8205 1230.38 93.0781 1205.75 94.3232 1185.95C95.5777 1165.99 96.8032 1151.29 97.8788 1146.44L94.9502 1145.79L92.0216 1145.14C90.8177 1150.56 89.5737 1165.87 88.3351 1185.57C87.087 1205.42 85.8277 1230.08 84.6404 1254.49C83.4526 1278.92 82.3374 1303.07 81.3759 1321.95C80.8953 1331.38 80.4538 1339.48 80.0618 1345.62C79.6639 1351.85 79.3279 1355.85 79.0789 1357.27L82.0332 1357.79ZM94.9502 1145.79L97.8788 1146.44C100.22 1135.91 101.747 1117.62 102.695 1099.6C103.648 1081.5 104.029 1063.41 104.029 1053.09H101.029H98.0293C98.0293 1063.3 97.6507 1081.29 96.7036 1099.29C95.7524 1117.36 94.2393 1135.16 92.0217 1145.14L94.9502 1145.79ZM101.029 1053.09H104.029C104.029 1049.19 104.905 1039.33 106.368 1025.8C107.822 1012.35 109.832 995.479 112.058 977.691C116.51 942.112 121.814 902.932 125.228 880.298L122.262 879.851L119.295 879.403C115.871 902.106 110.559 941.34 106.104 976.946C103.877 994.75 101.861 1011.66 100.403 1025.15C98.9529 1038.56 98.0293 1048.79 98.0293 1053.09H101.029ZM122.262 879.851L124.958 878.535C122.286 873.059 115.987 864.447 110.655 856.901C107.929 853.044 105.418 849.419 103.593 846.436C102.679 844.943 101.976 843.674 101.511 842.659C100.997 841.537 100.947 841.089 100.947 841.1H97.9473H94.9473C94.9473 842.478 95.499 843.942 96.0571 845.159C96.6646 846.485 97.5055 847.984 98.4752 849.568C100.417 852.741 103.035 856.515 105.755 860.364C111.313 868.229 117.171 876.258 119.565 881.166L122.262 879.851ZM97.9473 841.1H100.947C100.947 834.019 100.19 806.23 100.938 796.5L97.9473 796.27L94.9561 796.039C94.185 806.065 94.9473 834.504 94.9473 841.1H97.9473ZM97.9473 796.27L100.938 796.5C101.167 793.527 100.491 789.47 99.4933 785.147C98.4735 780.728 97.0255 775.664 95.5049 770.533C92.4202 760.121 89.0932 749.577 87.9936 742.613L85.0303 743.081L82.067 743.549C83.2469 751.022 86.7583 762.133 89.7521 772.237C91.2709 777.363 92.6722 782.272 93.6469 786.496C94.6438 790.816 95.1074 794.073 94.9561 796.039L97.9473 796.27ZM85.0303 743.081L87.9936 742.613C86.8752 735.53 82.9278 695.865 79.6219 655.696C77.9717 635.644 76.4863 615.528 75.5977 599.366C75.1533 591.283 74.8595 584.213 74.7679 578.645C74.6746 572.978 74.7986 569.126 75.1117 567.309L72.1553 566.8L69.1989 566.29C68.7747 568.751 68.6768 573.163 68.7687 578.743C68.8622 584.422 69.1605 591.578 69.6068 599.696C70.4996 615.935 71.9899 636.113 73.6421 656.188C76.9412 696.274 80.9059 736.195 82.067 743.549L85.0303 743.081ZM72.1553 566.8L75.1117 567.309C76.113 561.501 76.3881 551.978 76.327 540.685C76.2655 529.316 75.8581 515.898 75.4294 502.175C74.5683 474.608 73.6322 445.974 75.1427 429.544L72.1553 429.27L69.1679 428.995C67.6145 445.891 68.5778 475.005 69.4324 502.362C69.8615 516.102 70.266 529.44 70.3271 540.717C70.3885 552.07 70.097 561.08 69.1989 566.29L72.1553 566.8ZM72.1553 429.27L75.1427 429.544C79.0393 387.159 72.8848 343.534 109.51 291.958L107.064 290.221L104.618 288.484C66.7832 341.764 72.9551 387.799 69.1679 428.995L72.1553 429.27ZM107.064 290.221L109.51 291.958C113.12 286.875 120.276 281.156 129.735 275.223C139.107 269.346 150.42 263.453 162.013 257.942C185.197 246.921 209.248 237.547 220.677 232.976L219.563 230.19L218.448 227.405C207.081 231.952 182.83 241.403 159.437 252.523C147.741 258.083 136.197 264.089 126.547 270.14C116.985 276.137 108.956 282.376 104.618 288.484L107.064 290.221ZM219.563 230.19L220.677 232.976C224.8 231.327 227.001 227.9 228.035 224.176C229.049 220.527 229.034 216.341 228.629 212.458C227.818 204.679 225.302 197.032 224.799 195.272L221.914 196.096L219.03 196.92C219.613 198.961 221.92 205.961 222.661 213.08C223.033 216.645 222.976 219.97 222.254 222.57C221.553 225.095 220.325 226.655 218.448 227.405L219.563 230.19ZM221.914 196.096L224.799 195.272C222.939 188.764 220.427 180.913 217.733 172.328C215.032 163.717 212.132 154.32 209.465 144.627C204.117 125.189 199.768 104.779 199.768 87.3418H196.768H193.768C193.768 105.617 198.301 126.666 203.68 146.218C206.377 156.02 209.303 165.501 212.008 174.124C214.722 182.772 217.198 190.51 219.03 196.92L221.914 196.096ZM196.768 87.3418H199.768C199.768 69.6789 202.389 49.3156 212.901 33.435C223.261 17.7847 241.615 6.00032 274.271 6L274.271 3L274.271 0C239.94 0.000333786 219.543 12.5308 207.898 30.1232C196.405 47.4853 193.768 69.2926 193.768 87.3418H196.768ZM173.171 532.607H176.171C176.171 529.684 175.32 522.466 174.032 513.642C172.729 504.709 170.937 493.864 168.979 483.515C167.025 473.187 164.891 463.275 162.896 456.244C161.911 452.771 160.908 449.811 159.908 447.841C159.449 446.937 158.789 445.818 157.834 445.086C157.308 444.683 156.465 444.224 155.373 444.252C154.23 444.282 153.363 444.83 152.805 445.392L154.935 447.505L157.064 449.618C156.836 449.847 156.314 450.23 155.529 450.25C154.796 450.269 154.325 449.957 154.184 449.849C153.998 449.706 154.157 449.767 154.558 450.556C155.277 451.974 156.152 454.457 157.124 457.882C159.044 464.648 161.138 474.349 163.084 484.631C165.025 494.893 166.803 505.656 168.095 514.508C169.402 523.468 170.171 530.212 170.171 532.607H173.171ZM154.935 447.505L152.804 445.393C152.088 446.115 151.759 447.07 151.598 447.578C151.39 448.233 151.216 449.008 151.063 449.847C150.756 451.536 150.484 453.769 150.239 456.422C149.748 461.743 149.342 469.003 149.006 477.506C148.334 494.526 147.933 516.698 147.698 538.682C147.228 582.659 147.417 625.987 147.417 626.08L150.417 626.066L153.417 626.053C153.417 625.968 153.228 582.676 153.698 538.746C153.933 516.777 154.332 494.674 155.001 477.743C155.336 469.271 155.737 462.136 156.214 456.973C156.453 454.384 156.705 452.354 156.966 450.923C157.098 450.202 157.218 449.703 157.317 449.391C157.463 448.932 157.451 449.227 157.065 449.617L154.935 447.505ZM150.417 626.066H147.417V755.998H150.417H153.417V626.066H150.417ZM150.417 755.998L152.612 758.043C152.697 757.952 155.286 755.165 158.249 750.822C161.193 746.509 164.631 740.482 166.248 733.921L163.335 733.203L160.422 732.485C159.049 738.055 156.05 743.4 153.293 747.44C150.557 751.451 148.182 753.996 148.222 753.953L150.417 755.998ZM163.335 733.203L166.248 733.921C166.695 732.105 167.144 727.701 167.609 721.763C168.085 715.686 168.6 707.678 169.131 698.398C170.195 679.833 171.332 656.121 172.374 632.467C174.457 585.208 176.171 538.012 176.171 532.607H173.171H170.171C170.171 537.843 168.466 584.865 166.38 632.203C165.338 655.847 164.203 679.529 163.141 698.054C162.61 707.319 162.099 715.279 161.627 721.294C161.145 727.448 160.724 731.261 160.422 732.485L163.335 733.203Z" fill="currentColor"/>
<defs>
<linearGradient id="paint0_linear_1503_32851" x1="515.383" y1="1503" x2="-353.09" y2="1026.73" gradientUnits="userSpaceOnUse">
<stop stop-color="#E4ECFC"/>
<stop offset="1" stop-color="white" stop-opacity="0.5"/>
</linearGradient>
</defs>
</svg>
