<svg width="18" height="18" viewBox="0 0 18 18" fill="none" xmlns="http://www.w3.org/2000/svg">
<path d="M14.1593 9.66686L9.00573 14.625L3.85215 9.66686M3.85215 9.66686C3.51222 9.34554 3.24447 8.95933 3.06574 8.53255C2.88702 8.10577 2.8012 7.64766 2.81369 7.18708C2.82618 6.7265 2.93671 6.27342 3.13831 5.85637C3.33992 5.43932 3.62823 5.06734 3.9851 4.76385C4.34197 4.46036 4.75966 4.23193 5.21187 4.09295C5.66409 3.95397 6.14103 3.90746 6.61266 3.95633C7.08429 4.0052 7.54039 4.1484 7.95225 4.37692C8.36411 4.60544 8.72279 4.91431 9.00573 5.2841C9.28988 4.917 9.64899 4.61082 10.0606 4.38473C10.4721 4.15864 10.9273 4.0175 11.3976 3.97016C11.8679 3.92281 12.3432 3.97028 12.7938 4.10958C13.2443 4.24888 13.6605 4.47702 14.0161 4.77972C14.3717 5.08242 14.6592 5.45317 14.8605 5.86876C15.0618 6.28434 15.1727 6.73582 15.1861 7.19494C15.1996 7.65406 15.1153 8.11093 14.9386 8.53697C14.7619 8.963 14.4966 9.34902 14.1593 9.67087" stroke="currentColor" stroke-width="1.5" stroke-linecap="round" stroke-linejoin="round"/>
</svg>
