<svg width="18" height="18" viewBox="0 0 18 18" fill="none" xmlns="http://www.w3.org/2000/svg">
<path d="M9.28271 1.46094C13.4246 1.46114 16.7825 4.81906 16.7827 8.96094C16.7827 13.103 13.4247 16.4607 9.28271 16.4609C5.14058 16.4609 1.78271 13.1031 1.78271 8.96094C1.78288 4.81894 5.14068 1.46094 9.28271 1.46094ZM9.28271 2.96094C5.96911 2.96094 3.28288 5.64737 3.28271 8.96094C3.28271 12.2746 5.96901 14.9609 9.28271 14.9609C12.5963 14.9607 15.2827 12.2745 15.2827 8.96094C15.2825 5.64749 12.5962 2.96114 9.28271 2.96094ZM9.28271 11.9609C9.69665 11.9611 10.0325 12.297 10.0327 12.7109V12.7188C10.0325 13.1327 9.69666 13.4686 9.28271 13.4688C8.86861 13.4688 8.53288 13.1328 8.53271 12.7188V12.7109C8.53289 12.2969 8.86861 11.9609 9.28271 11.9609ZM9.34326 4.43945C9.76103 4.44067 10.174 4.53921 10.5474 4.72656C10.9206 4.91394 11.246 5.18543 11.4966 5.51953C11.7471 5.85357 11.9163 6.2417 11.9917 6.65234C12.067 7.06322 12.0459 7.48732 11.9302 7.88867C11.8143 8.28983 11.6062 8.65931 11.3237 8.9668C11.0764 9.23583 10.777 9.45189 10.4448 9.60156L10.3003 9.66113C10.2943 9.66343 10.2878 9.66583 10.2817 9.66797C10.2052 9.69487 10.1393 9.74706 10.0942 9.81445C10.0606 9.86492 10.0391 9.92272 10.0327 9.98242L10.0317 10.043V10.1201C10.0148 10.4997 9.71222 10.8128 9.32471 10.835C8.93738 10.8567 8.60243 10.5801 8.54248 10.2051L8.53369 10.1279L8.53174 9.97656C8.54041 9.62324 8.64901 9.27822 8.84619 8.98242C9.0691 8.64828 9.39327 8.39374 9.771 8.25781C9.94177 8.19133 10.0952 8.08613 10.2192 7.95117C10.3446 7.81463 10.4373 7.65074 10.4888 7.47266C10.5401 7.29436 10.5496 7.10536 10.5161 6.92285C10.4826 6.7406 10.4075 6.56822 10.2964 6.41992C10.185 6.27142 10.0404 6.14967 9.87451 6.06641C9.70863 5.98319 9.52494 5.94002 9.33936 5.93945C9.15398 5.93897 8.9704 5.98139 8.8042 6.06348C8.63795 6.14574 8.49257 6.26637 8.38037 6.41406C8.13008 6.74396 7.65956 6.80871 7.32959 6.55859C6.9997 6.3083 6.93494 5.83779 7.18506 5.50781C7.4376 5.17511 7.76478 4.90497 8.13916 4.71973C8.5134 4.53468 8.92577 4.43836 9.34326 4.43945Z" fill="currentColor"/>
</svg>
