<svg width="133" height="30" viewBox="0 0 133 30" fill="none" xmlns="http://www.w3.org/2000/svg">
<path d="M28.6992 6.62012H28.6777V2.20996H21.2051L15.4482 6.04297V24.332H17.9834L13.2402 30V6.62012H6.61816V4.41504H13.9072L17.2295 2.20801H4.41211V6.60059L0 0H33.1016L28.6992 6.62012ZM41.6475 20.3818L45.1543 11.0215H48.7588L40.8408 29.6797H37.2363L39.7607 24.083L34.3906 11.0215H38.1885L41.6475 20.3818ZM56.5068 10.7891C57.7839 10.7891 58.9419 11.0767 59.9795 11.6514C61.0169 12.2101 61.8313 13.0084 62.4219 14.0459C63.0283 15.0834 63.3311 16.281 63.3311 17.6377C63.331 18.9944 63.02 20.192 62.3975 21.2295C61.7909 22.267 60.9607 23.0728 59.9072 23.6475C58.8696 24.2062 57.7042 24.4854 56.4111 24.4854C55.1341 24.4853 53.9845 24.2062 52.9629 23.6475C51.9415 23.0729 51.1355 22.2669 50.5449 21.2295C49.9703 20.192 49.6827 18.9944 49.6826 17.6377C49.6826 16.281 49.9779 15.0834 50.5684 14.0459C51.175 13.0083 51.9975 12.2101 53.0352 11.6514C54.0727 11.0767 55.2298 10.7891 56.5068 10.7891ZM93.5918 10.7432C95.2358 10.7432 96.5926 11.1584 97.6621 11.9883C98.7476 12.8024 99.4746 13.952 99.8418 15.4365H96.2256C96.034 14.862 95.707 14.4149 95.2441 14.0957C94.7972 13.7605 94.2379 13.5928 93.5674 13.5928C92.6097 13.5929 91.8516 13.9442 91.293 14.6465C90.7342 15.3329 90.4551 16.3147 90.4551 17.5918C90.4551 18.8529 90.7342 19.8347 91.293 20.5371C91.8516 21.2234 92.6097 21.5663 93.5674 21.5664C94.9242 21.5664 95.8105 20.9602 96.2256 19.7471H99.8418C99.4746 21.1838 98.7476 22.3248 97.6621 23.1709C96.5766 24.0169 95.22 24.4404 93.5918 24.4404C92.3148 24.4404 91.1811 24.1612 90.1914 23.6025C89.2018 23.0279 88.4278 22.2294 87.8691 21.208C87.3104 20.1704 87.0303 18.9647 87.0303 17.5918C87.0303 16.2189 87.3104 15.0217 87.8691 14C88.4279 12.9625 89.2017 12.1642 90.1914 11.6055C91.1812 11.0308 92.3147 10.7432 93.5918 10.7432ZM84.7266 24.1836H81.374V11.0488H84.7266V24.1836ZM32.874 14.3008H31.9951C30.9496 14.3008 30.1577 14.547 29.6191 15.0381C29.0965 15.5291 28.835 16.384 28.835 17.6035V24.1621H25.5078V10.998H28.835V13.042C29.2626 12.345 29.8169 11.7984 30.498 11.4023C31.195 11.0064 31.987 10.8077 32.874 10.8076V14.3008ZM72.9385 10.873C74.499 10.873 75.7601 11.3693 76.7217 12.3623C77.6832 13.3396 78.1641 14.7111 78.1641 16.4766V24.1611H74.8535V16.9258C74.8535 15.8854 74.5934 15.0898 74.0732 14.5381C73.5531 13.9706 72.8438 13.6865 71.9453 13.6865C71.0312 13.6866 70.3064 13.9707 69.7705 14.5381C69.2504 15.0898 68.9902 15.8855 68.9902 16.9258V24.1611H65.6797V11.0615H68.9902V12.6934C69.4316 12.1259 69.9912 11.6844 70.6689 11.3691C71.3624 11.0382 72.1189 10.8731 72.9385 10.873ZM126.125 24.0752H124.044L121.811 19.085H111.389L109.155 24.0752H107.101L115.639 5.39746H117.587L126.125 24.0752ZM131.146 24.0752H129.171V5.39746H131.146V24.0752ZM26.4707 6.62012H19.8604V22.082H17.6543V7.22461L21.8721 4.41602H26.4707V6.62012ZM56.459 13.71C55.5012 13.71 54.6955 14.0538 54.041 14.7402C53.4025 15.4107 53.083 16.3766 53.083 17.6377C53.0831 18.8986 53.3941 19.8722 54.0166 20.5586C54.6551 21.229 55.4534 21.5644 56.4111 21.5645C57.0177 21.5645 57.5846 21.421 58.1113 21.1338C58.6541 20.8305 59.085 20.3826 59.4043 19.792C59.7234 19.2015 59.8837 18.4835 59.8838 17.6377C59.8838 16.3768 59.5482 15.4107 58.8779 14.7402C58.2234 14.0538 57.4168 13.71 56.459 13.71ZM112.104 17.4844H121.095L116.6 7.43945L112.104 17.4844ZM83.0742 5.41016C83.6648 5.41018 84.1521 5.60127 84.5352 5.98438C84.9341 6.35144 85.1337 6.81453 85.1338 7.37305C85.1338 7.93167 84.9341 8.40304 84.5352 8.78613C84.1521 9.15327 83.6648 9.33689 83.0742 9.33691C82.4837 9.33691 81.9889 9.15319 81.5898 8.78613C81.2067 8.403 81.0146 7.93178 81.0146 7.37305C81.0147 6.81448 81.2068 6.35146 81.5898 5.98438C81.9889 5.60143 82.4837 5.41016 83.0742 5.41016Z" fill="currentColor"/>
<path d="M28.6992 6.62012H28.6777V2.20996H21.2051L15.4482 6.04297V24.332H17.9834L13.2402 30V6.62012H6.61816V4.41504H13.9072L17.2295 2.20801H4.41211V6.60059L0 0H33.1016L28.6992 6.62012ZM41.6475 20.3818L45.1543 11.0215H48.7588L40.8408 29.6797H37.2363L39.7607 24.083L34.3906 11.0215H38.1885L41.6475 20.3818ZM56.5068 10.7891C57.7839 10.7891 58.9419 11.0767 59.9795 11.6514C61.0169 12.2101 61.8313 13.0084 62.4219 14.0459C63.0283 15.0834 63.3311 16.281 63.3311 17.6377C63.331 18.9944 63.02 20.192 62.3975 21.2295C61.7909 22.267 60.9607 23.0728 59.9072 23.6475C58.8696 24.2062 57.7042 24.4854 56.4111 24.4854C55.1341 24.4853 53.9845 24.2062 52.9629 23.6475C51.9415 23.0729 51.1355 22.2669 50.5449 21.2295C49.9703 20.192 49.6827 18.9944 49.6826 17.6377C49.6826 16.281 49.9779 15.0834 50.5684 14.0459C51.175 13.0083 51.9975 12.2101 53.0352 11.6514C54.0727 11.0767 55.2298 10.7891 56.5068 10.7891ZM93.5918 10.7432C95.2358 10.7432 96.5926 11.1584 97.6621 11.9883C98.7476 12.8024 99.4746 13.952 99.8418 15.4365H96.2256C96.034 14.862 95.707 14.4149 95.2441 14.0957C94.7972 13.7605 94.2379 13.5928 93.5674 13.5928C92.6097 13.5929 91.8516 13.9442 91.293 14.6465C90.7342 15.3329 90.4551 16.3147 90.4551 17.5918C90.4551 18.8529 90.7342 19.8347 91.293 20.5371C91.8516 21.2234 92.6097 21.5663 93.5674 21.5664C94.9242 21.5664 95.8105 20.9602 96.2256 19.7471H99.8418C99.4746 21.1838 98.7476 22.3248 97.6621 23.1709C96.5766 24.0169 95.22 24.4404 93.5918 24.4404C92.3148 24.4404 91.1811 24.1612 90.1914 23.6025C89.2018 23.0279 88.4278 22.2294 87.8691 21.208C87.3104 20.1704 87.0303 18.9647 87.0303 17.5918C87.0303 16.2189 87.3104 15.0217 87.8691 14C88.4279 12.9625 89.2017 12.1642 90.1914 11.6055C91.1812 11.0308 92.3147 10.7432 93.5918 10.7432ZM84.7266 24.1836H81.374V11.0488H84.7266V24.1836ZM32.874 14.3008H31.9951C30.9496 14.3008 30.1577 14.547 29.6191 15.0381C29.0965 15.5291 28.835 16.384 28.835 17.6035V24.1621H25.5078V10.998H28.835V13.042C29.2626 12.345 29.8169 11.7984 30.498 11.4023C31.195 11.0064 31.987 10.8077 32.874 10.8076V14.3008ZM72.9385 10.873C74.499 10.873 75.7601 11.3693 76.7217 12.3623C77.6832 13.3396 78.1641 14.7111 78.1641 16.4766V24.1611H74.8535V16.9258C74.8535 15.8854 74.5934 15.0898 74.0732 14.5381C73.5531 13.9706 72.8438 13.6865 71.9453 13.6865C71.0312 13.6866 70.3064 13.9707 69.7705 14.5381C69.2504 15.0898 68.9902 15.8855 68.9902 16.9258V24.1611H65.6797V11.0615H68.9902V12.6934C69.4316 12.1259 69.9912 11.6844 70.6689 11.3691C71.3624 11.0382 72.1189 10.8731 72.9385 10.873ZM126.125 24.0752H124.044L121.811 19.085H111.389L109.155 24.0752H107.101L115.639 5.39746H117.587L126.125 24.0752ZM131.146 24.0752H129.171V5.39746H131.146V24.0752ZM26.4707 6.62012H19.8604V22.082H17.6543V7.22461L21.8721 4.41602H26.4707V6.62012ZM56.459 13.71C55.5012 13.71 54.6955 14.0538 54.041 14.7402C53.4025 15.4107 53.083 16.3766 53.083 17.6377C53.0831 18.8986 53.3941 19.8722 54.0166 20.5586C54.6551 21.229 55.4534 21.5644 56.4111 21.5645C57.0177 21.5645 57.5846 21.421 58.1113 21.1338C58.6541 20.8305 59.085 20.3826 59.4043 19.792C59.7234 19.2015 59.8837 18.4835 59.8838 17.6377C59.8838 16.3768 59.5482 15.4107 58.8779 14.7402C58.2234 14.0538 57.4168 13.71 56.459 13.71ZM112.104 17.4844H121.095L116.6 7.43945L112.104 17.4844ZM83.0742 5.41016C83.6648 5.41018 84.1521 5.60127 84.5352 5.98438C84.9341 6.35144 85.1337 6.81453 85.1338 7.37305C85.1338 7.93167 84.9341 8.40304 84.5352 8.78613C84.1521 9.15327 83.6648 9.33689 83.0742 9.33691C82.4837 9.33691 81.9889 9.15319 81.5898 8.78613C81.2067 8.403 81.0146 7.93178 81.0146 7.37305C81.0147 6.81448 81.2068 6.35146 81.5898 5.98438C81.9889 5.60143 82.4837 5.41016 83.0742 5.41016Z" fill="currentColor"/>
</svg>
