<svg width="299" height="277" viewBox="0 0 299 277" fill="none" xmlns="http://www.w3.org/2000/svg">
<path d="M8.0785 34.1674L8.61793 33.6115L8.92279 33.9073L8.8373 34.3233L8.0785 34.1674ZM21.4055 38.5825L20.6836 38.8633L20.3341 37.9647L21.2869 37.817L21.4055 38.5825ZM21.9539 39.9925L21.3342 40.4573L21.2704 40.3723L21.2319 40.2733L21.9539 39.9925ZM30.9837 52.7164L30.3444 53.1539L30.9837 52.7164ZM42.4763 77.3433L43.2494 77.295L42.4763 77.3433ZM41.4051 97.6487L40.6328 97.5883L41.4051 97.6487ZM40.424 113.463H41.1987H41.1987H40.424ZM35.4987 169.694L34.7335 169.573L35.4987 169.694ZM35.1746 171.766L35.9401 171.885L35.1746 171.766ZM29.342 197.194L30.024 197.561H30.024L29.342 197.194ZM25.6479 262.455L25.9943 261.763H25.9944L25.6479 262.455ZM31.9154 264.494L32.1301 263.75H32.1301L31.9154 264.494ZM44.5 270L45.2724 269.94H45.2724L44.5 270ZM42.5648 274.452L43.0294 275.071L42.8229 275.226H42.5648V274.452ZM42.5647 274.452L42.1001 273.832L42.3066 273.677H42.5647V274.452ZM42.5 274.5L42.0352 273.88L42.0354 273.88L42.5 274.5ZM29.342 276L29.342 275.226H29.342V276ZM16 276L16 276.775H16V276ZM13.9001 276.081L13.8586 275.307H13.8586L13.9001 276.081ZM4.99997 274.5L5.59507 274.004L4.99997 274.5ZM5.53596 260.814L4.80106 260.569L5.53596 260.814ZM4.67263 238.006L5.44537 237.952L4.67263 238.006ZM3.48372 210.328L2.71174 210.264L3.48372 210.328ZM4.76537 198.177L5.53523 198.262L4.76537 198.177ZM7.5882 159.433L6.82409 159.56L7.5882 159.433ZM4.91121 149.996L4.17587 150.24L4.91121 149.996ZM1.02103 131.522L0.247108 131.489L1.02103 131.522ZM4.63811 116.657L5.36825 116.915L4.63811 116.657ZM7.17775 107.306L6.40482 107.255L7.17775 107.306ZM4.71506 77.3433L3.9522 77.4779L4.71506 77.3433ZM4.30461 51.4851L3.55309 51.2972L4.30461 51.4851ZM2.25243 19.8806H3.02708C3.02708 25.3855 5.2044 30.2995 8.61793 33.6115L8.0785 34.1674L7.53908 34.7234C3.81603 31.1112 1.47779 25.7921 1.47779 19.8806H2.25243ZM19.0808 1V1.77465C10.296 1.77465 3.02708 9.79475 3.02708 19.8806H2.25243H1.47779C1.47779 9.11153 9.27753 0.225351 19.0808 0.225351V1ZM35.9092 19.8806H35.1345C35.1345 9.79475 27.8656 1.77465 19.0808 1.77465V1V0.225351C28.8841 0.225351 36.6838 9.11153 36.6838 19.8806H35.9092ZM21.4055 38.5825L21.2869 37.817C29.0452 36.6142 35.1345 29.103 35.1345 19.8806H35.9092H36.6838C36.6838 29.7432 30.1537 38.0102 21.5242 39.348L21.4055 38.5825ZM21.9539 39.9925L21.2319 40.2733L20.6836 38.8633L21.4055 38.5825L22.1275 38.3018L22.6759 39.7118L21.9539 39.9925ZM30.9837 52.7164L30.3444 53.1539C27.6806 49.2606 25.4268 46.0848 23.8395 43.8831C23.0459 42.7822 22.4189 41.9249 21.9906 41.3433C21.7765 41.0524 21.6121 40.8305 21.5013 40.6815C21.446 40.607 21.404 40.5508 21.376 40.5132C21.362 40.4945 21.3514 40.4804 21.3444 40.4711C21.3409 40.4664 21.3383 40.4629 21.3366 40.4606C21.3358 40.4595 21.3351 40.4586 21.3347 40.4581C21.3345 40.4578 21.3344 40.4576 21.3343 40.4575C21.3342 40.4574 21.3342 40.4574 21.3342 40.4574C21.3342 40.4573 21.3342 40.4573 21.9539 39.9925C22.5736 39.5278 22.5736 39.5278 22.5737 39.5279C22.5737 39.5279 22.5738 39.528 22.5738 39.5281C22.574 39.5282 22.5742 39.5285 22.5744 39.5288C22.5749 39.5295 22.5756 39.5304 22.5765 39.5317C22.5784 39.5342 22.5812 39.5379 22.5849 39.5428C22.5922 39.5526 22.603 39.5671 22.6174 39.5863C22.6461 39.6247 22.6887 39.6819 22.7447 39.7573C22.8569 39.9081 23.0227 40.1319 23.2383 40.4247C23.6694 41.0103 24.2994 41.8717 25.0963 42.977C26.6899 45.1876 28.9511 48.3738 31.6231 52.279L30.9837 52.7164ZM42.4763 77.3433L41.7032 77.3916C41.5079 74.2684 40.0276 70.1761 37.8825 65.8348C35.7483 61.5155 32.9983 57.0327 30.3444 53.1539L30.9837 52.7164L31.6231 52.279C34.305 56.1987 37.0961 60.7458 39.2715 65.1485C41.4361 69.5292 43.0342 73.851 43.2494 77.295L42.4763 77.3433ZM41.4051 97.6487L40.6328 97.5883C41.2693 89.4442 41.928 80.989 41.7032 77.3916L42.4763 77.3433L43.2494 77.295C43.483 81.0327 42.808 89.641 42.1774 97.709L41.4051 97.6487ZM40.424 113.463H39.6494C39.6494 110.162 40.1333 103.979 40.6328 97.5883L41.4051 97.6487L42.1774 97.709C41.675 104.136 41.1987 110.239 41.1987 113.463H40.424ZM35.4987 169.694L34.7335 169.573C35.3441 165.706 36.5732 153.525 37.6515 141.356C38.7304 129.18 39.6494 117.114 39.6494 113.463H40.424H41.1987C41.1987 117.2 40.2707 129.35 39.1947 141.493C38.1181 153.643 36.8846 165.884 36.2638 169.815L35.4987 169.694ZM35.1746 171.766L34.4092 171.647C34.5229 170.917 34.631 170.222 34.7335 169.573L35.4987 169.694L36.2638 169.815C36.1616 170.462 36.0538 171.155 35.9401 171.885L35.1746 171.766ZM29.342 197.194L28.6599 196.827C29.9156 194.495 31.0427 190.259 32.017 185.509C32.9848 180.792 33.7817 175.676 34.4092 171.647L35.1746 171.766L35.9401 171.885C35.3135 175.908 34.5112 181.061 33.5347 185.821C32.5648 190.549 31.4026 195.001 30.024 197.561L29.342 197.194ZM19.9016 248.911L19.1291 248.853C19.3763 245.517 21.0244 233.887 22.9637 222.453C23.9345 216.728 24.9811 211.036 25.966 206.437C26.4583 204.138 26.9368 202.105 27.3844 200.473C27.8259 198.864 28.2543 197.58 28.6599 196.827L29.342 197.194L30.024 197.561C29.7113 198.142 29.3212 199.269 28.8785 200.883C28.4418 202.475 27.9702 204.477 27.4809 206.761C26.5026 211.33 25.4602 216.998 24.4912 222.712C22.5505 234.154 20.9151 245.715 20.6742 248.968L19.9016 248.911ZM25.6479 262.455L25.3015 263.148C23.4578 262.226 21.7938 260.328 20.657 257.863C19.5138 255.384 18.8755 252.277 19.1291 248.853L19.9016 248.911L20.6742 248.968C20.4397 252.134 21.0327 254.978 22.0638 257.214C23.1013 259.463 24.5545 261.043 25.9943 261.763L25.6479 262.455ZM31.9154 264.494L31.7006 265.238C30.3256 264.842 29.0214 264.466 27.9245 264.12C26.8406 263.779 25.9083 263.452 25.3015 263.148L25.6479 262.455L25.9944 261.763C26.4781 262.004 27.3017 262.299 28.39 262.642C29.4652 262.981 30.7494 263.351 32.1301 263.75L31.9154 264.494ZM44.5 270L43.7277 270.06C43.7269 270.049 43.7141 269.961 43.5638 269.792C43.4156 269.625 43.1773 269.428 42.833 269.208C42.1449 268.769 41.1532 268.312 39.9514 267.85C37.5543 266.928 34.4808 266.04 31.7006 265.238L31.9154 264.494L32.1301 263.75C34.8911 264.546 38.0352 265.453 40.5078 266.404C41.7408 266.878 42.8469 267.379 43.6667 267.902C44.0763 268.163 44.4444 268.449 44.7235 268.764C45.0005 269.077 45.2359 269.471 45.2724 269.94L44.5 270ZM42.5648 274.452L42.1001 273.832C42.9375 273.204 43.3084 272.906 43.523 272.488C43.731 272.082 43.8364 271.455 43.7277 270.06L44.5 270L45.2724 269.94C45.3846 271.38 45.3185 272.382 44.9017 273.195C44.4915 273.995 43.7844 274.505 43.0294 275.071L42.5648 274.452ZM42.5647 274.452V273.677H42.5648V274.452V275.226H42.5647V274.452ZM42.5 274.5L42.0354 273.88L42.1001 273.832L42.5647 274.452L43.0293 275.071L42.9646 275.12L42.5 274.5ZM29.342 276V275.226C31.3819 275.226 34.237 275.159 36.7781 274.94C38.0501 274.831 39.2267 274.685 40.1764 274.494C41.1686 274.296 41.7795 274.072 42.0352 273.88L42.5 274.5L42.9648 275.12C42.3996 275.544 41.4684 275.816 40.4808 276.013C39.4508 276.22 38.2102 276.372 36.9109 276.484C34.3095 276.707 31.4065 276.775 29.342 276.775V276ZM16 276L16 275.226L29.342 275.226L29.342 276L29.342 276.775L16 276.775L16 276ZM13.9001 276.081L13.8586 275.307C14.6334 275.266 15.3746 275.226 16 275.226V276V276.775C15.4249 276.775 14.7296 276.812 13.9416 276.854L13.9001 276.081ZM4.99997 274.5L5.59507 274.004C6.2105 274.743 7.38387 275.156 8.97441 275.321C10.532 275.484 12.2836 275.392 13.8586 275.307L13.9001 276.081L13.9416 276.854C12.3924 276.937 10.5148 277.04 8.81377 276.862C7.1457 276.688 5.43109 276.227 4.40487 274.996L4.99997 274.5ZM5.53596 260.814L6.27085 261.059C5.67294 262.852 5.03912 265.599 4.8082 268.187C4.69278 269.481 4.68057 270.708 4.81315 271.744C4.94807 272.797 5.22127 273.556 5.59507 274.004L4.99997 274.5L4.40487 274.996C3.75256 274.213 3.42577 273.107 3.2764 271.94C3.12468 270.756 3.14386 269.408 3.26504 268.05C3.50734 265.334 4.16763 262.469 4.80106 260.569L5.53596 260.814ZM4.67263 238.006L5.44537 237.952C5.82826 243.389 6.19815 248.64 6.39538 252.763C6.49396 254.823 6.54997 256.613 6.54219 258.008C6.5383 258.705 6.51845 259.314 6.47857 259.813C6.43997 260.297 6.37889 260.734 6.27085 261.059L5.53596 260.814L4.80106 260.569C4.84635 260.433 4.89724 260.153 4.93418 259.69C4.96984 259.243 4.98913 258.677 4.99291 257.999C5.00047 256.646 4.94599 254.888 4.84785 252.837C4.65165 248.736 4.28322 243.503 3.8999 238.06L4.67263 238.006ZM3.48372 210.328L4.25569 210.393C3.85004 215.261 4.67027 226.945 5.44537 237.952L4.67263 238.006L3.8999 238.06C3.13073 227.138 2.29333 215.285 2.71174 210.264L3.48372 210.328ZM4.76537 198.177L5.53523 198.262C4.96245 203.393 4.4755 207.755 4.25569 210.393L3.48372 210.328L2.71174 210.264C2.93384 207.599 3.42405 203.209 3.9955 198.091L4.76537 198.177ZM7.5882 159.433L8.3523 159.306C8.59155 160.741 8.62043 163.039 8.51937 165.836C8.41762 168.652 8.18109 172.037 7.8686 175.678C7.24358 182.962 6.3117 191.308 5.53523 198.262L4.76537 198.177L3.9955 198.091C4.77247 191.131 5.70196 182.806 6.32497 175.546C6.6365 171.915 6.87066 168.56 6.97109 165.78C7.07223 162.98 7.0348 160.825 6.82409 159.56L7.5882 159.433ZM4.91121 149.996L5.64655 149.752C6.79006 153.204 7.88515 156.503 8.3523 159.306L7.5882 159.433L6.82409 159.56C6.38097 156.902 5.33215 153.73 4.17587 150.24L4.91121 149.996ZM1.02103 131.522L1.79494 131.556C1.54359 137.337 3.6733 143.797 5.64655 149.752L4.91121 149.996L4.17587 150.24C2.22688 144.357 -0.0190201 137.61 0.247108 131.489L1.02103 131.522ZM4.63811 116.657L5.36825 116.915C3.76714 121.433 2.0201 126.378 1.79494 131.556L1.02103 131.522L0.247108 131.489C0.483948 126.042 2.31887 120.881 3.90797 116.398L4.63811 116.657ZM7.17775 107.306L7.95068 107.358C7.76255 110.18 6.59467 113.455 5.36825 116.915L4.63811 116.657L3.90797 116.398C5.15996 112.866 6.23404 109.816 6.40482 107.255L7.17775 107.306ZM4.71506 77.3433L5.47792 77.2087C6.09922 80.7294 6.81984 86.7061 7.33376 92.5648C7.84645 98.4095 8.16041 104.212 7.95068 107.358L7.17775 107.306L6.40482 107.255C6.60554 104.244 6.30383 98.5533 5.79039 92.7002C5.27819 86.8611 4.56224 80.9349 3.9522 77.4779L4.71506 77.3433ZM4.30461 51.4851L5.05613 51.673C4.26214 54.8489 4.0533 59.4813 4.20665 64.2353C4.35951 68.9737 4.86926 73.7596 5.47792 77.2087L4.71506 77.3433L3.9522 77.4779C3.32952 73.9494 2.81315 69.0898 2.65816 64.2853C2.50368 59.4964 2.70528 54.6884 3.55309 51.2972L4.30461 51.4851ZM8.0785 34.1674L8.8373 34.3233C7.73192 39.7035 6.07903 47.5814 5.05613 51.673L4.30461 51.4851L3.55309 51.2972C4.56645 47.2438 6.21255 39.4003 7.3197 34.0115L8.0785 34.1674Z" fill="#808191"/>
<path d="M12.1032 71.1855C12.5136 76.5214 13.4731 93.5694 13.4731 95.8934C13.4731 98.2173 12.5136 105.253 12.5136 106.895C12.5136 108.536 15.7972 137.678 15.7972 140.551C15.7972 143.424 14.1554 144.656 14.1554 149.992C14.1554 155.327 16.6181 162.305 18.6704 163.536C20.7226 164.768 21.9539 163.536 21.9539 163.536C23.1853 163.126 23.5957 152.044 24.4166 150.812C25.2375 149.581 26.4689 153.275 28.1107 152.044C29.7525 150.812 26.4689 144.245 26.4689 141.372C26.4689 138.499 26.0584 109.768 26.4689 106.895C26.8793 104.021 31.8047 86.3721 32.2151 76.9318" stroke="#808191" stroke-width="1.5493"/>
<path d="M298.052 116H226.052V277" stroke="#808191" stroke-width="2"/>
<rect x="-1" y="1" width="6" height="34" transform="matrix(-1 0 0 1 257.052 81)" stroke="#808191" stroke-width="2"/>
<path d="M236.759 87.7929C237.15 88.1834 237.15 88.8166 236.759 89.2071L230.395 95.5711C230.005 95.9616 229.371 95.9616 228.981 95.5711C228.59 95.1805 228.59 94.5474 228.981 94.1569L234.638 88.5L228.981 82.8431C228.59 82.4526 228.59 81.8195 228.981 81.4289C229.371 81.0384 230.005 81.0384 230.395 81.4289L236.759 87.7929ZM236.052 88.5V89.5L64.5 89.5V88.5V87.5L236.052 87.5V88.5Z" fill="#808191"/>
<mask id="path-6-inside-1_1204_30996" fill="white">
<path d="M256 1C273.121 1 287 14.8792 287 32C287 47.026 276.309 59.5535 262.119 62.3945L255.5 71L249.484 62.3115C235.492 59.3183 225 46.8856 225 32C225 14.8792 238.879 1 256 1Z"/>
</mask>
<path d="M262.119 62.3945L261.727 60.4335L260.991 60.5807L260.534 61.1752L262.119 62.3945ZM255.5 71L253.856 72.1385L255.415 74.3908L257.085 72.2194L255.5 71ZM249.484 62.3115L251.129 61.173L250.678 60.5215L249.903 60.3558L249.484 62.3115ZM256 1V3C272.016 3 285 15.9837 285 32H287H289C289 13.7746 274.225 -1 256 -1V1ZM287 32H285C285 46.0541 275 57.7758 261.727 60.4335L262.119 62.3945L262.512 64.3556C277.618 61.3311 289 47.9979 289 32H287ZM262.119 62.3945L260.534 61.1752L253.915 69.7806L255.5 71L257.085 72.2194L263.704 63.6139L262.119 62.3945ZM255.5 71L257.144 69.8615L251.129 61.173L249.484 62.3115L247.84 63.45L253.856 72.1385L255.5 71ZM249.484 62.3115L249.903 60.3558C236.814 57.5558 227 45.9226 227 32H225H223C223 47.8487 234.171 61.0809 249.066 64.2673L249.484 62.3115ZM225 32H227C227 15.9837 239.984 3 256 3V1V-1C237.775 -1 223 13.7746 223 32H225Z" fill="#808191" mask="url(#path-6-inside-1_1204_30996)"/>
<path d="M251.875 19.625H259.125L261.542 22.0417H266.375C266.695 22.0417 267.003 22.169 267.229 22.3956C267.456 22.6222 267.583 22.9295 267.583 23.25V40.1667C267.583 40.4871 267.456 40.7945 267.229 41.0211C267.003 41.2477 266.695 41.375 266.375 41.375H244.625C244.305 41.375 243.997 41.2477 243.771 41.0211C243.544 40.7945 243.417 40.4871 243.417 40.1667V23.25C243.417 22.9295 243.544 22.6222 243.771 22.3956C243.997 22.169 244.305 22.0417 244.625 22.0417H249.458L251.875 19.625ZM255.5 38.9583C257.423 38.9583 259.267 38.1945 260.627 36.8349C261.986 35.4752 262.75 33.6312 262.75 31.7083C262.75 29.7855 261.986 27.9414 260.627 26.5818C259.267 25.2222 257.423 24.4583 255.5 24.4583C253.577 24.4583 251.733 25.2222 250.373 26.5818C249.014 27.9414 248.25 29.7855 248.25 31.7083C248.25 33.6312 249.014 35.4752 250.373 36.8349C251.733 38.1945 253.577 38.9583 255.5 38.9583ZM255.5 36.5417C254.218 36.5417 252.989 36.0324 252.082 35.126C251.176 34.2196 250.667 32.9902 250.667 31.7083C250.667 30.4265 251.176 29.1971 252.082 28.2907C252.989 27.3842 254.218 26.875 255.5 26.875C256.782 26.875 258.011 27.3842 258.918 28.2907C259.824 29.1971 260.333 30.4265 260.333 31.7083C260.333 32.9902 259.824 34.2196 258.918 35.126C258.011 36.0324 256.782 36.5417 255.5 36.5417Z" fill="#808191"/>
</svg>
