<svg width="28" height="28" viewBox="0 0 28 28" fill="none" xmlns="http://www.w3.org/2000/svg">
<path d="M11.7935 4.23242C16.0364 4.23249 19.4761 7.67211 19.4761 11.915C19.476 13.7454 18.8348 15.4254 17.7661 16.7451L23.1675 22.1465L23.2231 22.208C23.4819 22.5252 23.4632 22.9934 23.1675 23.2891C22.8718 23.5846 22.4036 23.6034 22.0864 23.3447L22.0249 23.2891L16.6226 17.8867C15.3029 18.9551 13.6236 19.5976 11.7935 19.5977C7.55078 19.5975 4.11111 16.1577 4.11084 11.915C4.11084 7.67216 7.55061 4.23256 11.7935 4.23242ZM11.7935 5.84766C8.44276 5.8478 5.72607 8.56431 5.72607 11.915C5.72634 15.2655 8.44293 17.9823 11.7935 17.9824C15.1441 17.9824 17.8606 15.2656 17.8608 11.915C17.8608 8.56426 15.1442 5.84772 11.7935 5.84766Z" fill="currentColor"/>
</svg>
