<svg width="18" height="18" viewBox="0 0 18 18" fill="none" xmlns="http://www.w3.org/2000/svg">
<path d="M13.2666 1.42188C14.9234 1.42197 16.2666 2.76508 16.2666 4.42188C16.2664 6.07849 14.9232 7.42178 13.2666 7.42188C12.3542 7.42188 11.5385 7.01278 10.9883 6.37012L7.20508 8.31836C7.24486 8.51324 7.2666 8.71524 7.2666 8.92188C7.26658 9.12797 7.24469 9.32903 7.20508 9.52344L10.9883 11.4717C11.5385 10.8294 12.3546 10.4219 13.2666 10.4219C14.9234 10.422 16.2666 11.7651 16.2666 13.4219C16.2664 15.0785 14.9232 16.4218 13.2666 16.4219C11.6099 16.4219 10.2668 15.0786 10.2666 13.4219C10.2666 13.2154 10.2864 13.0131 10.3262 12.8184L6.54395 10.8701C5.99376 11.5126 5.17875 11.9218 4.2666 11.9219C2.60987 11.9219 1.26681 10.5786 1.2666 8.92188C1.2666 7.26502 2.60975 5.92188 4.2666 5.92188C5.17819 5.92193 5.99279 6.32991 6.54297 6.97168L10.3262 5.02344C10.2866 4.82913 10.2666 4.62786 10.2666 4.42188C10.2666 2.76502 11.6097 1.42188 13.2666 1.42188ZM13.2666 11.9219C12.6685 11.9219 12.153 12.272 11.9121 12.7783C11.9103 12.7819 11.91 12.7865 11.9082 12.79C11.9074 12.7916 11.9051 12.7924 11.9043 12.7939C11.8162 12.9849 11.7666 13.1977 11.7666 13.4219C11.7668 14.2501 12.4383 14.9219 13.2666 14.9219C14.0948 14.9218 14.7664 14.2501 14.7666 13.4219C14.7666 12.5935 14.0949 11.922 13.2666 11.9219ZM4.2666 7.42188C3.43817 7.42188 2.7666 8.09345 2.7666 8.92188C2.76681 9.75013 3.4383 10.4219 4.2666 10.4219C4.86286 10.4218 5.37542 10.0723 5.61719 9.56836C5.61967 9.56327 5.62142 9.5578 5.62402 9.55273C5.62553 9.5498 5.62736 9.54685 5.62891 9.54395C5.71574 9.35419 5.76655 9.14419 5.7666 8.92188C5.7666 8.70091 5.71665 8.49162 5.63086 8.30273C5.62861 8.29856 5.6262 8.29427 5.62402 8.29004C5.61778 8.27792 5.61294 8.26522 5.60742 8.25293C5.36147 7.76056 4.85438 7.42195 4.2666 7.42188ZM13.2666 2.92188C12.4382 2.92188 11.7666 3.59345 11.7666 4.42188C11.7667 4.6455 11.8165 4.85722 11.9043 5.04785C11.9052 5.04966 11.9073 5.05091 11.9082 5.05273C11.9099 5.05606 11.9105 5.06014 11.9121 5.06348C12.1528 5.57036 12.6682 5.92188 13.2666 5.92188C14.0948 5.92178 14.7664 5.25007 14.7666 4.42188C14.7666 3.59351 14.0949 2.92197 13.2666 2.92188Z" fill="currentColor"/>
</svg>
