<svg width="267" height="1501" viewBox="0 0 267 1501" fill="none" xmlns="http://www.w3.org/2000/svg">
<mask id="path-1-inside-1_1581_38901" fill="currentColor">
<path fill-rule="evenodd" clip-rule="evenodd" d="M224.021 157.991C234.243 144.848 241.456 130.006 243.951 114.29C252.505 60.3966 234.538 0.514648 159.224 0.514648C108.638 0.514648 77.9897 39.5709 77.9897 96.3257C77.9897 103.097 77.8785 109.896 77.7685 116.62C76.9567 166.258 76.2116 211.812 120.762 211.812C124.408 211.812 128.124 211.586 131.884 211.145V231.488C131.884 231.488 112.165 254.057 83.1227 296.503C54.0807 338.948 34.1217 394.834 31.8877 430.577C30.6829 449.853 37.0323 504.854 43.1386 557.748C48.3553 602.937 53.3945 646.589 53.3945 665.115C53.3945 705.327 57.6033 891.371 64.3053 933.817C68.7992 962.278 81.9419 1009.11 93.2091 1049.26C98.7452 1068.99 103.829 1087.1 107.211 1100.63C117.476 1141.69 123.465 1344.44 123.465 1366.68C123.465 1372.5 124.046 1377.95 124.582 1382.98C126.092 1397.15 127.247 1407.99 114.055 1414.58C108.646 1417.29 96.6967 1421 82.4989 1425.42C49.79 1435.59 5.14648 1449.47 1.03823 1463.25C-4.85327 1483.02 15.7985 1494.45 31.073 1498.43C41.9181 1501.25 61.4635 1500.59 79.8835 1499.98C87.4068 1499.72 94.7424 1499.48 101.221 1499.48C113.309 1499.48 132.024 1499.17 149.2 1498.89C163.766 1498.65 177.225 1498.43 184.597 1498.43C200.664 1498.43 238.213 1496.42 249.383 1483.02C260.553 1469.62 261.049 1423.57 254.347 1403.46C250.682 1392.47 250.877 1335.05 251.076 1276.51C251.241 1227.99 251.408 1178.69 249.383 1154.39C248.583 1144.79 247.257 1130.58 245.67 1113.57C238.388 1035.53 225.61 898.581 232.947 878.213C234.302 874.449 236.064 869.92 238.068 864.763C249.28 835.928 268.113 787.494 266.218 743.906C264.935 714.408 258.367 680.201 252.583 650.073C248.291 627.723 244.431 607.618 243.479 593.346C241.245 559.836 242.379 489.318 249.081 451.34C255.783 413.362 258.017 345.934 249.081 310.19C240.274 274.961 224.474 161.26 224.021 157.991Z"/>
</mask>
<path fill-rule="evenodd" clip-rule="evenodd" d="M224.021 157.991C234.243 144.848 241.456 130.006 243.951 114.29C252.505 60.3966 234.538 0.514648 159.224 0.514648C108.638 0.514648 77.9897 39.5709 77.9897 96.3257C77.9897 103.097 77.8785 109.896 77.7685 116.62C76.9567 166.258 76.2116 211.812 120.762 211.812C124.408 211.812 128.124 211.586 131.884 211.145V231.488C131.884 231.488 112.165 254.057 83.1227 296.503C54.0807 338.948 34.1217 394.834 31.8877 430.577C30.6829 449.853 37.0323 504.854 43.1386 557.748C48.3553 602.937 53.3945 646.589 53.3945 665.115C53.3945 705.327 57.6033 891.371 64.3053 933.817C68.7992 962.278 81.9419 1009.11 93.2091 1049.26C98.7452 1068.99 103.829 1087.1 107.211 1100.63C117.476 1141.69 123.465 1344.44 123.465 1366.68C123.465 1372.5 124.046 1377.95 124.582 1382.98C126.092 1397.15 127.247 1407.99 114.055 1414.58C108.646 1417.29 96.6967 1421 82.4989 1425.42C49.79 1435.59 5.14648 1449.47 1.03823 1463.25C-4.85327 1483.02 15.7985 1494.45 31.073 1498.43C41.9181 1501.25 61.4635 1500.59 79.8835 1499.98C87.4068 1499.72 94.7424 1499.48 101.221 1499.48C113.309 1499.48 132.024 1499.17 149.2 1498.89C163.766 1498.65 177.225 1498.43 184.597 1498.43C200.664 1498.43 238.213 1496.42 249.383 1483.02C260.553 1469.62 261.049 1423.57 254.347 1403.46C250.682 1392.47 250.877 1335.05 251.076 1276.51C251.241 1227.99 251.408 1178.69 249.383 1154.39C248.583 1144.79 247.257 1130.58 245.67 1113.57C238.388 1035.53 225.61 898.581 232.947 878.213C234.302 874.449 236.064 869.92 238.068 864.763C249.28 835.928 268.113 787.494 266.218 743.906C264.935 714.408 258.367 680.201 252.583 650.073C248.291 627.723 244.431 607.618 243.479 593.346C241.245 559.836 242.379 489.318 249.081 451.34C255.783 413.362 258.017 345.934 249.081 310.19C240.274 274.961 224.474 161.26 224.021 157.991Z" fill="currentColor" fill-opacity="0.5"/>
<path d="M243.951 114.29L249.877 115.231L243.951 114.29ZM224.021 157.991L219.285 154.307L217.73 156.306L218.078 158.815L224.021 157.991ZM77.7685 116.62L71.7693 116.522L77.7685 116.62ZM131.884 211.145H137.884V204.4L131.185 205.186L131.884 211.145ZM131.884 231.488L136.402 235.436L137.884 233.74V231.488H131.884ZM83.1227 296.503L78.1708 293.115L83.1227 296.503ZM43.1386 557.748L37.1782 558.436L43.1386 557.748ZM64.3053 933.817L70.2319 932.881L64.3053 933.817ZM93.2091 1049.26L87.4322 1050.88L93.2091 1049.26ZM124.582 1382.98L118.615 1383.61L124.582 1382.98ZM114.055 1414.58L116.739 1419.95H116.739L114.055 1414.58ZM82.4989 1425.42L80.7177 1419.69H80.7176L82.4989 1425.42ZM1.03823 1463.25L-4.71185 1461.54H-4.71185L1.03823 1463.25ZM31.073 1498.43L32.585 1492.62H32.585L31.073 1498.43ZM79.8835 1499.98L80.0845 1505.97H80.0845L79.8835 1499.98ZM149.2 1498.89L149.299 1504.89H149.299L149.2 1498.89ZM249.383 1483.02L244.774 1479.18H244.774L249.383 1483.02ZM254.347 1403.46L260.039 1401.56L254.347 1403.46ZM251.076 1276.51L257.076 1276.53L251.076 1276.51ZM249.383 1154.39L243.404 1154.89L249.383 1154.39ZM245.67 1113.57L251.644 1113.01L245.67 1113.57ZM232.947 878.213L227.302 876.179V876.179L232.947 878.213ZM238.068 864.763L232.476 862.589H232.476L238.068 864.763ZM266.218 743.906L260.223 744.167L266.218 743.906ZM252.583 650.073L258.475 648.942L252.583 650.073ZM243.479 593.346L249.466 592.947L243.479 593.346ZM249.081 451.34L243.172 450.297V450.297L249.081 451.34ZM249.081 310.19L243.26 311.645V311.645L249.081 310.19ZM243.951 114.29L238.025 113.35C235.72 127.872 229.018 141.794 219.285 154.307L224.021 157.991L228.757 161.674C239.468 147.903 247.193 132.14 249.877 115.231L243.951 114.29ZM159.224 0.514648V6.51465C195.04 6.51465 216.252 20.5942 227.874 40.2464C239.75 60.3291 242.175 87.2047 238.025 113.35L243.951 114.29L249.877 115.231C254.281 87.4821 252 57.4699 238.203 34.1382C224.151 10.3761 198.722 -5.48535 159.224 -5.48535V0.514648ZM77.9897 96.3257H83.9897C83.9897 68.9753 91.3748 46.4943 104.255 30.968C117.035 15.5628 135.611 6.51465 159.224 6.51465V0.514648V-5.48535C132.251 -5.48535 110.21 4.99464 95.0195 23.3063C79.929 41.4967 71.9897 66.9213 71.9897 96.3257H77.9897ZM77.7685 116.62L83.7677 116.718C83.8776 110.002 83.9897 103.154 83.9897 96.3257H77.9897H71.9897C71.9897 103.039 71.8795 109.789 71.7693 116.522L77.7685 116.62ZM120.762 211.812V205.812C110.689 205.812 103.818 203.26 98.9296 199.271C93.9733 195.225 90.4276 189.189 88.0012 181.105C83.048 164.605 83.3561 141.886 83.7677 116.718L77.7685 116.62L71.7693 116.522C71.3691 140.992 70.8987 165.869 76.5078 184.555C79.3625 194.065 83.933 202.52 91.3416 208.567C98.8185 214.67 108.561 217.812 120.762 217.812V211.812ZM131.884 211.145L131.185 205.186C127.642 205.601 124.16 205.812 120.762 205.812V211.812V217.812C124.656 217.812 128.605 217.57 132.582 217.104L131.884 211.145ZM131.884 231.488H137.884V211.145H131.884H125.884V231.488H131.884ZM83.1227 296.503L88.0745 299.891C102.518 278.781 114.633 262.63 123.121 251.774C127.364 246.346 130.701 242.243 132.969 239.506C134.103 238.137 134.969 237.11 135.548 236.43C135.838 236.09 136.055 235.837 136.199 235.671C136.27 235.588 136.323 235.527 136.357 235.487C136.374 235.468 136.386 235.454 136.394 235.445C136.398 235.441 136.4 235.438 136.402 235.436C136.402 235.436 136.403 235.435 136.403 235.435C136.403 235.435 136.403 235.435 136.403 235.435C136.402 235.435 136.402 235.436 131.884 231.488C127.365 227.54 127.365 227.541 127.364 227.541C127.364 227.542 127.364 227.542 127.363 227.543C127.362 227.544 127.36 227.546 127.359 227.548C127.355 227.552 127.351 227.557 127.345 227.564C127.333 227.577 127.317 227.596 127.295 227.621C127.253 227.669 127.192 227.74 127.112 227.833C126.952 228.018 126.717 228.291 126.411 228.651C125.798 229.371 124.897 230.439 123.729 231.85C121.391 234.671 117.983 238.862 113.667 244.382C105.035 255.423 92.769 271.779 78.1708 293.115L83.1227 296.503ZM31.8877 430.577L37.876 430.952C40.029 396.503 59.509 341.64 88.0745 299.891L83.1227 296.503L78.1708 293.115C48.6525 336.257 28.2143 393.164 25.8994 430.203L31.8877 430.577ZM43.1386 557.748L49.099 557.06C46.044 530.597 42.9373 503.683 40.7437 480.979C38.5321 458.088 37.3091 440.022 37.876 430.952L31.8877 430.577L25.8994 430.203C25.2615 440.409 26.6108 459.481 28.7993 482.133C31.0058 504.971 34.1269 532.005 37.1782 558.436L43.1386 557.748ZM53.3945 665.115H59.3945C59.3945 646.142 54.287 602.001 49.099 557.06L43.1386 557.748L37.1782 558.436C42.4235 603.873 47.3945 647.035 47.3945 665.115H53.3945ZM64.3053 933.817L70.2319 932.881C66.9529 912.114 64.2289 855.441 62.3334 798.429C60.4443 741.612 59.3945 685.124 59.3945 665.115H53.3945H47.3945C47.3945 685.318 48.4492 741.958 50.34 798.828C52.2243 855.502 54.9557 913.074 58.3787 934.753L64.3053 933.817ZM93.2091 1049.26L98.9859 1047.64C87.6714 1007.32 74.657 960.907 70.2319 932.881L64.3053 933.817L58.3787 934.753C62.9414 963.65 76.2123 1010.9 87.4322 1050.88L93.2091 1049.26ZM107.211 1100.63L113.032 1099.18C109.624 1085.54 104.513 1067.33 98.9859 1047.64L93.2091 1049.26L87.4322 1050.88C92.9777 1070.64 98.0334 1088.66 101.39 1102.09L107.211 1100.63ZM123.465 1366.68H129.465C129.465 1355.41 127.962 1299.05 125.181 1240.43C123.789 1211.1 122.075 1181.14 120.062 1155.92C118.065 1130.89 115.74 1110.01 113.032 1099.18L107.211 1100.63L101.39 1102.09C103.815 1111.78 106.087 1131.65 108.1 1156.87C110.098 1181.91 111.806 1211.73 113.194 1241C115.974 1299.57 117.465 1355.7 117.465 1366.68H123.465ZM124.582 1382.98L130.548 1382.34C130.009 1377.28 129.465 1372.14 129.465 1366.68H123.465H117.465C117.465 1372.87 118.083 1378.62 118.615 1383.61L124.582 1382.98ZM114.055 1414.58L116.739 1419.95C124.873 1415.88 129.11 1410.07 130.69 1402.91C132.117 1396.45 131.27 1389.12 130.548 1382.34L124.582 1382.98L118.615 1383.61C119.403 1391.01 119.889 1396.18 118.973 1400.33C118.21 1403.78 116.429 1406.69 111.372 1409.22L114.055 1414.58ZM82.4989 1425.42L84.2802 1431.15C98.1612 1426.83 110.768 1422.94 116.739 1419.95L114.055 1414.58L111.372 1409.22C106.524 1411.64 95.2323 1415.17 80.7177 1419.69L82.4989 1425.42ZM1.03823 1463.25L6.78831 1464.96C7.14699 1463.76 8.99311 1461.32 14.15 1458C18.973 1454.89 25.5723 1451.71 33.3198 1448.53C48.7917 1442.18 67.8613 1436.25 84.2803 1431.15L82.4989 1425.42L80.7176 1419.69C64.4276 1424.75 44.8209 1430.84 28.7668 1437.43C20.7513 1440.71 13.3752 1444.22 7.64989 1447.91C2.2585 1451.38 -3.01641 1455.85 -4.71185 1461.54L1.03823 1463.25ZM31.073 1498.43L32.585 1492.62C25.4899 1490.77 17.5347 1487.27 12.1794 1482.34C7.07697 1477.65 4.65751 1472.11 6.78831 1464.96L1.03823 1463.25L-4.71185 1461.54C-8.47255 1474.16 -3.51185 1484.22 4.05739 1491.18C11.3737 1497.9 21.3816 1502.1 29.5611 1504.23L31.073 1498.43ZM79.8835 1499.98L79.6825 1493.98C70.4392 1494.29 61.0945 1494.6 52.7163 1494.49C44.2291 1494.38 37.2549 1493.84 32.585 1492.62L31.073 1498.43L29.5611 1504.23C35.7363 1505.84 43.9573 1506.38 52.559 1506.49C61.2698 1506.61 70.9077 1506.28 80.0845 1505.97L79.8835 1499.98ZM101.221 1499.48V1493.48C94.622 1493.48 87.1791 1493.73 79.6825 1493.98L79.8835 1499.98L80.0845 1505.97C87.6345 1505.72 94.8627 1505.48 101.221 1505.48V1499.48ZM149.2 1498.89L149.101 1492.89C131.903 1493.17 113.248 1493.48 101.221 1493.48V1499.48V1505.48C113.371 1505.48 132.145 1505.17 149.299 1504.89L149.2 1498.89ZM184.597 1498.43V1492.43C177.162 1492.43 163.638 1492.65 149.101 1492.89L149.2 1498.89L149.299 1504.89C163.894 1504.65 177.288 1504.43 184.597 1504.43V1498.43ZM249.383 1483.02L244.774 1479.18C242.92 1481.4 239.563 1483.58 234.637 1485.49C229.805 1487.36 223.99 1488.78 217.82 1489.83C205.486 1491.93 192.45 1492.43 184.597 1492.43V1498.43V1504.43C192.811 1504.43 206.583 1503.92 219.833 1501.66C226.455 1500.54 233.126 1498.95 238.978 1496.68C244.736 1494.44 250.261 1491.34 253.992 1486.86L249.383 1483.02ZM254.347 1403.46L248.655 1405.36C251.68 1414.43 253.24 1430.15 252.573 1445.49C252.243 1453.09 251.376 1460.34 249.969 1466.4C248.522 1472.64 246.657 1476.92 244.774 1479.18L249.383 1483.02L253.992 1486.86C257.694 1482.42 260.079 1475.92 261.658 1469.12C263.276 1462.15 264.209 1454.12 264.561 1446.01C265.26 1429.96 263.716 1412.6 260.039 1401.56L254.347 1403.46ZM251.076 1276.51L245.076 1276.49C244.977 1305.74 244.878 1334.8 245.264 1357.92C245.456 1369.47 245.771 1379.62 246.274 1387.6C246.758 1395.28 247.448 1401.74 248.655 1405.36L254.347 1403.46L260.039 1401.56C259.414 1399.69 258.754 1394.85 258.25 1386.84C257.765 1379.14 257.454 1369.21 257.262 1357.72C256.879 1334.74 256.976 1305.82 257.076 1276.53L251.076 1276.51ZM249.383 1154.39L243.404 1154.89C245.401 1178.86 245.241 1227.8 245.076 1276.49L251.076 1276.51L257.076 1276.53C257.24 1228.17 257.415 1178.52 255.362 1153.89L249.383 1154.39ZM245.67 1113.57L239.696 1114.13C241.285 1131.15 242.607 1145.33 243.404 1154.89L249.383 1154.39L255.362 1153.89C254.56 1144.26 253.23 1130.01 251.644 1113.01L245.67 1113.57ZM232.947 878.213L227.302 876.179C226.061 879.625 225.437 884.777 225.099 890.626C224.748 896.682 224.675 904.172 224.817 912.705C225.099 929.782 226.244 951.369 227.841 974.674C231.034 1021.3 236.057 1075.12 239.696 1114.13L245.67 1113.57L251.644 1113.01C248.002 1073.98 242.994 1020.31 239.813 973.854C238.221 950.621 237.092 929.274 236.815 912.506C236.676 904.116 236.752 896.956 237.079 891.319C237.417 885.475 237.999 881.892 238.592 880.246L232.947 878.213ZM238.068 864.763L232.476 862.589C230.481 867.721 228.688 872.33 227.302 876.179L232.947 878.213L238.592 880.246C239.916 876.569 241.646 872.118 243.661 866.938L238.068 864.763ZM266.218 743.906L260.223 744.167C262.054 786.273 243.784 833.507 232.476 862.589L238.068 864.763L243.661 866.938C254.777 838.348 274.172 788.714 272.212 743.645L266.218 743.906ZM252.583 650.073L246.69 651.205C252.496 681.445 258.964 715.193 260.223 744.167L266.218 743.906L272.212 743.645C270.907 713.622 264.238 678.957 258.475 648.942L252.583 650.073ZM243.479 593.346L237.493 593.745C238.475 608.476 242.43 629.017 246.69 651.205L252.583 650.073L258.475 648.942C254.152 626.429 250.387 606.76 249.466 592.947L243.479 593.346ZM249.081 451.34L243.172 450.297C236.358 488.912 235.24 559.949 237.493 593.745L243.479 593.346L249.466 592.947C247.251 559.722 248.4 489.724 254.99 452.383L249.081 451.34ZM249.081 310.19L243.26 311.645C247.54 328.765 249.223 353.947 248.946 379.863C248.669 405.693 246.453 431.706 243.172 450.297L249.081 451.34L254.99 452.383C258.411 432.996 260.663 406.306 260.945 379.992C261.226 353.763 259.558 327.359 254.902 308.735L249.081 310.19ZM224.021 157.991L218.078 158.815C218.502 161.875 234.353 276.016 243.26 311.645L249.081 310.19L254.902 308.735C246.195 273.906 230.446 160.644 229.964 157.166L224.021 157.991Z" fill="currentColor" mask="url(#path-1-inside-1_1581_38901)"/>
<path d="M218.148 353.552C215.914 382.594 222.617 475.572 222.617 488.221C222.617 500.87 218.148 555.136 218.148 564.072C218.148 573.008 200.276 731.621 200.276 747.259C200.276 762.897 209.212 769.599 209.212 798.641C209.212 827.683 208.148 841.58 196.978 848.282C185.808 854.984 171.314 859.403 171.314 859.403C163.615 862.825 153.35 873.56 142.192 867.957C133.674 863.68 117.42 857.667 117.42 841.438C117.42 825.209 133.674 762.897 133.674 747.259C133.674 731.621 135.908 564.51 133.674 548.872C131.44 533.234 113.15 452.372 110.916 400.99" stroke="currentColor" stroke-width="6" stroke-linecap="round"/>
</svg>
