<svg width="81" height="480" viewBox="0 0 81 480" fill="none" xmlns="http://www.w3.org/2000/svg">
<mask id="path-1-inside-1_1204_31032" fill="white">
<path fill-rule="evenodd" clip-rule="evenodd" d="M67.8228 58.904C74.0696 52.8432 78.0222 43.8859 78.0222 33.893C78.0222 15.6382 64.8323 0.839844 48.5618 0.839844C32.2913 0.839844 19.1014 15.6382 19.1014 33.893C19.1014 50.5984 30.1475 64.4093 44.492 66.6332L43.5321 69.1017C43.5321 69.1017 37.0652 77.7243 27.7241 91.3766C18.383 105.029 8.32331 122.993 7.60477 134.489C7.20349 140.91 8.37089 155.846 9.48003 170.037C10.357 181.257 11.1975 192.011 11.1975 197.721C11.1975 210.655 17.6644 282.51 19.82 296.162C19.9992 297.297 20.1883 298.511 20.3873 299.789C22.5828 313.886 25.9865 335.74 30.5982 344.305C35.6281 353.646 46.1135 421.189 47.1248 434.841C48.1361 448.494 42.8135 455.679 37.0652 458.553C34.797 459.688 28.7568 460.486 22.2503 461.346C12.2665 462.666 1.18457 464.131 0.947312 467.176C0.555434 472.206 1.66586 473.643 4.54004 475.799C7.41423 477.954 23.4128 479.603 30.5982 479.603C34.4864 479.603 39.807 479.12 44.69 478.677C48.8311 478.301 52.6575 477.954 55.0288 477.954C60.1964 477.954 68.6812 477.954 72.2739 473.643C75.8666 469.332 74.4296 462.146 72.2739 455.679C71.2002 452.458 72.4439 434.799 73.7853 415.751C75.137 396.557 76.588 375.954 75.8666 367.298C75.4798 362.656 74.6245 354.995 73.6229 346.024C70.9034 321.666 67.1058 287.651 68.6812 278.199C69.478 273.418 71.3546 267.754 73.3676 261.678C76.8008 251.316 80.6309 239.755 80.1779 229.337C79.7735 220.037 76.6382 211.191 73.8457 203.313C71.6763 197.192 69.7139 191.656 69.3997 186.943C68.6812 176.165 71.5554 146.705 73.711 134.489C75.8666 122.274 77.3037 100.718 74.4296 89.221C72.6472 82.0915 69.7595 68.3302 67.8228 58.904Z"/>
</mask>
<path fill-rule="evenodd" clip-rule="evenodd" d="M67.8228 58.904C74.0696 52.8432 78.0222 43.8859 78.0222 33.893C78.0222 15.6382 64.8323 0.839844 48.5618 0.839844C32.2913 0.839844 19.1014 15.6382 19.1014 33.893C19.1014 50.5984 30.1475 64.4093 44.492 66.6332L43.5321 69.1017C43.5321 69.1017 37.0652 77.7243 27.7241 91.3766C18.383 105.029 8.32331 122.993 7.60477 134.489C7.20349 140.91 8.37089 155.846 9.48003 170.037C10.357 181.257 11.1975 192.011 11.1975 197.721C11.1975 210.655 17.6644 282.51 19.82 296.162C19.9992 297.297 20.1883 298.511 20.3873 299.789C22.5828 313.886 25.9865 335.74 30.5982 344.305C35.6281 353.646 46.1135 421.189 47.1248 434.841C48.1361 448.494 42.8135 455.679 37.0652 458.553C34.797 459.688 28.7568 460.486 22.2503 461.346C12.2665 462.666 1.18457 464.131 0.947312 467.176C0.555434 472.206 1.66586 473.643 4.54004 475.799C7.41423 477.954 23.4128 479.603 30.5982 479.603C34.4864 479.603 39.807 479.12 44.69 478.677C48.8311 478.301 52.6575 477.954 55.0288 477.954C60.1964 477.954 68.6812 477.954 72.2739 473.643C75.8666 469.332 74.4296 462.146 72.2739 455.679C71.2002 452.458 72.4439 434.799 73.7853 415.751C75.137 396.557 76.588 375.954 75.8666 367.298C75.4798 362.656 74.6245 354.995 73.6229 346.024C70.9034 321.666 67.1058 287.651 68.6812 278.199C69.478 273.418 71.3546 267.754 73.3676 261.678C76.8008 251.316 80.6309 239.755 80.1779 229.337C79.7735 220.037 76.6382 211.191 73.8457 203.313C71.6763 197.192 69.7139 191.656 69.3997 186.943C68.6812 176.165 71.5554 146.705 73.711 134.489C75.8666 122.274 77.3037 100.718 74.4296 89.221C72.6472 82.0915 69.7595 68.3302 67.8228 58.904Z" fill="#9FBCF6" fill-opacity="0.5"/>
<path d="M67.8228 58.904L66.6639 57.7095L66.0089 58.345L66.1925 59.239L67.8228 58.904ZM44.492 66.6332L46.0432 67.2365L46.794 65.3059L44.747 64.9885L44.492 66.6332ZM43.5321 69.1017L44.8636 70.1003L45.0005 69.9177L45.0833 69.7049L43.5321 69.1017ZM7.60477 134.489L9.26589 134.593L7.60477 134.489ZM9.48003 170.037L11.1393 169.907L9.48003 170.037ZM19.82 296.162L21.464 295.903L19.82 296.162ZM20.3873 299.789L22.0319 299.533L20.3873 299.789ZM30.5982 344.305L32.0637 343.516L30.5982 344.305ZM47.1248 434.841L48.7846 434.719L47.1248 434.841ZM37.0652 458.553L36.3208 457.065H36.3208L37.0652 458.553ZM22.2503 461.346L22.4684 462.996H22.4684L22.2503 461.346ZM0.947312 467.176L2.60665 467.305L0.947312 467.176ZM4.54004 475.799L3.54142 477.13L3.54143 477.13L4.54004 475.799ZM44.69 478.677L44.8404 480.335H44.8404L44.69 478.677ZM72.2739 473.643L70.9953 472.577L72.2739 473.643ZM72.2739 455.679L70.695 456.206L72.2739 455.679ZM73.7853 415.751L75.4455 415.868L73.7853 415.751ZM75.8666 367.298L74.208 367.436L75.8666 367.298ZM73.6229 346.024L71.9688 346.209L73.6229 346.024ZM68.6812 278.199L70.3229 278.472L68.6812 278.199ZM73.3676 261.678L74.9475 262.201L73.3676 261.678ZM80.1779 229.337L81.8407 229.265L80.1779 229.337ZM73.8457 203.313L72.277 203.869L73.8457 203.313ZM69.3997 186.943L67.7391 187.054L69.3997 186.943ZM73.711 134.489L75.35 134.779L73.711 134.489ZM74.4296 89.221L72.8149 89.6247L74.4296 89.221ZM78.0222 33.893H76.3578C76.3578 43.4491 72.5781 51.9712 66.6639 57.7095L67.8228 58.904L68.9818 60.0986C75.5611 53.7151 79.6866 44.3227 79.6866 33.893H78.0222ZM48.5618 0.839844V2.50421C63.7382 2.50421 76.3578 16.3722 76.3578 33.893H78.0222H79.6866C79.6866 14.9043 65.9264 -0.82452 48.5618 -0.82452V0.839844ZM19.1014 33.893H20.7658C20.7658 16.3722 33.3854 2.50421 48.5618 2.50421V0.839844V-0.82452C31.1972 -0.82452 17.4371 14.9043 17.4371 33.893H19.1014ZM44.492 66.6332L44.747 64.9885C31.3384 62.9097 20.7658 49.9107 20.7658 33.893H19.1014H17.4371C17.4371 51.2862 28.9567 65.909 44.237 68.2779L44.492 66.6332ZM43.5321 69.1017L45.0833 69.7049L46.0432 67.2365L44.492 66.6332L42.9408 66.03L41.9809 68.4985L43.5321 69.1017ZM27.7241 91.3766L29.0977 92.3165C33.7595 85.5031 37.7035 79.9456 40.4811 76.0928C41.8698 74.1665 42.9668 72.6666 43.7159 71.6491C44.0905 71.1404 44.3781 70.7522 44.5717 70.4918C44.6685 70.3615 44.7418 70.2632 44.7908 70.1977C44.8152 70.1649 44.8336 70.1403 44.8458 70.1241C44.8519 70.116 44.8564 70.1099 44.8594 70.1059C44.8608 70.104 44.8619 70.1025 44.8626 70.1016C44.863 70.1011 44.8632 70.1008 44.8634 70.1005C44.8635 70.1004 44.8635 70.1004 44.8635 70.1003C44.8636 70.1003 44.8636 70.1003 43.5321 69.1017C42.2006 68.1031 42.2005 68.1032 42.2004 68.1033C42.2004 68.1034 42.2003 68.1035 42.2001 68.1037C42.1999 68.104 42.1996 68.1044 42.1991 68.105C42.1983 68.1062 42.197 68.1079 42.1953 68.1101C42.192 68.1145 42.1871 68.121 42.1807 68.1296C42.1678 68.1468 42.1487 68.1724 42.1236 68.2061C42.0732 68.2735 41.9985 68.3738 41.9002 68.506C41.7036 68.7704 41.413 69.1626 41.0354 69.6755C40.2801 70.7014 39.1765 72.2103 37.7809 74.1462C34.9897 78.0178 31.0297 83.5978 26.3504 90.4368L27.7241 91.3766ZM7.60477 134.489L9.26589 134.593C9.60363 129.189 12.1717 122.071 15.9231 114.479C19.6512 106.934 24.4572 99.0987 29.0977 92.3165L27.7241 91.3766L26.3504 90.4368C21.6498 97.3069 16.7554 105.28 12.9388 113.004C9.14548 120.681 6.32445 128.293 5.94365 134.386L7.60477 134.489ZM9.48003 170.037L11.1393 169.907C10.0238 155.634 8.87403 140.863 9.26589 134.593L7.60477 134.489L5.94365 134.386C5.53295 140.957 6.71798 156.057 7.82073 170.166L9.48003 170.037ZM11.1975 197.721H12.8619C12.8619 191.928 12.0132 181.088 11.1393 169.907L9.48003 170.037L7.82073 170.166C8.70072 181.425 9.53313 192.093 9.53313 197.721H11.1975ZM19.82 296.162L21.464 295.903C20.3971 289.145 18.2462 267.833 16.3583 246.525C14.469 225.203 12.8619 204.096 12.8619 197.721H11.1975H9.53313C9.53313 204.28 11.1595 225.567 13.0425 246.819C14.9269 268.086 17.0874 289.527 18.1761 296.422L19.82 296.162ZM20.3873 299.789L22.0319 299.533C21.8329 298.255 21.6435 297.039 21.464 295.903L19.82 296.162L18.1761 296.422C18.3549 297.554 18.5437 298.767 18.7428 300.045L20.3873 299.789ZM30.5982 344.305L32.0637 343.516C29.8897 339.478 27.9236 332.106 26.2171 323.787C24.5246 315.536 23.1306 306.588 22.0319 299.533L20.3873 299.789L18.7428 300.045C19.8395 307.087 21.2451 316.114 22.9563 324.456C24.6534 332.729 26.695 340.566 29.1328 345.094L30.5982 344.305ZM47.1248 434.841L48.7846 434.719C48.2724 427.804 45.385 407.433 42.0091 387.676C40.3188 377.784 38.5002 368.012 36.7867 360.119C35.9303 356.174 35.0965 352.681 34.3144 349.871C33.5449 347.105 32.7899 344.865 32.0637 343.516L30.5982 344.305L29.1328 345.094C29.664 346.08 30.337 347.994 31.1075 350.763C31.8656 353.488 32.6841 356.911 33.5338 360.825C35.2325 368.65 37.0417 378.369 38.7279 388.237C42.105 408 44.9659 428.227 45.465 434.964L47.1248 434.841ZM37.0652 458.553L37.8095 460.042C44.2868 456.803 49.8345 448.892 48.7846 434.719L47.1248 434.841L45.465 434.964C46.4376 448.095 41.3402 454.555 36.3208 457.065L37.0652 458.553ZM22.2503 461.346L22.4684 462.996C25.7118 462.567 28.8839 462.148 31.5296 461.693C34.1021 461.25 36.4215 460.736 37.8095 460.042L37.0652 458.553L36.3208 457.065C35.4407 457.505 33.6059 457.958 30.9647 458.412C28.3966 458.855 25.2953 459.265 22.0322 459.696L22.2503 461.346ZM0.947312 467.176L2.60665 467.305C2.59508 467.454 2.52125 467.454 2.6787 467.301C2.84452 467.141 3.15933 466.921 3.68887 466.668C4.74617 466.164 6.32001 465.686 8.30957 465.238C12.2686 464.346 17.4516 463.659 22.4684 462.996L22.2503 461.346L22.0322 459.696C17.0651 460.353 11.7153 461.058 7.57809 461.99C5.51955 462.454 3.65444 462.996 2.25516 463.664C1.55641 463.997 0.888529 464.402 0.363896 464.909C-0.169101 465.425 -0.641138 466.137 -0.712023 467.047L0.947312 467.176ZM4.54004 475.799L5.53866 474.467C4.12837 473.409 3.42801 472.719 3.02663 471.86C2.62147 470.994 2.41823 469.724 2.60665 467.305L0.947312 467.176L-0.712023 467.047C-0.915486 469.658 -0.759451 471.622 0.0111824 473.27C0.785584 474.926 2.07753 476.032 3.54142 477.13L4.54004 475.799ZM30.5982 479.603V477.938C27.0958 477.938 21.3739 477.533 16.1664 476.858C13.5654 476.521 11.1281 476.121 9.18213 475.679C8.20816 475.458 7.38316 475.233 6.73439 475.008C6.05398 474.773 5.68713 474.578 5.53865 474.467L4.54004 475.799L3.54143 477.13C4.1115 477.558 4.87333 477.887 5.64604 478.154C6.45041 478.432 7.40297 478.689 8.44532 478.925C10.532 479.399 13.0823 479.815 15.7384 480.159C21.0451 480.847 26.9152 481.267 30.5982 481.267V479.603ZM44.69 478.677L44.5397 477.019C39.6284 477.465 34.394 477.938 30.5982 477.938V479.603V481.267C34.5788 481.267 39.9855 480.775 44.8404 480.335L44.69 478.677ZM55.0288 477.954V476.29C52.5626 476.29 48.6418 476.647 44.5397 477.019L44.69 478.677L44.8404 480.335C49.0203 479.955 52.7523 479.619 55.0288 479.619V477.954ZM72.2739 473.643L70.9953 472.577C69.5928 474.261 67.0772 475.253 63.9669 475.774C60.9086 476.286 57.6321 476.29 55.0288 476.29V477.954V479.619C57.5931 479.619 61.1427 479.622 64.517 479.057C67.8391 478.5 71.3624 477.337 73.5525 474.708L72.2739 473.643ZM72.2739 455.679L70.695 456.206C71.7569 459.392 72.6008 462.64 72.7679 465.564C72.9354 468.495 72.4123 470.877 70.9953 472.577L72.2739 473.643L73.5525 474.708C75.7283 472.098 76.283 468.731 76.0912 465.375C75.899 462.012 74.9466 458.434 73.8529 455.153L72.2739 455.679ZM73.7853 415.751L72.125 415.634C71.4548 425.151 70.807 434.349 70.4615 441.571C70.2888 445.18 70.1905 448.319 70.2041 450.77C70.211 451.994 70.2458 453.067 70.3165 453.953C70.3844 454.803 70.4934 455.601 70.695 456.206L72.2739 455.679L73.8529 455.153C73.7861 454.953 73.699 454.494 73.6347 453.688C73.5731 452.916 73.5394 451.933 73.5328 450.751C73.5196 448.389 73.6147 445.319 73.7864 441.73C74.1297 434.554 74.7744 425.398 75.4455 415.868L73.7853 415.751ZM75.8666 367.298L74.208 367.436C74.9156 375.927 73.4831 396.35 72.125 415.634L73.7853 415.751L75.4455 415.868C76.7909 396.764 78.2603 375.98 77.5253 367.16L75.8666 367.298ZM73.6229 346.024L71.9688 346.209C72.9718 355.193 73.8237 362.824 74.208 367.436L75.8666 367.298L77.5253 367.16C77.136 362.489 76.2772 354.798 75.277 345.84L73.6229 346.024ZM68.6812 278.199L67.0395 277.925C66.615 280.472 66.5661 284.523 66.743 289.419C66.9214 294.357 67.3359 300.287 67.8832 306.664C68.9778 319.419 70.6096 334.035 71.9688 346.209L73.6229 346.024L75.277 345.84C73.9167 333.656 72.29 319.085 71.1997 306.38C70.6546 300.027 70.2451 294.158 70.0696 289.299C69.8925 284.397 69.9597 280.651 70.3229 278.472L68.6812 278.199ZM73.3676 261.678L71.7877 261.154C69.7884 267.189 67.8621 272.989 67.0395 277.925L68.6812 278.199L70.3229 278.472C71.0939 273.846 72.9208 268.319 74.9475 262.201L73.3676 261.678ZM80.1779 229.337L78.5151 229.41C78.9522 239.462 75.247 250.713 71.7877 261.154L73.3676 261.678L74.9475 262.201C78.3547 251.918 82.3096 240.048 81.8407 229.265L80.1779 229.337ZM73.8457 203.313L72.277 203.869C75.0823 211.783 78.1233 220.398 78.5151 229.41L80.1779 229.337L81.8407 229.265C81.4238 219.676 78.194 210.598 75.4145 202.757L73.8457 203.313ZM69.3997 186.943L67.7391 187.054C68.0719 192.046 70.1351 197.826 72.277 203.869L73.8457 203.313L75.4145 202.757C73.2176 196.559 71.3559 191.265 71.0604 186.832L69.3997 186.943ZM73.711 134.489L72.072 134.2C70.9821 140.376 69.7196 150.849 68.8196 161.11C67.9222 171.34 67.3701 181.52 67.7391 187.054L69.3997 186.943L71.0604 186.832C70.7108 181.589 71.2366 171.649 72.1356 161.401C73.0319 151.182 74.2843 140.818 75.35 134.779L73.711 134.489ZM74.4296 89.221L72.8149 89.6247C74.1942 95.1418 74.5612 103.216 74.293 111.532C74.0258 119.814 73.1347 128.178 72.072 134.2L73.711 134.489L75.35 134.779C76.4429 128.586 77.3482 120.063 77.62 111.639C77.8906 103.249 77.5391 94.7969 76.0442 88.8173L74.4296 89.221ZM67.8228 58.904L66.1925 59.239C68.1273 68.6559 71.0223 82.4542 72.8149 89.6247L74.4296 89.221L76.0442 88.8173C74.2721 81.7288 71.3917 68.0046 69.4531 58.5691L67.8228 58.904Z" fill="white" mask="url(#path-1-inside-1_1204_31032)"/>
<path d="M60.7777 123.715C60.0592 133.056 58.3794 162.901 58.3794 166.969C58.3794 171.038 60.0592 183.354 60.0592 186.228C60.0592 189.103 54.3108 240.119 54.3108 245.149C54.3108 250.179 57.185 252.335 57.185 261.676C57.185 271.017 52.8737 283.232 49.281 285.388C45.6883 287.543 43.5326 285.388 43.5326 285.388C41.377 284.669 40.6584 265.268 39.2213 263.113C37.7842 260.957 35.6286 267.424 32.7544 265.268C29.8802 263.113 35.6286 251.616 35.6286 246.586C35.6286 241.556 36.3472 191.258 35.6286 186.228C34.9101 181.199 26.2875 150.301 25.569 133.774" stroke="white" stroke-width="1.66436"/>
</svg>
