<svg width="10" height="12" viewBox="0 0 10 12" fill="none" xmlns="http://www.w3.org/2000/svg">
<path d="M4.28571 0C3.5 0 2.85714 0.675 2.85714 1.5H1.42857C0.642857 1.5 0 2.175 0 3H10C10 2.175 9.35714 1.5 8.57143 1.5H7.14286C7.14286 0.675 6.5 0 5.71429 0H4.28571ZM1.42857 4.5V11.715C1.42857 11.88 1.54286 12 1.7 12H8.31429C8.47143 12 8.58572 11.88 8.58572 11.715V4.5H7.15714V9.75C7.15714 10.17 6.84286 10.5 6.44286 10.5C6.04286 10.5 5.72857 10.17 5.72857 9.75V4.5H4.3V9.75C4.3 10.17 3.98571 10.5 3.58571 10.5C3.18571 10.5 2.87143 10.17 2.87143 9.75V4.5H1.44286H1.42857Z" fill="#FBFBFB"/>
</svg>
