<svg width="22" height="24" viewBox="0 0 22 24" fill="none" xmlns="http://www.w3.org/2000/svg">
<path d="M7.94464 3.70496C8.58721 1.82454 11.1854 1.76759 11.9473 3.53411L12.0117 3.70604L12.8789 6.24192C13.0776 6.82348 13.3987 7.35567 13.8206 7.80258C14.2425 8.24949 14.7553 8.60073 15.3245 8.8326L15.5577 8.91963L18.0935 9.7857C19.974 10.4283 20.0309 13.0265 18.2655 13.7883L18.0935 13.8528L15.5577 14.7199C14.9759 14.9185 14.4435 15.2396 13.9964 15.6615C13.5493 16.0834 13.1979 16.5963 12.9659 17.1655L12.8789 17.3976L12.0128 19.9346C11.3702 21.815 8.77203 21.872 8.01126 20.1065L7.94464 19.9346L7.07858 17.3987C6.87998 16.8169 6.55891 16.2845 6.13701 15.8374C5.71512 15.3903 5.20223 15.0389 4.63296 14.807L4.40086 14.7199L1.86498 13.8539C-0.0165127 13.2113 -0.0734623 10.6131 1.69306 9.85232L1.86498 9.7857L4.40086 8.91963C4.98243 8.72091 5.51462 8.39977 5.96153 7.97789C6.40843 7.556 6.75967 7.04318 6.99154 6.47401L7.07858 6.24192L7.94464 3.70496ZM9.97872 4.39911L9.11265 6.93498C8.81006 7.82179 8.31779 8.63199 7.67014 9.30914C7.02249 9.9863 6.23502 10.5141 5.36256 10.8559L5.09393 10.9537L2.55805 11.8198L5.09393 12.6858C5.98074 12.9884 6.79093 13.4807 7.46809 14.1284C8.14525 14.776 8.67309 15.5635 9.01487 16.4359L9.11265 16.7046L9.97872 19.2404L10.8448 16.7046C11.1474 15.8178 11.6396 15.0076 12.2873 14.3304C12.935 13.6532 13.7224 13.1254 14.5949 12.7836L14.8635 12.6869L17.3994 11.8198L14.8635 10.9537C13.9767 10.6511 13.1665 10.1588 12.4894 9.5112C11.8122 8.86355 11.2843 8.07607 10.9426 7.20362L10.8459 6.93498L9.97872 4.39911ZM18.5749 1.94153e-07C18.7759 -2.53558e-07 18.9729 0.0563892 19.1435 0.16276C19.3141 0.269131 19.4514 0.421217 19.5398 0.601734L19.5914 0.727454L19.9675 1.82992L21.071 2.206C21.2725 2.27444 21.4491 2.40115 21.5785 2.57007C21.7078 2.73898 21.7841 2.9425 21.7977 3.15483C21.8113 3.36716 21.7615 3.57874 21.6547 3.76276C21.548 3.94678 21.3889 4.09495 21.1978 4.1885L21.071 4.24008L19.9686 4.61616L19.5925 5.7197C19.5239 5.92109 19.3971 6.09761 19.2282 6.22686C19.0592 6.35612 18.8556 6.43231 18.6433 6.44578C18.431 6.45924 18.2194 6.40937 18.0355 6.3025C17.8515 6.19562 17.7035 6.03654 17.61 5.84542L17.5584 5.7197L17.1823 4.61723L16.0788 4.24115C15.8773 4.17271 15.7007 4.046 15.5714 3.87708C15.442 3.70817 15.3657 3.50465 15.3521 3.29232C15.3385 3.07999 15.3883 2.86841 15.4951 2.68439C15.6019 2.50037 15.7609 2.3522 15.952 2.25865L16.0788 2.20707L17.1813 1.83099L17.5573 0.727454C17.6298 0.515155 17.7669 0.330856 17.9494 0.200398C18.1319 0.0699398 18.3506 -0.000134618 18.5749 1.94153e-07Z" fill="currentColor"/>
</svg>
