<svg width="20" height="20" viewBox="0 0 20 20" fill="none" xmlns="http://www.w3.org/2000/svg">
<path d="M3.15716 7.53025C2.56767 7.84935 1.02207 8.50091 1.96345 9.31623C2.4233 9.71451 2.93546 9.99935 3.57937 9.99935H7.25364C7.89755 9.99935 8.40971 9.71451 8.86956 9.31623C9.81094 8.50091 8.26534 7.84935 7.67585 7.53025C6.29351 6.78198 4.5395 6.78198 3.15716 7.53025Z" stroke="url(#paint0_linear_1429_30900)"/>
<path d="M7.2915 3.55996C7.2915 4.60595 6.45204 5.45389 5.4165 5.45389C4.38097 5.45389 3.5415 4.60595 3.5415 3.55996C3.5415 2.51396 4.38097 1.66602 5.4165 1.66602C6.45204 1.66602 7.2915 2.51396 7.2915 3.55996Z" stroke="url(#paint1_linear_1429_30900)"/>
<path d="M3.3335 12.5C3.3335 15.2643 5.56921 17.5 8.3335 17.5L7.61921 16.0714" stroke="url(#paint2_linear_1429_30900)" stroke-linecap="round" stroke-linejoin="round"/>
<path d="M16.6665 7.5C16.6665 4.73572 14.4308 2.5 11.6665 2.5L12.3808 3.92857" stroke="url(#paint3_linear_1429_30900)" stroke-linecap="round" stroke-linejoin="round"/>
<path d="M12.3242 15.8642C11.7347 16.1833 10.1891 16.8349 11.1304 17.6502C11.5903 18.0485 12.1025 18.3333 12.7464 18.3333H16.4206C17.0645 18.3333 17.5767 18.0485 18.0366 17.6502C18.9779 16.8349 17.4323 16.1833 16.8428 15.8642C15.4605 15.116 13.7065 15.116 12.3242 15.8642Z" stroke="url(#paint4_linear_1429_30900)"/>
<path d="M16.4585 11.8939C16.4585 12.9399 15.619 13.7879 14.5835 13.7879C13.548 13.7879 12.7085 12.9399 12.7085 11.8939C12.7085 10.8479 13.548 10 14.5835 10C15.619 10 16.4585 10.8479 16.4585 11.8939Z" stroke="url(#paint5_linear_1429_30900)"/>
<defs>
<linearGradient id="paint0_linear_1429_30900" x1="1.6665" y1="5.83268" x2="9.1665" y2="5.83268" gradientUnits="userSpaceOnUse">
<stop stop-color="#6B25E0"/>
<stop offset="1" stop-color="#2C44EF"/>
</linearGradient>
<linearGradient id="paint1_linear_1429_30900" x1="1.6665" y1="5.83268" x2="9.1665" y2="5.83268" gradientUnits="userSpaceOnUse">
<stop stop-color="#6B25E0"/>
<stop offset="1" stop-color="#2C44EF"/>
</linearGradient>
<linearGradient id="paint2_linear_1429_30900" x1="3.3335" y1="15" x2="8.3335" y2="15" gradientUnits="userSpaceOnUse">
<stop stop-color="#6B25E0"/>
<stop offset="1" stop-color="#2C44EF"/>
</linearGradient>
<linearGradient id="paint3_linear_1429_30900" x1="11.6665" y1="5" x2="16.6665" y2="5" gradientUnits="userSpaceOnUse">
<stop stop-color="#6B25E0"/>
<stop offset="1" stop-color="#2C44EF"/>
</linearGradient>
<linearGradient id="paint4_linear_1429_30900" x1="10.8335" y1="14.1667" x2="18.3335" y2="14.1667" gradientUnits="userSpaceOnUse">
<stop stop-color="#6B25E0"/>
<stop offset="1" stop-color="#2C44EF"/>
</linearGradient>
<linearGradient id="paint5_linear_1429_30900" x1="10.8335" y1="14.1667" x2="18.3335" y2="14.1667" gradientUnits="userSpaceOnUse">
<stop stop-color="#6B25E0"/>
<stop offset="1" stop-color="#2C44EF"/>
</linearGradient>
</defs>
</svg>
